<?xml version="1.0" standalone="no"?>
<!DOCTYPE svg PUBLIC "-//W3C//DTD SVG 1.1//EN" "http://www.w3.org/Graphics/SVG/1.1/DTD/svg11.dtd" >
<svg>
<metadata>
Created by FontForge 20090622 at Mon Nov 27 12:40:47 2017
 By deploy user
Copyright (c) 2003-2006 Peter Bilak, Typotheque V.O.F. All rights reserved.
</metadata>
<defs>
<font id="FedraSansCondStd-Bold" horiz-adv-x="420" >
  <font-face 
    font-family="Fedra Sans Cond Std Bold"
    font-weight="700"
    font-stretch="condensed"
    units-per-em="1000"
    panose-1="2 0 5 6 8 0 0 2 0 4"
    ascent="780"
    descent="-220"
    x-height="546"
    cap-height="707"
    bbox="-200 -288 1274.84 962"
    underline-thickness="50"
    underline-position="-50"
    unicode-range="U+0020-U+FE69"
  />
<missing-glyph horiz-adv-x="712" 
d="M305 375v27h27v-27h-27zM380 525v27h27v-27h-27zM305 525v27h27v-27h-27zM230 525v27h27v-27h-27zM80 0v27h27v-27h-27zM155 0v27h27v-27h-27zM230 0v27h27v-27h-27zM305 0v27h27v-27h-27zM380 0v27h27v-27h-27zM80 75v27h27v-27h-27zM80 150v27h27v-27h-27zM80 225v27
h27v-27h-27zM80 300v27h27v-27h-27zM80 375v27h27v-27h-27zM80 450v27h27v-27h-27zM80 525v27h27v-27h-27zM80 600v27h27v-27h-27zM80 675v27h27v-27h-27zM155 675v27h27v-27h-27zM230 675v27h27v-27h-27zM305 675v27h27v-27h-27zM380 675v27h27v-27h-27zM455 675v27h27v-27
h-27zM530 675v27h27v-27h-27zM530 0v27h27v-27h-27zM455 0v27h27v-27h-27zM605 0v27h27v-27h-27zM605 675v27h27v-27h-27zM305 300v27h27v-27h-27zM305 150v27h27v-27h-27zM380 375v27h27v-27h-27zM455 375v27h27v-27h-27zM455 450v27h27v-27h-27zM455 525v27h27v-27h-27z
M605 600v27h27v-27h-27zM605 525v27h27v-27h-27zM605 375v27h27v-27h-27zM605 300v27h27v-27h-27zM605 150v27h27v-27h-27zM605 75v27h27v-27h-27zM605 225v27h27v-27h-27zM605 450v27h27v-27h-27z" />
    <glyph glyph-name="f_f" unicode="ff" horiz-adv-x="596" 
d="M641 752l-24 -130q-36 8 -81 8q-34 0 -34 -43v-41h83v-122h-83v-644h-150v644h-142v-644h-150v644h-56v122h56v24q0 57 16 98t43 63t57.5 31.5t65.5 9.5q81 0 165 -34q39 34 116 34q26 0 55.5 -5t45.5 -10zM210 587v-41h142v24q0 18 2 48q-52 15 -108 15q-14 0 -25 -11.5
t-11 -34.5z" />
    <glyph glyph-name="fi" unicode="fi" horiz-adv-x="548" 
d="M507 648q-58 -23 -151 -23q-15 0 -47.5 2.5t-58.5 2.5q-15 0 -27.5 -10.5t-12.5 -32.5v-41h291v-546h-150v424h-141v-644h-150v644h-56v122h56v24q0 202 179 202q20 0 60.5 -3t53.5 -3q64 -2 133 8z" />
    <glyph glyph-name="fl" unicode="fl" horiz-adv-x="548" 
d="M501 0h-150v625q-14 0 -45 2.5t-56 2.5q-15 0 -27.5 -10.5t-12.5 -32.5v-41h83v-122h-83v-644h-150v644h-56v122h56v24q0 202 179 202q20 0 60.5 -3t53.5 -3q70 -2 148 14v-780z" />
    <glyph glyph-name="f_f_i" unicode="ffi" horiz-adv-x="846" 
d="M799 648q-57 -23 -151 -23q-15 0 -47.5 2.5t-58.5 2.5q-15 0 -27.5 -10.5t-12.5 -32.5v-41h291v-546h-150v424h-141v-644h-150v644h-142v-644h-150v644h-56v122h56v24q0 57 16 98t43 63t57.5 31.5t65.5 9.5q75 0 170 -35q42 35 119 35q20 0 60.5 -3t53.5 -3q64 -2 133 8z
M210 587v-41h142v24q0 26 3 48q-54 15 -109 15q-14 0 -25 -11.5t-11 -34.5z" />
    <glyph glyph-name="f_f_l" unicode="ffl" horiz-adv-x="841" 
d="M794 0h-150v625q-14 0 -45 2.5t-56 2.5q-15 0 -27.5 -10.5t-12.5 -32.5v-41h83v-122h-83v-644h-150v644h-143v-644h-150v644h-56v122h56v24q0 57 16 98t43 63t57.5 31.5t65.5 9.5q81 0 170 -36q43 36 120 36q20 0 60.5 -3t53.5 -3q70 -2 148 14v-780zM353 570q0 26 3 48
q-54 15 -110 15q-14 0 -25 -11.5t-11 -34.5v-41h143v24z" />
    <glyph glyph-name="f_h" unicode="fh" horiz-adv-x="806" 
d="M501 0h-150v625q-14 0 -45 2.5t-56 2.5q-15 0 -27.5 -10.5t-12.5 -32.5v-41h83v-122h-83v-644h-150v644h-56v122h56v24q0 202 179 202q20 0 60.5 -3t53.5 -3q70 -2 148 14v-289q16 25 53 48t65 23q46 0 75.5 -16.5t43 -49t17.5 -64.5t4 -80v-352h-149v341
q0 35 -10.5 51.5t-35.5 16.5q-24 0 -63 -24v-385z" />
    <glyph glyph-name="f_b" unicode="fb" horiz-adv-x="793" 
d="M60 -220v644h-56v122h56v24q0 202 179 202q20 0 60.5 -3t53.5 -3q70 -2 148 14v-230q36 12 64 12q99 0 150.5 -59.5t51.5 -197.5q0 -85 -19 -147.5t-52.5 -97t-73.5 -50.5t-88 -16q-63 0 -99.5 8t-82.5 26v597q-14 0 -45.5 2.5t-56.5 2.5q-15 0 -27.5 -10.5t-12.5 -32.5
v-41h83v-122h-83v-644h-150zM543 438q-17 0 -42 -10v-299q18 -3 35 -3q35 0 57.5 52t22.5 126q0 71 -17.5 102.5t-55.5 31.5z" />
    <glyph glyph-name="f_j" unicode="fj" horiz-adv-x="554" 
d="M501 546v-546q0 -128 -40 -174t-131 -46q-47 0 -110 28l27 124q32 -10 61 -10q25 0 34 11.5t9 56.5v434h-141v-644h-150v644h-56v122h56v24q0 202 179 202q20 0 60.5 -3t53.5 -3q64 -2 133 8l21 -126q-58 -23 -151 -23q-15 0 -47.5 2.5t-58.5 2.5q-15 0 -27.5 -10.5
t-12.5 -32.5v-41h291z" />
    <glyph glyph-name="f_k" unicode="fk" horiz-adv-x="768" 
d="M501 0h-150v625q-14 0 -45 2.5t-56 2.5q-15 0 -27.5 -10.5t-12.5 -32.5v-41h83v-122h-83v-644h-150v644h-56v122h56v24q0 202 179 202q20 0 60.5 -3t53.5 -3q70 -2 148 14v-488l33 115l60 139h166l-138 -260l51 -80q27 -42 120 -107l-44 -111q-73 6 -124 48t-78 108
l-40 102l-6 16v-262z" />
    <glyph glyph-name="f_f_j" unicode="ffj" horiz-adv-x="816" 
d="M211 574v-28h139v24q0 38 6 68q-38 2 -69 2q-32 0 -54 -17.5t-22 -48.5zM641 424h-141v-644h-150v644h-139v-644h-150v644h-55v122h56v28q0 208 220 208q89 0 171 -21q34 11 76 11q20 0 60.5 -3t53.5 -3q64 -2 133 8l21 -126q-57 -23 -151 -23q-15 0 -47.5 2.5t-58.5 2.5
q-15 0 -27.5 -10.5t-12.5 -32.5v-41h291v-546q0 -128 -40 -174t-131 -46q-47 0 -110 28l27 124q32 -10 61 -10q25 0 34 11.5t9 56.5v434z" />
    <glyph glyph-name="aogonek_j" unicode="&#x105;j" horiz-adv-x="689" 
d="M261 136v82q-6 0 -22 -0.5t-22.5 -1t-17.5 -3t-15.5 -8t-8.5 -16t-4 -25.5q0 -21 9 -31.5t33 -10.5q12 0 48 14zM380 -260q-155 0 -155 143q0 76 85 136q-18 15 -23 34q-17 -28 -48.5 -44.5t-62.5 -16.5q-70 0 -109 45.5t-39 123.5q0 48 23 80.5t60.5 47.5t70.5 20.5
t69 5.5h10v53q0 26 -12.5 38t-43.5 12q-41 0 -127 -27l-28 121q97 47 173 47q31 0 51.5 -2t48 -11.5t44 -27t28.5 -51t12 -80.5v-232q0 -20 9.5 -26.5t33.5 -6.5l-5 -126q-34 -16 -51 -25.5t-34 -27.5t-17 -37q0 -49 57 -49q46 0 68.5 30.5t22.5 102.5v556h150v-546
q0 -57 -18 -103.5t-45.5 -75t-63.5 -47.5t-69 -26.5t-65 -7.5zM660 730l-93 -94l-93 94l93 93z" />
    <glyph glyph-name=".notdef" horiz-adv-x="712" 
d="M305 375v27h27v-27h-27zM380 525v27h27v-27h-27zM305 525v27h27v-27h-27zM230 525v27h27v-27h-27zM80 0v27h27v-27h-27zM155 0v27h27v-27h-27zM230 0v27h27v-27h-27zM305 0v27h27v-27h-27zM380 0v27h27v-27h-27zM80 75v27h27v-27h-27zM80 150v27h27v-27h-27zM80 225v27
h27v-27h-27zM80 300v27h27v-27h-27zM80 375v27h27v-27h-27zM80 450v27h27v-27h-27zM80 525v27h27v-27h-27zM80 600v27h27v-27h-27zM80 675v27h27v-27h-27zM155 675v27h27v-27h-27zM230 675v27h27v-27h-27zM305 675v27h27v-27h-27zM380 675v27h27v-27h-27zM455 675v27h27v-27
h-27zM530 675v27h27v-27h-27zM530 0v27h27v-27h-27zM455 0v27h27v-27h-27zM605 0v27h27v-27h-27zM605 675v27h27v-27h-27zM305 300v27h27v-27h-27zM305 150v27h27v-27h-27zM380 375v27h27v-27h-27zM455 375v27h27v-27h-27zM455 450v27h27v-27h-27zM455 525v27h27v-27h-27z
M605 600v27h27v-27h-27zM605 525v27h27v-27h-27zM605 375v27h27v-27h-27zM605 300v27h27v-27h-27zM605 150v27h27v-27h-27zM605 75v27h27v-27h-27zM605 225v27h27v-27h-27zM605 450v27h27v-27h-27z" />
    <glyph glyph-name=".null" horiz-adv-x="0" 
 />
    <glyph glyph-name="nonmarkingreturn" horiz-adv-x="333" 
 />
    <glyph glyph-name="space" unicode=" " horiz-adv-x="180" 
 />
    <glyph glyph-name="space" unicode="&#xa0;" horiz-adv-x="180" 
 />
    <glyph glyph-name="exclam" unicode="!" horiz-adv-x="262" 
d="M205 410l-12 -190h-125l-11 190v297h148v-297zM203 0h-145v146h145v-146z" />
    <glyph glyph-name="quotedbl" unicode="&#x22;" horiz-adv-x="394" 
d="M348 755l-8 -240h-126l-7 240h141zM169 755l-8 -240h-126l-7 240h141z" />
    <glyph glyph-name="numbersign" unicode="#" horiz-adv-x="492" 
d="M480 103h-80l-6 -103h-140l6 103h-50l-6 -103h-140l6 103h-58v128h67l5 88h-72v129h83l7 119h140l-8 -119h50l7 119h140l-8 -119h57v-129h-66l-6 -88h72v-128zM274 319h-50l-6 -88h51z" />
    <glyph glyph-name="dollar" unicode="$" horiz-adv-x="422" 
d="M400 168q0 -73 -42.5 -115t-106.5 -55l2 -97h-97l1 92q-78 5 -135 39l39 114q74 -29 131 -29q52 0 52 34q0 22 -21.5 39.5t-52 32t-61 33t-52 53t-21.5 81.5q0 62 34 99.5t87 51.5l-1 119h96l-2 -112q60 -3 127 -36l-32 -110q-78 24 -124 24q-17 0 -25 -8t-8 -16
q0 -19 22 -36t53 -32.5t62 -35.5t53 -53.5t22 -76.5z" />
    <glyph glyph-name="percent" unicode="%" horiz-adv-x="716" 
d="M335 535q0 -86 -46.5 -134.5t-114.5 -48.5q-67 0 -111 43t-44 133q0 85 46 135.5t112 50.5q68 0 113 -43t45 -136zM697 172q0 -86 -46.5 -134.5t-114.5 -48.5q-67 0 -111 43t-44 133q0 85 46 135.5t112 50.5q68 0 113 -43t45 -136zM216 535q0 65 -39 65t-39 -72
q0 -62 36 -62q18 0 30 17t12 52zM578 172q0 65 -39 65t-39 -72q0 -62 36 -62q18 0 30 17t12 52zM638 565l-494 -523l-80 83l494 523z" />
    <glyph glyph-name="ampersand" unicode="&#x26;" horiz-adv-x="602" 
d="M599 124l-9 -131q-118 6 -215 66q-66 -69 -147 -69q-201 0 -201 196q0 96 103 190q-2 6 -7.5 24.5l-7.5 25t-6 22.5t-5.5 27t-3 27.5t-1.5 33.5q0 73 42.5 126.5t129.5 53.5q159 0 159 -158q0 -25 -9.5 -51t-21.5 -45t-35.5 -45t-37 -39l-41.5 -39q52 -83 137 -140
t177 -75zM305 558q0 16 -10 26t-24 10q-16 0 -28.5 -14.5t-12.5 -34.5q0 -37 11 -86q64 54 64 99zM278 137q-52 54 -86 113q-28 -37 -28 -59q0 -68 65 -68q23 0 49 14z" />
    <glyph glyph-name="quotesingle" unicode="'" horiz-adv-x="222" 
d="M176 755l-8 -240h-126l-7 240h141z" />
    <glyph glyph-name="parenleft" unicode="(" horiz-adv-x="324" 
d="M334 702q-61 -78 -85 -121q-71 -130 -71 -296q0 -75 12.5 -140.5t39 -124t46 -92t54.5 -86.5l-90 -65q-80 79 -140 208t-60 299q0 90 21 171.5t55.5 140.5t66 98t64.5 67z" />
    <glyph glyph-name="parenright" unicode=")" horiz-adv-x="324" 
d="M93 -223l-90 65q35 53 54.5 86.5t46 92t39 124t12.5 140.5q0 78 -14.5 145t-40 117t-45.5 80t-46 63q-7 8 -10 12l87 59q33 -28 64.5 -67t66 -98t55.5 -140.5t21 -171.5q0 -170 -60 -299t-140 -208z" />
    <glyph glyph-name="asterisk" unicode="*" horiz-adv-x="425" 
d="M407 622l-97 -35l-38 67l81 66zM280 761l-15 -99h-85l-13 99h113zM410 538l-55 -98l-83 68l39 69zM175 656l-39 -69l-99 39l55 98zM277 403h-113l15 99h85zM172 511l-81 -66l-54 98l97 35z" />
    <glyph glyph-name="plus" unicode="+" horiz-adv-x="455" 
d="M425 226h-131v-159h-132v159h-132v127h132v158h132v-158h131v-127z" />
    <glyph glyph-name="comma" unicode="," horiz-adv-x="286" 
d="M226 51q0 -102 -56 -186h-138q33 75 33 147v150h161v-111z" />
    <glyph glyph-name="hyphen" unicode="-" horiz-adv-x="297" 
d="M269 220h-241v133h241v-133z" />
    <glyph glyph-name="hyphen" unicode="&#xad;" horiz-adv-x="297" 
d="M269 220h-241v133h241v-133z" />
    <glyph glyph-name="period" unicode="." horiz-adv-x="286" 
d="M226 0h-161v162h161v-162z" />
    <glyph glyph-name="slash" unicode="/" horiz-adv-x="379" 
d="M358 769l-235 -831h-102l236 831h101z" />
    <glyph glyph-name="zero" unicode="0" horiz-adv-x="515" 
d="M484 282q0 -146 -60 -218.5t-171 -72.5q-113 0 -167.5 67.5t-54.5 204.5q0 136 58.5 213t175.5 77q114 0 166.5 -73.5t52.5 -197.5zM334 279q0 72 -18 104t-55 32q-80 0 -80 -150q0 -136 75 -136q78 0 78 150z" />
    <glyph glyph-name="one" unicode="1" horiz-adv-x="320" 
d="M262 0h-148v414h-101v132l249 10v-556z" />
    <glyph glyph-name="two" unicode="2" horiz-adv-x="433" 
d="M397 0h-366v131q4 4 33 31l53 50.5l52.5 53.5t45 55.5t16.5 40.5q0 25 -14.5 44.5t-42.5 19.5q-48 0 -110 -28l-28 119q28 18 69.5 31.5t74.5 13.5q57 0 97.5 -16t61 -44.5t29.5 -59.5t9 -69q0 -59 -58.5 -128t-120.5 -113h199v-132z" />
    <glyph glyph-name="three" unicode="3" horiz-adv-x="396" 
d="M372 50q0 -224 -216 -224q-94 0 -154 28l27 130q54 -18 115 -18q78 0 78 84q0 49 -27 72t-104 25v110q66 6 87.5 24.5t21.5 60.5q0 74 -59 74q-40 0 -90 -21l-40 112q6 5 17 13t49 21t82 13q84 0 135.5 -49.5t51.5 -139.5q0 -50 -16 -86t-32 -47l-16 -12l10 -5t21.5 -17
t27.5 -31t21.5 -48.5t9.5 -68.5z" />
    <glyph glyph-name="four" unicode="4" horiz-adv-x="471" 
d="M443 22h-69v-184h-146v184h-221v121l170 402h197v-391h69v-132zM228 154v252h-11l-18 -88l-54 -164h83z" />
    <glyph glyph-name="five" unicode="5" horiz-adv-x="430" 
d="M406 69q0 -107 -60 -174t-163 -67q-93 0 -154 27l33 133q53 -21 117 -21q38 0 58.5 26.5t20.5 65.5q0 53 -28.5 73t-83.5 20q-30 0 -96 -4v396h329v-132h-183v-136q2 0 5 0.5t5 0.5q200 0 200 -208z" />
    <glyph glyph-name="six" unicode="6" horiz-adv-x="480" 
d="M451 244q0 -107 -51.5 -182t-153.5 -75q-54 0 -94 19.5t-62.5 49.5t-36.5 74.5t-18 86t-4 92.5q0 58 5.5 109.5t23 107.5t45 96t75.5 66t111 26q84 0 133 -25l-26 -126q-38 12 -104 12q-86 0 -107 -120q35 10 75 10q97 0 143 -59.5t46 -161.5zM237 338q-16 0 -58 -7v-8
q0 -119 16 -159q17 -45 56 -45q27 0 38.5 38t11.5 74q0 25 -1.5 39t-7 32.5t-19.5 27t-36 8.5z" />
    <glyph glyph-name="seven" unicode="7" horiz-adv-x="401" 
d="M381 421l-233 -616l-138 58l227 544h-226v137h370v-123z" />
    <glyph glyph-name="eight" unicode="8" horiz-adv-x="508" 
d="M467 191q0 -102 -59 -151.5t-157 -49.5q-95 0 -152.5 45t-57.5 143q0 63 28.5 108t78.5 84q-87 76 -87 162q0 94 54 138t144 44q86 0 139.5 -47.5t53.5 -123.5q0 -87 -98 -174q34 -27 55 -48t39.5 -56.5t18.5 -73.5zM305 524q0 25 -11 45t-39 20q-27 0 -39 -19t-12 -45
q0 -37 47 -91q54 46 54 90zM316 204q0 48 -66 100q-60 -49 -60 -108q0 -74 65 -74q61 0 61 82z" />
    <glyph glyph-name="nine" unicode="9" horiz-adv-x="472" 
d="M444 238q0 -61 -2.5 -104.5t-10 -94t-24 -84.5t-41.5 -63.5t-65.5 -44t-93.5 -14.5q-93 0 -138 23l18 127q45 -14 117 -14q42 0 62 27.5t27 95.5q-36 -10 -73 -10q-97 0 -143 59.5t-46 161.5q0 107 51.5 182t153.5 75q208 0 208 -322zM244 209q27 0 53 7q0 36 -0.5 53.5
t-2 47t-6 45t-11.5 32.5t-18.5 24t-27.5 7q-27 0 -38.5 -37t-11.5 -72q0 -25 1 -38.5t6.5 -32.5t19.5 -27.5t36 -8.5z" />
    <glyph glyph-name="colon" unicode=":" horiz-adv-x="286" 
d="M226 384h-161v162h161v-162zM226 0h-161v162h161v-162z" />
    <glyph glyph-name="semicolon" unicode=";" horiz-adv-x="286" 
d="M32 -135q33 75 33 147v150h161v-111q0 -102 -56 -186h-138zM65 384v162h161v-162h-161z" />
    <glyph glyph-name="less" unicode="&#x3c;" horiz-adv-x="386" 
d="M358 61l-330 161v131l330 161v-139l-187 -85v-6l187 -84v-139z" />
    <glyph glyph-name="equal" unicode="=" horiz-adv-x="416" 
d="M375 322h-334v119h334v-119zM375 132h-334v119h334v-119z" />
    <glyph glyph-name="greater" unicode="&#x3e;" horiz-adv-x="386" 
d="M358 222l-330 -161v139l187 85v6l-187 84v139l330 -161v-131z" />
    <glyph glyph-name="question" unicode="?" horiz-adv-x="324" 
d="M75 183q-23 47 -23 94q0 50 23 94t45.5 74t22.5 44q0 34 -20.5 53t-88.5 31l25 139q59 -7 97 -17.5t73.5 -32.5t52.5 -60.5t17 -96.5q0 -43 -18 -81t-39 -60t-39 -48.5t-18 -50.5q0 -15 3.5 -28.5t7.5 -20.5l4 -6zM67 0v146h145v-146h-145z" />
    <glyph glyph-name="at" unicode="@" horiz-adv-x="658" 
d="M643 416q0 -128 -59 -204.5t-155 -76.5q-73 0 -86 53q-12 -17 -40 -33.5t-45 -16.5q-39 0 -65 33.5t-26 111.5q0 89 49 150.5t131 61.5q64 0 125 -28l-17 -184q-3 -30 12 -30q8 0 20 18.5t22.5 58.5t10.5 88q0 92 -42 141t-111 49q-105 0 -175 -85.5t-70 -249.5
q0 -114 53 -173t140 -59q67 0 147 21l12 -108q-55 -17 -87.5 -22.5t-79.5 -5.5q-146 0 -223 80.5t-77 262.5q0 213 107.5 329t270.5 116q111 0 184.5 -77.5t73.5 -220.5zM351 398h-3q-20 0 -33.5 -20t-18 -42.5t-4.5 -42.5q0 -38 14 -38q15 0 30 8z" />
    <glyph glyph-name="A" unicode="A" horiz-adv-x="563" 
d="M561 0h-157l-44 209h-153l-52 -209h-153l194 707h197zM333 331l-25 140l-16 122h-10l-15 -122l-29 -140h95z" />
    <glyph glyph-name="B" unicode="B" horiz-adv-x="513" 
d="M485 223q0 -104 -52.5 -163.5t-165.5 -59.5h-211v707h192q96 0 148.5 -49t52.5 -138q0 -46 -18.5 -81t-42.5 -53v-4q97 -44 97 -159zM295 499q0 17 -2 28.5t-8 24t-20 19t-36 6.5h-21v-156h27q27 0 41 13t16.5 27t2.5 38zM332 222q0 40 -18.5 61.5t-68.5 21.5h-37v-172
h45q79 0 79 89z" />
    <glyph glyph-name="C" unicode="C" horiz-adv-x="517" 
d="M496 29q-81 -39 -172 -39q-144 0 -218.5 93t-74.5 266q0 170 82.5 268t216.5 98q104 0 166 -46l-32 -120q-51 18 -77.5 24t-64.5 6q-67 0 -102 -58t-35 -162q0 -108 39 -168.5t113 -60.5q68 0 136 23z" />
    <glyph glyph-name="D" unicode="D" horiz-adv-x="589" 
d="M560 356q0 -178 -80 -267t-225 -89h-199v707h195q142 0 225.5 -87t83.5 -264zM407 346q0 108 -39.5 168t-119.5 60h-42v-441h57q144 0 144 213z" />
    <glyph glyph-name="E" unicode="E" horiz-adv-x="466" 
d="M432 0h-376v707h360v-133h-209v-157h194v-124h-194v-160h225v-133z" />
    <glyph glyph-name="F" unicode="F" horiz-adv-x="463" 
d="M437 574h-230v-175h215v-123h-215v-276h-151v707h381v-133z" />
    <glyph glyph-name="G" unicode="G" horiz-adv-x="552" 
d="M502 34q-91 -44 -178 -44q-144 0 -218.5 93t-74.5 266q0 162 80.5 264t210.5 102q82 0 174 -46l-32 -120q-49 17 -76 23t-66 6q-67 0 -102 -57.5t-35 -161.5q0 -108 39 -168.5t113 -60.5h19v198h146v-294z" />
    <glyph glyph-name="H" unicode="H" horiz-adv-x="597" 
d="M541 0h-151v291h-183v-291h-151v707h151v-287h183v287h151v-707z" />
    <glyph glyph-name="I" unicode="I" horiz-adv-x="263" 
d="M207 0h-151v707h151v-707z" />
    <glyph glyph-name="J" unicode="J" horiz-adv-x="264" 
d="M208 161q0 -73 -5.5 -118.5t-25.5 -95.5t-63 -86t-112 -64l-60 115q66 37 90 80t24 121v594h152v-546z" />
    <glyph glyph-name="K" unicode="K" horiz-adv-x="550" 
d="M207 0h-151v707h151v-298l36 84l124 214h178l-210 -333l219 -374h-184l-129 248l-34 86v-334z" />
    <glyph glyph-name="L" unicode="L" horiz-adv-x="438" 
d="M426 0h-370v707h151v-573h219v-134z" />
    <glyph glyph-name="M" unicode="M" horiz-adv-x="730" 
d="M674 0h-152v266l8 142h-4l-101 -408h-133l-90 430h-4l9 -164v-266h-151v707h190l116 -509h4l127 509h181v-707z" />
    <glyph glyph-name="N" unicode="N" horiz-adv-x="597" 
d="M541 0h-149l-187 422h-4l6 -124v-298h-151v707h163l173 -407h4l-6 124v283h151v-707z" />
    <glyph glyph-name="O" unicode="O" horiz-adv-x="630" 
d="M599 353q0 -178 -74 -271.5t-216 -93.5q-139 0 -208.5 95t-69.5 272q0 175 77.5 269t214.5 94q140 0 208 -97.5t68 -267.5zM445 354q0 112 -34.5 174t-100.5 62t-97 -64t-31 -170q0 -107 36.5 -171.5t100.5 -64.5q69 0 97.5 61.5t28.5 172.5z" />
    <glyph glyph-name="P" unicode="P" horiz-adv-x="488" 
d="M476 451q0 -110 -65.5 -180.5t-181.5 -70.5h-21v-200h-152v707h210q98 0 154 -68t56 -188zM208 574v-243h26q45 0 65.5 34.5t20.5 83.5q0 54 -16.5 89.5t-52.5 35.5h-43z" />
    <glyph glyph-name="Q" unicode="Q" horiz-adv-x="630" 
d="M599 353q0 -178 -74 -271.5t-216 -93.5q-139 0 -208.5 95t-69.5 272q0 175 77.5 269t214.5 94q140 0 208 -97.5t68 -267.5zM445 354q0 112 -34.5 174t-100.5 62t-97 -64t-31 -170q0 -107 36.5 -171.5t100.5 -64.5q69 0 97.5 61.5t28.5 172.5zM591 -192q-47 0 -75 1
q-25 1 -49.5 6t-59.5 15t-48 13q-20 5 -72 5v121q26 0 52 -3t42 -6.5l46.5 -10.5l47.5 -11q26 -6 66 -6q9 0 25 0.5t25 0.5v-125z" />
    <glyph glyph-name="R" unicode="R" horiz-adv-x="564" 
d="M572 106l-37 -119q-74 4 -132 49.5t-96 115.5l-50 92h-49v-244h-152v707h210q95 0 152.5 -60t57.5 -176q0 -55 -23.5 -102.5t-61.5 -76.5l56 -75q48 -64 125 -111zM320 467q0 106 -69 106h-43v-210h26q45 0 65.5 29t20.5 75z" />
    <glyph glyph-name="S" unicode="S" horiz-adv-x="455" 
d="M431 211q0 -107 -70 -164.5t-157 -57.5q-106 0 -188 59l43 117q77 -36 143 -36q39 0 57 26t18 54q0 23 -18 42.5t-45.5 33t-59 34t-59 43t-45.5 62.5t-18 91q0 92 64 145t136 53q50 0 87.5 -8.5t91.5 -36.5l-43 -114q-76 24 -125 24q-32 0 -46.5 -20t-14.5 -46
q0 -18 18.5 -36.5t46 -33t60 -36.5t60 -46.5t46 -63t18.5 -85.5z" />
    <glyph glyph-name="T" unicode="T" horiz-adv-x="478" 
d="M472 574h-157v-574h-152v574h-157v133h466v-133z" />
    <glyph glyph-name="U" unicode="U" horiz-adv-x="598" 
d="M547 294q0 -89 -21 -151.5t-58 -95t-77.5 -46.5t-89.5 -14q-50 0 -91 12.5t-78.5 42.5t-58.5 88t-21 141v436h152v-442q0 -146 97 -146q96 0 96 166v422h150v-413z" />
    <glyph glyph-name="V" unicode="V" horiz-adv-x="557" 
d="M561 707l-205 -707h-179l-181 707h160l94 -453l17 -134h6l20 134l112 453h156z" />
    <glyph glyph-name="W" unicode="W" horiz-adv-x="785" 
d="M778 707l-145 -707h-176l-58 254l-15 102h-4l-15 -100l-64 -256h-181l-113 707h150l56 -437l10 -153h6l23 156l70 255l-48 179h152l97 -440l18 -142h6l11 152l75 430h145z" />
    <glyph glyph-name="X" unicode="X" horiz-adv-x="524" 
d="M529 0h-174l-72 185l-16 63h-4l-19 -63l-80 -185h-170l190 362l-169 345h175l64 -172l14 -55h4l15 55l74 172h169l-178 -342z" />
    <glyph glyph-name="Y" unicode="Y" horiz-adv-x="533" 
d="M542 707l-205 -472v-235h-151v229l-195 478h174l74 -229l24 -108h4l24 103l82 234h169z" />
    <glyph glyph-name="Z" unicode="Z" horiz-adv-x="464" 
d="M445 0h-426v128l241 438h-222v141h391v-123l-241 -443h257v-141z" />
    <glyph glyph-name="bracketleft" unicode="[" horiz-adv-x="287" 
d="M265 -220h-211v974h211v-138h-71v-698h71v-138z" />
    <glyph glyph-name="backslash" unicode="\" horiz-adv-x="389" 
d="M262 -62l-235 831h101l236 -831h-102z" />
    <glyph glyph-name="bracketright" unicode="]" horiz-adv-x="287" 
d="M233 -220h-211v138h71v698h-71v138h211v-974z" />
    <glyph glyph-name="asciicircum" unicode="^" horiz-adv-x="428" 
d="M419 294h-146l-43 193l-10 93h-6l-12 -93l-48 -193h-145l135 413h151z" />
    <glyph glyph-name="underscore" unicode="_" horiz-adv-x="397" 
d="M397 -199h-397v133h397v-133z" />
    <glyph glyph-name="grave" unicode="`" horiz-adv-x="431" 
d="M360 672l-73 -76l-190 161l95 101z" />
    <glyph glyph-name="a" unicode="a" horiz-adv-x="475" 
d="M450 122l-5 -126q-11 -1 -36 -1q-104 0 -122 58q-17 -28 -48.5 -44.5t-62.5 -16.5q-70 0 -109 45.5t-39 123.5q0 48 23 80.5t60.5 47.5t70.5 20.5t69 5.5h10v53q0 26 -12.5 38t-43.5 12q-41 0 -127 -27l-28 121q97 47 173 47q31 0 51.5 -2t48 -11.5t44 -27t28.5 -51
t12 -80.5v-232q0 -20 9.5 -26.5t33.5 -6.5zM261 136v82q-6 0 -22 -0.5t-22.5 -1t-17.5 -3t-15.5 -8t-8.5 -16t-4 -25.5q0 -21 9 -31.5t33 -10.5q12 0 48 14z" />
    <glyph glyph-name="b" unicode="b" horiz-adv-x="488" 
d="M462 301q0 -163 -65.5 -235t-167.5 -72q-63 0 -99.5 8t-82.5 26v727h149v-209q36 12 64 12q99 0 150.5 -59.5t51.5 -197.5zM238 434q-17 0 -42 -10v-295q18 -3 35 -3q35 0 57.5 50t22.5 124q0 71 -17.5 102.5t-55.5 31.5z" />
    <glyph glyph-name="c" unicode="c" horiz-adv-x="412" 
d="M390 12q-68 -21 -122 -21q-129 0 -184.5 68t-55.5 219q0 127 60.5 204t166.5 77q75 0 142 -45l-37 -119q-55 28 -100 28q-34 0 -58 -37t-24 -110q0 -78 20 -115t78 -37q47 0 94 14z" />
    <glyph glyph-name="d" unicode="d" horiz-adv-x="485" 
d="M438 0h-149v47q-4 -6 -12.5 -15t-34 -24t-52.5 -15t-53 13.5t-52 43.5t-41.5 89t-15.5 138q0 136 62.5 209t162.5 73q19 0 36 -3v198h149v-754zM289 143v280q-20 4 -33 4q-40 0 -60.5 -38.5t-20.5 -106.5q0 -76 19 -113.5t45 -37.5q23 0 50 12z" />
    <glyph glyph-name="e" unicode="e" horiz-adv-x="455" 
d="M427 222h-252q0 -95 94 -95q63 0 124 12l22 -123q-65 -25 -163 -25q-110 0 -167 61t-57 213t57 223t158 71q184 0 184 -277v-60zM275 336q5 96 -42 96t-53 -96h95z" />
    <glyph glyph-name="f" unicode="f" horiz-adv-x="304" 
d="M349 752l-24 -130q-36 8 -81 8q-34 0 -34 -43v-41h83v-122h-83v-644h-150v644h-56v122h56v24q0 63 14 105t40 62t53 27.5t64 7.5q26 0 55.5 -5t45.5 -10z" />
    <glyph glyph-name="g" unicode="g" horiz-adv-x="485" 
d="M438 2q0 -120 -58.5 -171.5t-149.5 -51.5q-97 0 -178 36l24 131q98 -27 137 -27q41 0 59 20.5t18 68.5v11q-26 -28 -68 -28q-33 0 -62 10t-61 36.5t-51.5 85.5t-19.5 144q0 136 65 214t164 78q57 0 181 -25v-532zM289 122v296q-20 4 -33 4q-40 0 -60.5 -43t-20.5 -112
q0 -77 20 -113t53 -36q27 0 41 4z" />
    <glyph glyph-name="h" unicode="h" horiz-adv-x="502" 
d="M455 0h-149v338q0 35 -10.5 51.5t-35.5 16.5q-24 0 -63 -24v-382h-150v754h150v-266q16 25 53 48t65 23q46 0 75.5 -16.5t43 -49t17.5 -64.5t4 -80v-349z" />
    <glyph glyph-name="i" unicode="i" horiz-adv-x="244" 
d="M197 0h-150v546h150v-546zM212 728l-93 -94l-93 94l93 93z" />
    <glyph glyph-name="j" unicode="j" horiz-adv-x="244" 
d="M197 0q0 -128 -40 -174t-131 -46q-47 0 -110 28l27 124q32 -10 61 -10q25 0 34 11.5t9 56.5v556h150v-546zM212 728l-93 -94l-93 94l93 93z" />
    <glyph glyph-name="k" unicode="k" horiz-adv-x="454" 
d="M197 0h-150v754h150v-423l23 76l60 139h166l-138 -260l51 -80q41 -64 120 -107l-44 -111q-147 11 -202 156l-22 58l-14 36v-238z" />
    <glyph glyph-name="l" unicode="l" horiz-adv-x="244" 
d="M197 0h-150v754h150v-754z" />
    <glyph glyph-name="m" unicode="m" horiz-adv-x="741" 
d="M694 0h-149v343q0 35 -9 49.5t-34 14.5q-22 0 -58 -23q0 -7 0.5 -20.5t0.5 -20.5v-343h-149v343q0 35 -9 49.5t-34 14.5q-17 0 -56 -24v-383h-150v546h150v-57q16 25 52.5 48t64.5 23q85 0 113 -68q19 24 59.5 46t76.5 22t61 -12t38.5 -30t21 -49t9 -58t1.5 -68v-343z
" />
    <glyph glyph-name="n" unicode="n" horiz-adv-x="502" 
d="M455 0h-149v338q0 35 -10.5 51.5t-35.5 16.5q-24 0 -63 -24v-382h-150v546h150v-58q16 25 53 48t65 23q46 0 75.5 -16.5t43 -49t17.5 -64.5t4 -80v-349z" />
    <glyph glyph-name="o" unicode="o" horiz-adv-x="488" 
d="M460 273q0 -134 -61 -209.5t-161 -75.5q-102 0 -156 75.5t-54 204.5q0 133 58.5 212.5t159.5 79.5q109 0 161.5 -76t52.5 -211zM309 273q0 155 -66 155q-33 0 -49.5 -43.5t-16.5 -112.5q0 -151 68 -151q64 0 64 152z" />
    <glyph glyph-name="p" unicode="p" horiz-adv-x="488" 
d="M462 293q0 -158 -65.5 -229.5t-167.5 -71.5q-13 0 -33 2v-214h-149v766h149v-39q5 6 15 15t37.5 23.5t51.5 14.5q162 0 162 -267zM311 288q0 66 -17.5 97t-54.5 31q-13 0 -43 -10v-282q20 -4 36 -4q35 0 57 47.5t22 120.5z" />
    <glyph glyph-name="q" unicode="q" horiz-adv-x="483" 
d="M436 -220h-149v226q-25 -14 -59 -14q-31 0 -56.5 5.5t-53.5 23.5t-47.5 48t-32 82.5t-12.5 123.5q0 136 63 209.5t162 73.5q61 0 97 -6t88 -24v-748zM287 139v284q-18 2 -33 2q-40 0 -60.5 -41t-20.5 -110q0 -75 19 -109t45 -34t50 8z" />
    <glyph glyph-name="r" unicode="r" horiz-adv-x="343" 
d="M348 548l-14 -149q-30 10 -63 10q-19 0 -41 -12t-33 -27v-370h-150v546h150v-73h6q23 84 79 84q18 0 34.5 -2.5t23.5 -4.5z" />
    <glyph glyph-name="s" unicode="s" horiz-adv-x="394" 
d="M370 172q0 -85 -52 -133.5t-137 -48.5q-91 0 -158 24l16 123q81 -15 131 -15q52 0 52 33q0 19 -20 35t-49 31t-57.5 33.5t-48.5 51.5t-20 76q0 80 49.5 128t129.5 48q72 0 146 -34l-24 -119q-74 21 -119 21q-34 0 -34 -29q0 -18 20 -33t48.5 -28.5t57.5 -32t49 -52
t20 -79.5z" />
    <glyph glyph-name="t" unicode="t" horiz-adv-x="362" 
d="M351 11q-62 -22 -112 -22q-104 0 -140.5 39t-36.5 149v246h-56v123h56v112h149v-112h120v-123h-120v-245q0 -50 34 -50l92 8z" />
    <glyph glyph-name="u" unicode="u" horiz-adv-x="502" 
d="M455 0h-150v55q-16 -24 -53 -46t-65 -22q-46 0 -75.5 16.5t-43 49t-17.5 64.5t-4 80v349h149v-348q0 -35 10.5 -51.5t35.5 -16.5q29 0 63 21v395h150v-546z" />
    <glyph glyph-name="v" unicode="v" horiz-adv-x="473" 
d="M472 546l-159 -546h-164l-148 546h159l62 -311l11 -92h4l11 92l68 311h156z" />
    <glyph glyph-name="w" unicode="w" horiz-adv-x="672" 
d="M670 546l-123 -546h-169l-37 311l-4 101h-6l-8 -101l-44 -311h-171l-106 546h156l32 -311l6 -101h6l6 101l45 311h167l39 -311l5 -101h6l7 101l41 311h152z" />
    <glyph glyph-name="x" unicode="x" horiz-adv-x="465" 
d="M471 0h-180l-57 178h-6l-58 -178h-176l156 279l-146 267h173l51 -166h6l53 166h172l-148 -267z" />
    <glyph glyph-name="y" unicode="y" horiz-adv-x="469" 
d="M468 546l-199 -766h-145l60 220h-33l-150 546h159l66 -322l7 -91h4l7 91l72 322h152z" />
    <glyph glyph-name="z" unicode="z" horiz-adv-x="409" 
d="M382 0h-354v123l182 289h-172v134h341v-120l-180 -294h183v-132z" />
    <glyph glyph-name="braceleft" unicode="{" horiz-adv-x="298" 
d="M290 -223h-57q-164 0 -164 162q0 11 2 39l19 186q2 21 -12 33t-50 12v127q36 0 50 12t12 33l-19 186q-2 28 -2 39q0 162 164 162h57v-139q-48 0 -65 -16.5t-13 -65.5l15 -159q8 -87 -49 -113v-4q57 -26 49 -114l-15 -159q-4 -49 13 -65.5t65 -16.5v-139z" />
    <glyph glyph-name="bar" unicode="|" horiz-adv-x="238" 
d="M174 -220h-110v974h110v-974z" />
    <glyph glyph-name="braceright" unicode="}" horiz-adv-x="298" 
d="M270 209q-36 0 -50 -12t-12 -33l19 -186q2 -28 2 -39q0 -162 -164 -162h-57v139q48 0 65 16.5t13 65.5l-15 159q-8 87 49 113v4q-57 26 -49 114l15 159q4 49 -13 65.5t-65 16.5v139h57q164 0 164 -162q0 -11 -2 -39l-19 -186q-2 -21 12 -33t50 -12v-127z" />
    <glyph glyph-name="asciitilde" unicode="~" horiz-adv-x="486" 
d="M448 353q-29 -28 -45 -41.5t-44.5 -26t-60.5 -12.5q-28 0 -64.5 19.5t-60.5 19.5q-35 0 -72 -29l-63 84q75 82 156 82q30 0 64 -19t45 -19q36 0 91 26z" />
    <glyph glyph-name="exclamdown" unicode="&#xa1;" horiz-adv-x="262" 
d="M204 400h-145v146h145v-146zM205 -161h-148v297l12 190h125l11 -190v-297z" />
    <glyph glyph-name="cent" unicode="&#xa2;" horiz-adv-x="404" 
d="M390 40q-60 -16 -82 -19l1 -83h-136l2 92q-78 22 -112.5 80.5t-34.5 166.5q0 90 38 152.5t109 88.5l-3 86h138l-2 -77q45 -10 89 -40l-37 -119q-55 28 -100 28q-37 0 -59.5 -25t-22.5 -96q0 -73 19 -98t79 -25q18 0 94 14z" />
    <glyph glyph-name="sterling" unicode="&#xa3;" horiz-adv-x="416" 
d="M396 0h-356v125q6 2 14 6.5t22 26t14 52.5h-62v125h65q-5 31 -5 45q0 66 18.5 108.5t56.5 63.5t80 28.5t105 7.5l5 -135q-33 -2 -54 -6t-39 -19.5t-18 -42.5v-50h106v-125h-116q0 -24 -10 -44t-18 -27.5t-13 -9.5h205v-129z" />
    <glyph glyph-name="currency" unicode="&#xa4;" horiz-adv-x="516" 
d="M469 522l-58 -58q42 -47 42 -112q0 -64 -43 -112l59 -58l-61 -60l-68 68q-35 -18 -79 -18q-45 0 -84 18l-68 -68l-61 59l58 58q-44 49 -44 113q0 65 43 113l-57 57l60 60l68 -68q31 20 81 20t84 -20l67 68zM321 352q0 29 -15.5 51.5t-47.5 22.5t-48 -22.5t-16 -51.5
q0 -27 16 -50t48 -23q33 0 48 22t15 51z" />
    <glyph glyph-name="yen" unicode="&#xa5;" horiz-adv-x="551" 
d="M509 546l-89 -193h98v-133h-159l-18 -38v-49h177v-133h-485v133h167v45l-18 42h-149v133h92l-82 193h162l55 -161l13 -74h4l14 75l59 160h159z" />
    <glyph glyph-name="brokenbar" unicode="&#xa6;" horiz-adv-x="238" 
d="M174 393h-110v361h110v-361zM174 -220h-110v360h110v-360z" />
    <glyph glyph-name="section" unicode="&#xa7;" horiz-adv-x="494" 
d="M545 551l-66 -108q-33 38 -83 38q-33 0 -33 -35q0 -6 20 -99l21 -104q8 -37 8 -95q0 -119 -90.5 -191.5t-214.5 -72.5q-73 0 -119 31l39 119q30 -26 64 -26q38 0 38 62q0 26 -13 84l-22 93q-7 28 -7 87q0 121 89 196t214 75q42 0 86.5 -14t68.5 -40zM279 188l-28 147
q-7 39 -7 68q0 18 2.5 31t5.5 18l2 4l-3 3q-5 -3 -12 -9.5t-18.5 -34.5t-11.5 -64q0 -32 6 -60l29 -131q7 -34 7 -61q0 -21 -3.5 -39.5t-7.5 -25.5l-3 -8l3 -3q2 1 5 3.5t10.5 11.5t13 20t10.5 31t5 44q0 30 -5 55z" />
    <glyph glyph-name="dieresis" unicode="&#xa8;" horiz-adv-x="480" 
d="M424 728l-82 -83l-82 83l82 82zM230 728l-82 -83l-82 83l82 82z" />
    <glyph glyph-name="copyright" unicode="&#xa9;" horiz-adv-x="718" 
d="M664 279q0 -163 -81 -259t-229 -96q-144 0 -220 97t-76 259q0 164 83.5 254.5t228.5 90.5q148 0 221 -94t73 -252zM589 280q0 129 -61 204t-165 75q-106 0 -167.5 -69.5t-61.5 -207.5q0 -132 58 -209t165 -77q120 0 176 76t56 208zM476 449l-23 -83q-49 17 -83 17
q-62 0 -62 -103q0 -110 70 -110q33 0 81 16l16 -86q-53 -25 -104 -25q-82 0 -124.5 52.5t-42.5 147.5q0 203 166 203q48 0 106 -29z" />
    <glyph glyph-name="ordfeminine" unicode="&#xaa;" horiz-adv-x="331" 
d="M283 464l-3 -74q-78 -5 -91 31q-22 -33 -63 -33t-63 26t-22 71q0 27 13 46.5t34.5 28t40.5 11.5t40 3h5v29q0 14 -6.5 21t-24.5 7q-21 0 -74 -16l-16 71q57 27 100 27q18 0 29.5 -1t27.5 -6.5t25.5 -15.5t16.5 -29.5t7 -46.5v-132q0 -11 5 -14.5t19 -3.5zM287 283h-250
v79h250v-79zM174 472v45q-26 0 -35 -3q-15 -5 -15 -27q0 -23 23 -23q9 0 27 8z" />
    <glyph glyph-name="guillemotleft" unicode="&#xab;" horiz-adv-x="434" 
d="M420 454l-67 -182l68 -174l-107 -49l-98 223l98 232zM211 454l-67 -182l68 -174l-107 -49l-98 223l98 232z" />
    <glyph glyph-name="logicalnot" unicode="&#xac;" horiz-adv-x="424" 
d="M384 132h-129v157h-221v132h350v-289z" />
    <glyph glyph-name="registered" unicode="&#xae;" horiz-adv-x="494" 
d="M454 528q0 -113 -55 -178.5t-157 -65.5q-99 0 -150.5 66.5t-51.5 178.5t55.5 173.5t154.5 61.5q102 0 153 -64.5t51 -171.5zM403 529q0 87 -43 139t-114 52q-73 0 -114 -48t-41 -143q0 -91 39.5 -143.5t112.5 -52.5q160 0 160 196zM373 439l-15 -42q-67 1 -92 48l-27 44
h-21v-88h-67v257h91q40 0 65.5 -22t25.5 -63q0 -44 -37 -65l30 -35q14 -19 47 -34zM266 571q0 39 -31 39h-17v-77h10q38 0 38 38z" />
    <glyph glyph-name="macron" unicode="&#xaf;" 
d="M342 641h-264v130h264v-130z" />
    <glyph glyph-name="macron" unicode="&#x2c9;" 
d="M342 641h-264v130h264v-130z" />
    <glyph glyph-name="degree" unicode="&#xb0;" horiz-adv-x="347" 
d="M302 587q0 -60 -37 -96t-93 -36q-61 0 -94 35t-33 97q0 59 37.5 95t91.5 36q56 0 92 -35.5t36 -95.5zM202 587q0 34 -29 34t-29 -34q0 -21 7 -28.5t22 -7.5q29 0 29 36z" />
    <glyph glyph-name="plusminus" unicode="&#xb1;" horiz-adv-x="491" 
d="M463 0h-435v127h152v99h-152v127h152v158h132v-158h151v-127h-151v-99h151v-127z" />
    <glyph glyph-name="twosuperior" unicode="&#xb2;" horiz-adv-x="230" 
d="M8 413v65q45 41 81 92.5t36 79.5q0 15 -9 29t-21 14q-29 0 -54 -22l-29 70q43 45 101 45q49 0 76.5 -36t27.5 -86q0 -44 -28.5 -89.5t-73.5 -76.5h104v-85h-211z" />
    <glyph glyph-name="threesuperior" unicode="&#xb3;" horiz-adv-x="229" 
d="M98 407q-43 0 -89 16l14 78q33 -10 67 -10q20 0 29 15t9 33q0 21 -14.5 30t-47.5 9v51q31 4 40 14t9 30q0 9 -6 21.5t-17 12.5q-32 0 -57 -16l-19 70q37 25 85 25q104 0 104 -103q0 -51 -32 -71q45 -23 45 -86q0 -119 -120 -119z" />
    <glyph glyph-name="acute" unicode="&#xb4;" horiz-adv-x="351" 
d="M296 757l-190 -161l-73 76l168 186z" />
    <glyph glyph-name="mu" unicode="&#xb5;" horiz-adv-x="512" 
d="M47 -220v766h149v-351q0 -35 10.5 -51.5t35.5 -16.5q24 0 63 24v395h150v-407q0 -39 52 -43l-6 -101q-79 -2 -123 10t-61 50q-7 -27 -31.5 -46t-45.5 -19q-23 0 -44 10v-220h-149z" />
    <glyph glyph-name="mu" unicode="&#x3bc;" horiz-adv-x="512" 
d="M47 -220v766h149v-351q0 -35 10.5 -51.5t35.5 -16.5q24 0 63 24v395h150v-407q0 -39 52 -43l-6 -101q-79 -2 -123 10t-61 50q-7 -27 -31.5 -46t-45.5 -19q-23 0 -44 10v-220h-149z" />
    <glyph glyph-name="paragraph" unicode="&#xb6;" horiz-adv-x="509" 
d="M264 227h-6q-125 0 -184 53.5t-59 182.5q0 139 56.5 192t186.5 53h6v-481zM453 -22q0 -111 -37 -154.5t-140 -43.5q-50 0 -112 22l14 125q68 -8 92 -8q33 0 33 50v739h150v-730z" />
    <glyph glyph-name="periodcentered" unicode="&#xb7;" horiz-adv-x="286" 
d="M237 383l-91 -91l-92 91l91 91z" />
    <glyph glyph-name="periodcentered" unicode="&#x2219;" horiz-adv-x="286" 
d="M237 383l-91 -91l-92 91l91 91z" />
    <glyph glyph-name="cedilla" unicode="&#xb8;" horiz-adv-x="363" 
d="M277 -137q0 -55 -39.5 -93t-94.5 -58l-52 112q23 10 40 25.5t17 30.5q0 10 -2 21.5t-5.5 26t-4.5 21.5h121q20 -56 20 -86z" />
    <glyph glyph-name="onesuperior" unicode="&#xb9;" horiz-adv-x="180" 
d="M62 413v281h-54v83l145 5v-369h-91z" />
    <glyph glyph-name="ordmasculine" unicode="&#xba;" horiz-adv-x="332" 
d="M290 551q0 -77 -35 -120t-93 -43t-89 43.5t-31 117.5q0 76 33.5 121.5t91.5 45.5q62 0 92.5 -44t30.5 -121zM283 283h-234v79h234v-79zM202 551q0 88 -37 88q-36 0 -36 -88q0 -85 37 -85q36 0 36 85z" />
    <glyph glyph-name="guillemotright" unicode="&#xbb;" horiz-adv-x="434" 
d="M427 270l-92 -221l-112 39l67 182l-68 174l107 49zM218 270l-92 -221l-112 39l67 182l-68 174l107 49z" />
    <glyph glyph-name="onequarter" unicode="&#xbc;" horiz-adv-x="695" 
d="M631 607l-544 -545l-57 62l543 543zM102 413v281h-54v83l145 5v-369h-91zM547 0v79h-118v70l76 220h123v-222h37v-68h-37v-79h-81zM488 147h59v159z" />
    <glyph glyph-name="onehalf" unicode="&#xbd;" horiz-adv-x="690" 
d="M631 607l-544 -545l-57 62l543 543zM102 413v281h-54v83l145 5v-369h-91zM449 0v65q45 41 81 92.5t36 79.5q0 15 -9 29t-21 14q-29 0 -54 -22l-29 70q43 45 101 45q49 0 76.5 -36t27.5 -86q0 -44 -28.5 -89.5t-73.5 -76.5h104v-85h-211z" />
    <glyph glyph-name="threequarters" unicode="&#xbe;" horiz-adv-x="695" 
d="M631 607l-544 -545l-57 62l543 543zM547 0v79h-118v70l76 220h123v-222h37v-68h-37v-79h-81zM488 147h59v159zM121 407q-43 0 -89 16l14 78q33 -10 67 -10q20 0 29 15t9 33q0 21 -14.5 30t-47.5 9v51q31 4 40 14t9 30q0 9 -6 21.5t-17 12.5q-32 0 -57 -16l-19 70
q37 25 85 25q104 0 104 -103q0 -51 -32 -71q45 -23 45 -86q0 -119 -120 -119z" />
    <glyph glyph-name="questiondown" unicode="&#xbf;" horiz-adv-x="324" 
d="M267 400h-145v146h145v-146zM300 -27l-25 -139q-59 7 -97 17.5t-73.5 32.5t-52.5 60.5t-17 96.5q0 43 18 81t39 60t39 48.5t18 50.5q0 15 -3.5 28.5t-7.5 20.5l-4 6l125 27q23 -47 23 -94q0 -50 -23 -94t-45.5 -74t-22.5 -44q0 -34 20.5 -53t88.5 -31z" />
    <glyph glyph-name="Agrave" unicode="&#xc0;" horiz-adv-x="563" 
d="M561 0h-157l-44 209h-153l-52 -209h-153l194 707h197zM333 331l-25 140l-16 122h-10l-15 -122l-29 -140h95zM379 741l-231 44l33 124l224 -84z" />
    <glyph glyph-name="Aacute" unicode="&#xc1;" horiz-adv-x="563" 
d="M561 0h-157l-44 209h-153l-52 -209h-153l194 707h197zM333 331l-25 140l-16 122h-10l-15 -122l-29 -140h95zM432 785l-231 -44l-26 84l224 84z" />
    <glyph glyph-name="Acircumflex" unicode="&#xc2;" horiz-adv-x="563" 
d="M561 0h-157l-44 209h-153l-52 -209h-153l194 707h197zM333 331l-25 140l-16 122h-10l-15 -122l-29 -140h95zM151 810l147 95l147 -93l-48 -81l-97 57l-100 -55z" />
    <glyph glyph-name="Atilde" unicode="&#xc3;" horiz-adv-x="563" 
d="M561 0h-157l-44 209h-153l-52 -209h-153l194 707h197zM333 331l-25 140l-16 122h-10l-15 -122l-29 -140h95zM456 813q-40 -57 -101 -57q-22 0 -64 13t-65 13t-45 -19l-54 60q31 37 57.5 52t65.5 15q22 0 57.5 -14t47.5 -14q19 0 55 22z" />
    <glyph glyph-name="Adieresis" unicode="&#xc4;" horiz-adv-x="563" 
d="M561 0h-157l-44 209h-153l-52 -209h-153l194 707h197zM333 331l-25 140l-16 122h-10l-15 -122l-29 -140h95zM464 831l-81 -83l-82 83l82 82zM275 831l-82 -83l-81 83l81 82z" />
    <glyph glyph-name="Aring" unicode="&#xc5;" horiz-adv-x="563" 
d="M561 0h-157l-44 209h-153l-52 -209h-153l190 692q-33 31 -33 91q0 66 39.5 100t97.5 34q54 0 96 -31t42 -101q0 -63 -37 -95zM343 783q0 20 -13 34t-33 14q-45 0 -45 -45q0 -22 12 -36t34 -14t33.5 13t11.5 34zM333 331l-25 140l-16 122h-10l-15 -122l-29 -140h95z" />
    <glyph glyph-name="AE" unicode="&#xc6;" horiz-adv-x="741" 
d="M707 0h-376v209h-118l-58 -209h-153l203 707h486v-133h-209v-157h194v-124h-194v-160h225v-133zM331 331v252h-31l-60 -252h91z" />
    <glyph glyph-name="Ccedilla" unicode="&#xc7;" horiz-adv-x="517" 
d="M496 29q-81 -39 -172 -39q-144 0 -218.5 93t-74.5 266q0 170 82.5 268t216.5 98q104 0 166 -46l-32 -120q-51 18 -77.5 24t-64.5 6q-67 0 -102 -58t-35 -162q0 -108 39 -168.5t113 -60.5q68 0 136 23zM385 -137q0 -55 -39.5 -93t-94.5 -58l-52 112q23 10 40 25.5t17 30.5
q0 10 -2 21.5t-5.5 26t-4.5 21.5h121q20 -56 20 -86z" />
    <glyph glyph-name="Egrave" unicode="&#xc8;" horiz-adv-x="466" 
d="M432 0h-376v707h360v-133h-209v-157h194v-124h-194v-160h225v-133zM340 741l-231 44l33 124l224 -84z" />
    <glyph glyph-name="Eacute" unicode="&#xc9;" horiz-adv-x="466" 
d="M432 0h-376v707h360v-133h-209v-157h194v-124h-194v-160h225v-133zM376 785l-231 -44l-26 84l224 84z" />
    <glyph glyph-name="Ecircumflex" unicode="&#xca;" horiz-adv-x="466" 
d="M432 0h-376v707h360v-133h-209v-157h194v-124h-194v-160h225v-133zM89 810l147 95l147 -93l-48 -81l-97 57l-100 -55z" />
    <glyph glyph-name="Edieresis" unicode="&#xcb;" horiz-adv-x="466" 
d="M432 0h-376v707h360v-133h-209v-157h194v-124h-194v-160h225v-133zM418 831l-81 -83l-82 83l82 82zM229 831l-82 -83l-81 83l81 82z" />
    <glyph glyph-name="Igrave" unicode="&#xcc;" horiz-adv-x="263" 
d="M207 0h-151v707h151v-707zM197 741l-231 44l33 124l224 -84z" />
    <glyph glyph-name="Iacute" unicode="&#xcd;" horiz-adv-x="263" 
d="M207 0h-151v707h151v-707zM281 785l-231 -44l-26 84l224 84z" />
    <glyph glyph-name="Icircumflex" unicode="&#xce;" horiz-adv-x="263" 
d="M207 0h-151v707h151v-707zM-17 810l147 95l147 -93l-48 -81l-97 57l-100 -55z" />
    <glyph glyph-name="Idieresis" unicode="&#xcf;" horiz-adv-x="263" 
d="M207 0h-151v707h151v-707zM305 831l-81 -83l-82 83l82 82zM116 831l-82 -83l-81 83l81 82z" />
    <glyph glyph-name="Eth" unicode="&#xd0;" horiz-adv-x="589" 
d="M560 356q0 -178 -80 -267t-225 -89h-199v299h-54v100h54v308h195q142 0 225.5 -87t83.5 -264zM407 346q0 108 -39.5 168t-119.5 60h-42v-175h94v-100h-94v-166h57q144 0 144 213z" />
    <glyph glyph-name="Ntilde" unicode="&#xd1;" horiz-adv-x="597" 
d="M541 0h-149l-187 422h-4l6 -124v-298h-151v707h163l173 -407h4l-6 124v283h151v-707zM470 813q-40 -57 -101 -57q-22 0 -64 13t-65 13t-45 -19l-54 60q31 37 57.5 52t65.5 15q22 0 57.5 -14t47.5 -14q19 0 55 22z" />
    <glyph glyph-name="Ograve" unicode="&#xd2;" horiz-adv-x="630" 
d="M599 353q0 -178 -74 -271.5t-216 -93.5q-139 0 -208.5 95t-69.5 272q0 175 77.5 269t214.5 94q140 0 208 -97.5t68 -267.5zM445 354q0 112 -34.5 174t-100.5 62t-97 -64t-31 -170q0 -107 36.5 -171.5t100.5 -64.5q69 0 97.5 61.5t28.5 172.5zM377 741l-231 44l33 124
l224 -84z" />
    <glyph glyph-name="Oacute" unicode="&#xd3;" horiz-adv-x="630" 
d="M599 353q0 -178 -74 -271.5t-216 -93.5q-139 0 -208.5 95t-69.5 272q0 175 77.5 269t214.5 94q140 0 208 -97.5t68 -267.5zM445 354q0 112 -34.5 174t-100.5 62t-97 -64t-31 -170q0 -107 36.5 -171.5t100.5 -64.5q69 0 97.5 61.5t28.5 172.5zM470 785l-231 -44l-26 84
l224 84z" />
    <glyph glyph-name="Ocircumflex" unicode="&#xd4;" horiz-adv-x="630" 
d="M599 353q0 -178 -74 -271.5t-216 -93.5q-139 0 -208.5 95t-69.5 272q0 175 77.5 269t214.5 94q140 0 208 -97.5t68 -267.5zM445 354q0 112 -34.5 174t-100.5 62t-97 -64t-31 -170q0 -107 36.5 -171.5t100.5 -64.5q69 0 97.5 61.5t28.5 172.5zM169 810l147 95l147 -93
l-48 -81l-97 57l-100 -55z" />
    <glyph glyph-name="Otilde" unicode="&#xd5;" horiz-adv-x="630" 
d="M599 353q0 -178 -74 -271.5t-216 -93.5q-139 0 -208.5 95t-69.5 272q0 175 77.5 269t214.5 94q140 0 208 -97.5t68 -267.5zM445 354q0 112 -34.5 174t-100.5 62t-97 -64t-31 -170q0 -107 36.5 -171.5t100.5 -64.5q69 0 97.5 61.5t28.5 172.5zM483 813q-40 -57 -101 -57
q-22 0 -64 13t-65 13t-45 -19l-54 60q31 37 57.5 52t65.5 15q22 0 57.5 -14t47.5 -14q19 0 55 22z" />
    <glyph glyph-name="Odieresis" unicode="&#xd6;" horiz-adv-x="630" 
d="M599 353q0 -178 -74 -271.5t-216 -93.5q-139 0 -208.5 95t-69.5 272q0 175 77.5 269t214.5 94q140 0 208 -97.5t68 -267.5zM445 354q0 112 -34.5 174t-100.5 62t-97 -64t-31 -170q0 -107 36.5 -171.5t100.5 -64.5q69 0 97.5 61.5t28.5 172.5zM489 831l-81 -83l-82 83
l82 82zM300 831l-82 -83l-81 83l81 82z" />
    <glyph glyph-name="multiply" unicode="&#xd7;" horiz-adv-x="567" 
d="M486 181l-94 -94l-110 109l-109 -109l-93 92l110 110l-110 110l94 94l110 -110l110 110l93 -92l-111 -111z" />
    <glyph glyph-name="Oslash" unicode="&#xd8;" horiz-adv-x="630" 
d="M633 658l-73 -87q39 -88 39 -218q0 -175 -74.5 -270t-215.5 -95q-107 0 -174 61l-53 -62l-71 62l65 77q-45 91 -45 229q0 175 77.5 269t214.5 94q113 0 182 -67l55 66zM406 530q-38 60 -90 60q-67 0 -100.5 -62.5t-33.5 -171.5q0 -45 8 -90zM445 354q0 33 -5 71
l-210 -259q34 -47 80 -47q135 0 135 235z" />
    <glyph glyph-name="Ugrave" unicode="&#xd9;" horiz-adv-x="598" 
d="M547 294q0 -89 -21 -151.5t-58 -95t-77.5 -46.5t-89.5 -14q-50 0 -91 12.5t-78.5 42.5t-58.5 88t-21 141v436h152v-442q0 -146 97 -146q96 0 96 166v422h150v-413zM383 741l-231 44l33 124l224 -84z" />
    <glyph glyph-name="Uacute" unicode="&#xda;" horiz-adv-x="598" 
d="M547 294q0 -89 -21 -151.5t-58 -95t-77.5 -46.5t-89.5 -14q-50 0 -91 12.5t-78.5 42.5t-58.5 88t-21 141v436h152v-442q0 -146 97 -146q96 0 96 166v422h150v-413zM455 785l-231 -44l-26 84l224 84z" />
    <glyph glyph-name="Ucircumflex" unicode="&#xdb;" horiz-adv-x="598" 
d="M547 294q0 -89 -21 -151.5t-58 -95t-77.5 -46.5t-89.5 -14q-50 0 -91 12.5t-78.5 42.5t-58.5 88t-21 141v436h152v-442q0 -146 97 -146q96 0 96 166v422h150v-413zM151 818l147 95l147 -93l-48 -81l-97 57l-100 -55z" />
    <glyph glyph-name="Udieresis" unicode="&#xdc;" horiz-adv-x="598" 
d="M547 294q0 -89 -21 -151.5t-58 -95t-77.5 -46.5t-89.5 -14q-50 0 -91 12.5t-78.5 42.5t-58.5 88t-21 141v436h152v-442q0 -146 97 -146q96 0 96 166v422h150v-413zM472 831l-81 -83l-82 83l82 82zM283 831l-82 -83l-81 83l81 82z" />
    <glyph glyph-name="Yacute" unicode="&#xdd;" horiz-adv-x="533" 
d="M542 707l-205 -472v-235h-151v229l-195 478h174l74 -229l24 -108h4l24 103l82 234h169zM421 785l-231 -44l-26 84l224 84z" />
    <glyph glyph-name="Thorn" unicode="&#xde;" horiz-adv-x="497" 
d="M475 351q0 -110 -65.5 -180.5t-181.5 -70.5h-21v-100h-151v706h151v-99h58q98 0 154 -68t56 -188zM207 474v-243h26q45 0 65.5 34.5t20.5 83.5q0 54 -16.5 89.5t-52.5 35.5h-43z" />
    <glyph glyph-name="germandbls" unicode="&#xdf;" horiz-adv-x="528" 
d="M510 154q0 -51 -17 -86.5t-46 -51.5t-56.5 -22.5t-59.5 -6.5q-22 0 -48 6t-41 12l-15 6l16 123q47 -13 72 -13q48 0 48 38q0 18 -13 34.5t-31 32.5t-36 35.5t-31 52t-13 74.5q0 47 28.5 107.5t28.5 89.5q0 20 -1.5 31.5t-11.5 22t-30 10.5q-27 0 -37.5 -25t-10.5 -75
v-769h-149v760q0 126 51 180.5t143 54.5q24 0 46 -3t50 -15t48.5 -31.5t35 -55.5t14.5 -84q0 -49 -15 -85.5t-29.5 -64.5t-14.5 -56q0 -20 13 -37t31.5 -32t36.5 -33.5t31 -50.5t13 -73z" />
    <glyph glyph-name="agrave" unicode="&#xe0;" horiz-adv-x="475" 
d="M450 122l-5 -126q-11 -1 -36 -1q-104 0 -122 58q-17 -28 -48.5 -44.5t-62.5 -16.5q-70 0 -109 45.5t-39 123.5q0 48 23 80.5t60.5 47.5t70.5 20.5t69 5.5h10v53q0 26 -12.5 38t-43.5 12q-41 0 -127 -27l-28 121q97 47 173 47q31 0 51.5 -2t48 -11.5t44 -27t28.5 -51
t12 -80.5v-232q0 -20 9.5 -26.5t33.5 -6.5zM261 136v82q-6 0 -22 -0.5t-22.5 -1t-17.5 -3t-15.5 -8t-8.5 -16t-4 -25.5q0 -21 9 -31.5t33 -10.5q12 0 48 14zM335 672l-73 -76l-190 161l95 101z" />
    <glyph glyph-name="aacute" unicode="&#xe1;" horiz-adv-x="475" 
d="M450 122l-5 -126q-11 -1 -36 -1q-104 0 -122 58q-17 -28 -48.5 -44.5t-62.5 -16.5q-70 0 -109 45.5t-39 123.5q0 48 23 80.5t60.5 47.5t70.5 20.5t69 5.5h10v53q0 26 -12.5 38t-43.5 12q-41 0 -127 -27l-28 121q97 47 173 47q31 0 51.5 -2t48 -11.5t44 -27t28.5 -51
t12 -80.5v-232q0 -20 9.5 -26.5t33.5 -6.5zM261 136v82q-6 0 -22 -0.5t-22.5 -1t-17.5 -3t-15.5 -8t-8.5 -16t-4 -25.5q0 -21 9 -31.5t33 -10.5q12 0 48 14zM384 757l-190 -161l-73 76l168 186z" />
    <glyph glyph-name="acircumflex" unicode="&#xe2;" horiz-adv-x="475" 
d="M450 122l-5 -126q-11 -1 -36 -1q-104 0 -122 58q-17 -28 -48.5 -44.5t-62.5 -16.5q-70 0 -109 45.5t-39 123.5q0 48 23 80.5t60.5 47.5t70.5 20.5t69 5.5h10v53q0 26 -12.5 38t-43.5 12q-41 0 -127 -27l-28 121q97 47 173 47q31 0 51.5 -2t48 -11.5t44 -27t28.5 -51
t12 -80.5v-232q0 -20 9.5 -26.5t33.5 -6.5zM261 136v82q-6 0 -22 -0.5t-22.5 -1t-17.5 -3t-15.5 -8t-8.5 -16t-4 -25.5q0 -21 9 -31.5t33 -10.5q12 0 48 14zM398 700l-66 -91l-104 77l-104 -77l-64 85l170 136z" />
    <glyph glyph-name="atilde" unicode="&#xe3;" horiz-adv-x="475" 
d="M450 122l-5 -126q-11 -1 -36 -1q-104 0 -122 58q-17 -28 -48.5 -44.5t-62.5 -16.5q-70 0 -109 45.5t-39 123.5q0 48 23 80.5t60.5 47.5t70.5 20.5t69 5.5h10v53q0 26 -12.5 38t-43.5 12q-41 0 -127 -27l-28 121q97 47 173 47q31 0 51.5 -2t48 -11.5t44 -27t28.5 -51
t12 -80.5v-232q0 -20 9.5 -26.5t33.5 -6.5zM261 136v82q-6 0 -22 -0.5t-22.5 -1t-17.5 -3t-15.5 -8t-8.5 -16t-4 -25.5q0 -21 9 -31.5t33 -10.5q12 0 48 14zM418 710q-25 -27 -39.5 -39.5t-39 -23.5t-53.5 -11q-19 0 -54 15.5t-50 15.5q-28 0 -54 -22l-56 68q33 38 63 56.5
t73 18.5q23 0 52.5 -15t36.5 -15q34 0 73 20z" />
    <glyph glyph-name="adieresis" unicode="&#xe4;" horiz-adv-x="475" 
d="M450 122l-5 -126q-11 -1 -36 -1q-104 0 -122 58q-17 -28 -48.5 -44.5t-62.5 -16.5q-70 0 -109 45.5t-39 123.5q0 48 23 80.5t60.5 47.5t70.5 20.5t69 5.5h10v53q0 26 -12.5 38t-43.5 12q-41 0 -127 -27l-28 121q97 47 173 47q31 0 51.5 -2t48 -11.5t44 -27t28.5 -51
t12 -80.5v-232q0 -20 9.5 -26.5t33.5 -6.5zM261 136v82q-6 0 -22 -0.5t-22.5 -1t-17.5 -3t-15.5 -8t-8.5 -16t-4 -25.5q0 -21 9 -31.5t33 -10.5q12 0 48 14zM411 703l-82 -83l-82 83l82 82zM217 703l-82 -83l-82 83l82 82z" />
    <glyph glyph-name="aring" unicode="&#xe5;" horiz-adv-x="475" 
d="M450 122l-5 -126q-11 -1 -36 -1q-104 0 -122 58q-17 -28 -48.5 -44.5t-62.5 -16.5q-70 0 -109 45.5t-39 123.5q0 48 23 80.5t60.5 47.5t70.5 20.5t69 5.5h10v53q0 26 -12.5 38t-43.5 12q-41 0 -127 -27l-28 121q97 47 173 47q31 0 51.5 -2t48 -11.5t44 -27t28.5 -51
t12 -80.5v-232q0 -20 9.5 -26.5t33.5 -6.5zM261 136v82q-6 0 -22 -0.5t-22.5 -1t-17.5 -3t-15.5 -8t-8.5 -16t-4 -25.5q0 -21 9 -31.5t33 -10.5q12 0 48 14zM342 716q0 -46 -31.5 -74.5t-78.5 -28.5t-80 25.5t-33 75.5q0 48 33 78.5t78 30.5q41 0 76.5 -28t35.5 -79z
M267 715q0 15 -10.5 25t-26.5 10q-36 0 -36 -33q0 -35 37 -35q36 0 36 33z" />
    <glyph glyph-name="ae" unicode="&#xe6;" horiz-adv-x="687" 
d="M659 229l-252 -7q0 -95 94 -95q63 0 124 12l22 -123q-65 -25 -163 -25q-124 0 -176 72q-53 -71 -132 -71q-70 0 -109 45.5t-39 123.5q0 48 23 80.5t60.5 47.5t70.5 20.5t69 5.5h10v53q0 26 -12.5 38t-43.5 12q-41 0 -127 -27l-28 121q97 47 173 47q95 0 133 -32
q48 32 119 32q184 0 184 -277v-53zM507 333q2 43 -8 71t-34 28q-46 0 -53 -111zM272 142l-6 26q-4 29 -5 50q-5 0 -21.5 -0.5t-22.5 -1t-17.5 -3.5t-16 -8.5t-8.5 -15.5t-4 -25q0 -21 9 -31.5t33 -10.5q19 0 59 20z" />
    <glyph glyph-name="ccedilla" unicode="&#xe7;" horiz-adv-x="412" 
d="M390 12q-68 -21 -122 -21q-129 0 -184.5 68t-55.5 219q0 127 60.5 204t166.5 77q75 0 142 -45l-37 -119q-55 28 -100 28q-34 0 -58 -37t-24 -110q0 -78 20 -115t78 -37q47 0 94 14zM318 -137q0 -55 -39.5 -93t-94.5 -58l-52 112q23 10 40 25.5t17 30.5q0 10 -2 21.5
t-5.5 26t-4.5 21.5h121q20 -56 20 -86z" />
    <glyph glyph-name="egrave" unicode="&#xe8;" horiz-adv-x="455" 
d="M427 222h-252q0 -95 94 -95q63 0 124 12l22 -123q-65 -25 -163 -25q-110 0 -167 61t-57 213t57 223t158 71q184 0 184 -277v-60zM275 336q5 96 -42 96t-53 -96h95zM348 672l-73 -76l-190 161l95 101z" />
    <glyph glyph-name="eacute" unicode="&#xe9;" horiz-adv-x="455" 
d="M427 222h-252q0 -95 94 -95q63 0 124 12l22 -123q-65 -25 -163 -25q-110 0 -167 61t-57 213t57 223t158 71q184 0 184 -277v-60zM275 336q5 96 -42 96t-53 -96h95zM396 757l-190 -161l-73 76l168 186z" />
    <glyph glyph-name="ecircumflex" unicode="&#xea;" horiz-adv-x="455" 
d="M427 222h-252q0 -95 94 -95q63 0 124 12l22 -123q-65 -25 -163 -25q-110 0 -167 61t-57 213t57 223t158 71q184 0 184 -277v-60zM275 336q5 96 -42 96t-53 -96h95zM399 700l-66 -91l-104 77l-104 -77l-64 85l170 136z" />
    <glyph glyph-name="edieresis" unicode="&#xeb;" horiz-adv-x="455" 
d="M427 222h-252q0 -95 94 -95q63 0 124 12l22 -123q-65 -25 -163 -25q-110 0 -167 61t-57 213t57 223t158 71q184 0 184 -277v-60zM275 336q5 96 -42 96t-53 -96h95zM411 706l-82 -83l-82 83l82 82zM217 706l-82 -83l-82 83l82 82z" />
    <glyph glyph-name="igrave" unicode="&#xec;" horiz-adv-x="244" 
d="M197 0h-150v546h150v-546zM220 672l-73 -76l-190 161l95 101z" />
    <glyph glyph-name="iacute" unicode="&#xed;" horiz-adv-x="244" 
d="M197 0h-150v546h150v-546zM284 757l-190 -161l-73 76l168 186z" />
    <glyph glyph-name="icircumflex" unicode="&#xee;" horiz-adv-x="244" 
d="M197 0h-150v546h150v-546zM291 700l-66 -91l-104 77l-104 -77l-64 85l170 136z" />
    <glyph glyph-name="idieresis" unicode="&#xef;" horiz-adv-x="244" 
d="M197 0h-150v546h150v-546zM307 705l-82 -83l-82 83l82 82zM113 705l-82 -83l-82 83l82 82z" />
    <glyph glyph-name="eth" unicode="&#xf0;" horiz-adv-x="534" 
d="M511 275q0 -134 -69.5 -210.5t-180.5 -76.5q-115 0 -176.5 76t-61.5 206q0 125 62.5 207.5t183.5 82.5q1 0 9 -0.5t9 -0.5q-8 19 -24 41l-53 -20l-26 70l34 12l-23 27l92 84q27 -21 63 -63l58 20l25 -68l-37 -13q115 -169 115 -374zM352 272q0 76 -19.5 116t-66.5 40
q-86 0 -86 -157q0 -76 20.5 -113.5t67.5 -37.5t65.5 37t18.5 115z" />
    <glyph glyph-name="ntilde" unicode="&#xf1;" horiz-adv-x="502" 
d="M455 0h-149v338q0 35 -10.5 51.5t-35.5 16.5q-24 0 -63 -24v-382h-150v546h150v-58q16 25 53 48t65 23q46 0 75.5 -16.5t43 -49t17.5 -64.5t4 -80v-349zM430 710q-25 -27 -39.5 -39.5t-39 -23.5t-53.5 -11q-19 0 -54 15.5t-50 15.5q-28 0 -54 -22l-56 68q33 38 63 56.5
t73 18.5q22 0 52 -15t37 -15q34 0 73 20z" />
    <glyph glyph-name="ograve" unicode="&#xf2;" horiz-adv-x="488" 
d="M460 273q0 -134 -61 -209.5t-161 -75.5q-102 0 -156 75.5t-54 204.5q0 133 58.5 212.5t159.5 79.5q109 0 161.5 -76t52.5 -211zM309 273q0 155 -66 155q-33 0 -49.5 -43.5t-16.5 -112.5q0 -151 68 -151q64 0 64 152zM370 672l-73 -76l-190 161l95 101z" />
    <glyph glyph-name="oacute" unicode="&#xf3;" horiz-adv-x="488" 
d="M460 273q0 -134 -61 -209.5t-161 -75.5q-102 0 -156 75.5t-54 204.5q0 133 58.5 212.5t159.5 79.5q109 0 161.5 -76t52.5 -211zM309 273q0 155 -66 155q-33 0 -49.5 -43.5t-16.5 -112.5q0 -151 68 -151q64 0 64 152zM383 757l-190 -161l-73 76l168 186z" />
    <glyph glyph-name="ocircumflex" unicode="&#xf4;" horiz-adv-x="488" 
d="M460 273q0 -134 -61 -209.5t-161 -75.5q-102 0 -156 75.5t-54 204.5q0 133 58.5 212.5t159.5 79.5q109 0 161.5 -76t52.5 -211zM309 273q0 155 -66 155q-33 0 -49.5 -43.5t-16.5 -112.5q0 -151 68 -151q64 0 64 152zM414 700l-66 -91l-104 77l-104 -77l-64 85l170 136z
" />
    <glyph glyph-name="otilde" unicode="&#xf5;" horiz-adv-x="488" 
d="M460 273q0 -134 -61 -209.5t-161 -75.5q-102 0 -156 75.5t-54 204.5q0 133 58.5 212.5t159.5 79.5q109 0 161.5 -76t52.5 -211zM309 273q0 155 -66 155q-33 0 -49.5 -43.5t-16.5 -112.5q0 -151 68 -151q64 0 64 152zM425 710q-25 -27 -39.5 -39.5t-39 -23.5t-53.5 -11
q-19 0 -54 15.5t-50 15.5q-28 0 -54 -22l-56 68q33 38 63 56.5t73 18.5q22 0 51.5 -15t37.5 -15q34 0 73 20z" />
    <glyph glyph-name="odieresis" unicode="&#xf6;" horiz-adv-x="488" 
d="M460 273q0 -134 -61 -209.5t-161 -75.5q-102 0 -156 75.5t-54 204.5q0 133 58.5 212.5t159.5 79.5q109 0 161.5 -76t52.5 -211zM309 273q0 155 -66 155q-33 0 -49.5 -43.5t-16.5 -112.5q0 -151 68 -151q64 0 64 152zM428 728l-82 -83l-82 83l82 82zM234 728l-82 -83
l-82 83l82 82z" />
    <glyph glyph-name="divide" unicode="&#xf7;" horiz-adv-x="374" 
d="M255 391h-136v138h136v-138zM362 222h-350v133h350v-133zM255 45h-136v138h136v-138z" />
    <glyph glyph-name="oslash" unicode="&#xf8;" horiz-adv-x="488" 
d="M492 530l-65 -80q33 -70 33 -177q0 -134 -61 -209.5t-161 -75.5q-88 0 -141 58l-54 -66l-47 38l65 80q-33 69 -33 170q0 133 58.5 212.5t159.5 79.5q94 0 146 -57l53 65zM295 384q-18 44 -52 44q-33 0 -49.5 -43.5t-16.5 -112.5q0 -21 1 -31zM309 273q0 22 -1 32
l-115 -142q18 -42 52 -42q64 0 64 152z" />
    <glyph glyph-name="ugrave" unicode="&#xf9;" horiz-adv-x="502" 
d="M455 0h-150v55q-16 -24 -53 -46t-65 -22q-46 0 -75.5 16.5t-43 49t-17.5 64.5t-4 80v349h149v-348q0 -35 10.5 -51.5t35.5 -16.5q29 0 63 21v395h150v-546zM368 672l-73 -76l-190 161l95 101z" />
    <glyph glyph-name="uacute" unicode="&#xfa;" horiz-adv-x="502" 
d="M455 0h-150v55q-16 -24 -53 -46t-65 -22q-46 0 -75.5 16.5t-43 49t-17.5 64.5t-4 80v349h149v-348q0 -35 10.5 -51.5t35.5 -16.5q29 0 63 21v395h150v-546zM402 757l-190 -161l-73 76l168 186z" />
    <glyph glyph-name="ucircumflex" unicode="&#xfb;" horiz-adv-x="502" 
d="M455 0h-150v55q-16 -24 -53 -46t-65 -22q-46 0 -75.5 16.5t-43 49t-17.5 64.5t-4 80v349h149v-348q0 -35 10.5 -51.5t35.5 -16.5q29 0 63 21v395h150v-546zM424 700l-66 -91l-104 77l-104 -77l-64 85l170 136z" />
    <glyph glyph-name="udieresis" unicode="&#xfc;" horiz-adv-x="502" 
d="M455 0h-150v55q-16 -24 -53 -46t-65 -22q-46 0 -75.5 16.5t-43 49t-17.5 64.5t-4 80v349h149v-348q0 -35 10.5 -51.5t35.5 -16.5q29 0 63 21v395h150v-546zM432 706l-82 -83l-82 83l82 82zM238 706l-82 -83l-82 83l82 82z" />
    <glyph glyph-name="yacute" unicode="&#xfd;" horiz-adv-x="469" 
d="M468 546l-199 -766h-145l60 220h-33l-150 546h159l66 -322l7 -91h4l7 91l72 322h152zM396 757l-190 -161l-73 76l168 186z" />
    <glyph glyph-name="thorn" unicode="&#xfe;" horiz-adv-x="488" 
d="M462 293q0 -158 -65.5 -229.5t-167.5 -71.5q-13 0 -33 2v-214h-149v974h149v-247q5 6 15 15t37.5 23.5t51.5 14.5q162 0 162 -267zM311 288q0 66 -17.5 97t-54.5 31q-13 0 -43 -10v-282q20 -4 36 -4q35 0 57 47.5t22 120.5z" />
    <glyph glyph-name="ydieresis" unicode="&#xff;" horiz-adv-x="469" 
d="M468 546l-199 -766h-145l60 220h-33l-150 546h159l66 -322l7 -91h4l7 91l72 322h152zM418 706l-82 -83l-82 83l82 82zM224 706l-82 -83l-82 83l82 82z" />
    <glyph glyph-name="Amacron" unicode="&#x100;" horiz-adv-x="563" 
d="M561 0h-157l-44 209h-153l-52 -209h-153l194 707h197zM333 331l-25 140l-16 122h-10l-15 -122l-29 -140h95zM423 765h-264v114h264v-114z" />
    <glyph glyph-name="amacron" unicode="&#x101;" horiz-adv-x="475" 
d="M450 122l-5 -126q-11 -1 -36 -1q-104 0 -122 58q-17 -28 -48.5 -44.5t-62.5 -16.5q-70 0 -109 45.5t-39 123.5q0 48 23 80.5t60.5 47.5t70.5 20.5t69 5.5h10v53q0 26 -12.5 38t-43.5 12q-41 0 -127 -27l-28 121q97 47 173 47q31 0 51.5 -2t48 -11.5t44 -27t28.5 -51
t12 -80.5v-232q0 -20 9.5 -26.5t33.5 -6.5zM261 136v82q-6 0 -22 -0.5t-22.5 -1t-17.5 -3t-15.5 -8t-8.5 -16t-4 -25.5q0 -21 9 -31.5t33 -10.5q12 0 48 14zM366 641h-264v130h264v-130z" />
    <glyph glyph-name="Abreve" unicode="&#x102;" horiz-adv-x="563" 
d="M561 0h-157l-44 209h-153l-52 -209h-153l194 707h197zM333 331l-25 140l-16 122h-10l-15 -122l-29 -140h95zM457 842q-22 -39 -66 -67t-97 -28t-96 28.5t-64 68.5l70 63q44 -45 93 -45q45 0 90 42z" />
    <glyph glyph-name="abreve" unicode="&#x103;" horiz-adv-x="475" 
d="M450 122l-5 -126q-11 -1 -36 -1q-104 0 -122 58q-17 -28 -48.5 -44.5t-62.5 -16.5q-70 0 -109 45.5t-39 123.5q0 48 23 80.5t60.5 47.5t70.5 20.5t69 5.5h10v53q0 26 -12.5 38t-43.5 12q-41 0 -127 -27l-28 121q97 47 173 47q31 0 51.5 -2t48 -11.5t44 -27t28.5 -51
t12 -80.5v-232q0 -20 9.5 -26.5t33.5 -6.5zM261 136v82q-6 0 -22 -0.5t-22.5 -1t-17.5 -3t-15.5 -8t-8.5 -16t-4 -25.5q0 -21 9 -31.5t33 -10.5q12 0 48 14zM410 723q-23 -41 -70 -71.5t-106 -30.5q-60 0 -107 30.5t-68 71.5l70 73q44 -50 108 -50q58 0 103 49z" />
    <glyph glyph-name="Aogonek" unicode="&#x104;" horiz-adv-x="563" 
d="M561 0q-33 -16 -56 -36q-44 -39 -44 -74q0 -13 10 -21.5t25 -8.5q23 0 53 11l23 -100q-49 -26 -113 -26q-131 0 -131 115q0 64 78 130l-46 219h-153l-52 -209h-153l194 707h197zM333 331l-25 140l-16 122h-10l-15 -122l-29 -140h95z" />
    <glyph glyph-name="aogonek" unicode="&#x105;" horiz-adv-x="475" 
d="M450 122l-5 -126q-36 -19 -64 -48t-28 -58q0 -13 10 -21.5t25 -8.5q23 0 53 11l23 -100q-49 -26 -113 -26q-131 0 -131 115q0 40 29 79t75 71q-28 14 -37 43q-17 -28 -48.5 -44.5t-62.5 -16.5q-70 0 -109 45.5t-39 123.5q0 48 23 80.5t60.5 47.5t70.5 20.5t69 5.5h10v53
q0 26 -12.5 38t-43.5 12q-41 0 -127 -27l-28 121q97 47 173 47q31 0 51.5 -2t48 -11.5t44 -27t28.5 -51t12 -80.5v-232q0 -20 9.5 -26.5t33.5 -6.5zM261 136v82q-6 0 -22 -0.5t-22.5 -1t-17.5 -3t-15.5 -8t-8.5 -16t-4 -25.5q0 -21 9 -31.5t33 -10.5q12 0 48 14z" />
    <glyph glyph-name="Cacute" unicode="&#x106;" horiz-adv-x="517" 
d="M496 29q-81 -39 -172 -39q-144 0 -218.5 93t-74.5 266q0 170 82.5 268t216.5 98q104 0 166 -46l-32 -120q-51 18 -77.5 24t-64.5 6q-67 0 -102 -58t-35 -162q0 -108 39 -168.5t113 -60.5q68 0 136 23zM474 785l-231 -44l-26 84l224 84z" />
    <glyph glyph-name="cacute" unicode="&#x107;" horiz-adv-x="412" 
d="M390 12q-68 -21 -122 -21q-129 0 -184.5 68t-55.5 219q0 127 60.5 204t166.5 77q75 0 142 -45l-37 -119q-55 28 -100 28q-34 0 -58 -37t-24 -110q0 -78 20 -115t78 -37q47 0 94 14zM399 757l-190 -161l-73 76l168 186z" />
    <glyph glyph-name="Ccircumflex" unicode="&#x108;" horiz-adv-x="517" 
d="M496 29q-81 -39 -172 -39q-144 0 -218.5 93t-74.5 266q0 170 82.5 268t216.5 98q104 0 166 -46l-32 -120q-51 18 -77.5 24t-64.5 6q-67 0 -102 -58t-35 -162q0 -108 39 -168.5t113 -60.5q68 0 136 23zM178 810l147 95l147 -93l-48 -81l-97 57l-100 -55z" />
    <glyph glyph-name="ccircumflex" unicode="&#x109;" horiz-adv-x="412" 
d="M390 12q-68 -21 -122 -21q-129 0 -184.5 68t-55.5 219q0 127 60.5 204t166.5 77q75 0 142 -45l-37 -119q-55 28 -100 28q-34 0 -58 -37t-24 -110q0 -78 20 -115t78 -37q47 0 94 14zM409 700l-66 -91l-104 77l-104 -77l-64 85l170 136z" />
    <glyph glyph-name="Cdotaccent" unicode="&#x10a;" horiz-adv-x="517" 
d="M496 29q-81 -39 -172 -39q-144 0 -218.5 93t-74.5 266q0 170 82.5 268t216.5 98q104 0 166 -46l-32 -120q-51 18 -77.5 24t-64.5 6q-67 0 -102 -58t-35 -162q0 -108 39 -168.5t113 -60.5q68 0 136 23zM411 831l-82 -83l-81 83l81 82z" />
    <glyph glyph-name="cdotaccent" unicode="&#x10b;" horiz-adv-x="412" 
d="M390 12q-68 -21 -122 -21q-129 0 -184.5 68t-55.5 219q0 127 60.5 204t166.5 77q75 0 142 -45l-37 -119q-55 28 -100 28q-34 0 -58 -37t-24 -110q0 -78 20 -115t78 -37q47 0 94 14zM335 728l-93 -94l-93 94l93 93z" />
    <glyph glyph-name="Ccaron" unicode="&#x10c;" horiz-adv-x="517" 
d="M496 29q-81 -39 -172 -39q-144 0 -218.5 93t-74.5 266q0 170 82.5 268t216.5 98q104 0 166 -46l-32 -120q-51 18 -77.5 24t-64.5 6q-67 0 -102 -58t-35 -162q0 -108 39 -168.5t113 -60.5q68 0 136 23zM466 826l-147 -95l-147 93l48 81l97 -57l100 55z" />
    <glyph glyph-name="ccaron" unicode="&#x10d;" horiz-adv-x="412" 
d="M390 12q-68 -21 -122 -21q-129 0 -184.5 68t-55.5 219q0 127 60.5 204t166.5 77q75 0 142 -45l-37 -119q-55 28 -100 28q-34 0 -58 -37t-24 -110q0 -78 20 -115t78 -37q47 0 94 14zM420 738l-170 -136l-168 130l66 91l104 -77l104 77z" />
    <glyph glyph-name="Dcaron" unicode="&#x10e;" horiz-adv-x="589" 
d="M560 356q0 -178 -80 -267t-225 -89h-199v707h195q142 0 225.5 -87t83.5 -264zM407 346q0 108 -39.5 168t-119.5 60h-42v-441h57q144 0 144 213zM384 826l-147 -95l-147 93l48 81l97 -57l100 55z" />
    <glyph glyph-name="dcaron" unicode="&#x10f;" horiz-adv-x="589" 
d="M438 0h-149v47q-4 -6 -12.5 -15t-34 -24t-52.5 -15t-53 13.5t-52 43.5t-41.5 89t-15.5 138q0 136 62.5 209t162.5 73q19 0 36 -3v198h149v-754zM289 143v280q-20 4 -33 4q-40 0 -60.5 -38.5t-20.5 -106.5q0 -76 19 -113.5t45 -37.5q23 0 50 12zM604 757l-38 -189h-100
l18 189h120z" />
    <glyph glyph-name="Dcroat" unicode="&#x110;" horiz-adv-x="589" 
d="M560 356q0 -178 -80 -267t-225 -89h-199v299h-54v100h54v308h195q142 0 225.5 -87t83.5 -264zM407 346q0 108 -39.5 168t-119.5 60h-42v-175h94v-100h-94v-166h57q144 0 144 213z" />
    <glyph glyph-name="dcroat" unicode="&#x111;" horiz-adv-x="485" 
d="M438 0h-149v47q-4 -6 -12.5 -15t-34 -24t-52.5 -15t-53 13.5t-52 43.5t-41.5 89t-15.5 138q0 137 63 215t162 78q19 0 36 -3v35h-142v100h142v52h149v-52h58v-100h-58v-602zM289 143v291q-20 4 -33 4q-39 0 -60 -43t-21 -113q0 -76 19 -113.5t45 -37.5q23 0 50 12z" />
    <glyph glyph-name="Emacron" unicode="&#x112;" horiz-adv-x="466" 
d="M432 0h-376v707h360v-133h-209v-157h194v-124h-194v-160h225v-133zM374 765h-264v114h264v-114z" />
    <glyph glyph-name="emacron" unicode="&#x113;" horiz-adv-x="455" 
d="M427 222h-252q0 -95 94 -95q63 0 124 12l22 -123q-65 -25 -163 -25q-110 0 -167 61t-57 213t57 223t158 71q184 0 184 -277v-60zM275 336q5 96 -42 96t-53 -96h95zM365 641h-264v130h264v-130z" />
    <glyph glyph-name="Ebreve" unicode="&#x114;" horiz-adv-x="466" 
d="M432 0h-376v707h360v-133h-209v-157h194v-124h-194v-160h225v-133zM410 842q-22 -39 -66 -67t-97 -28t-96 28.5t-64 68.5l70 63q44 -45 93 -45q45 0 90 42z" />
    <glyph glyph-name="ebreve" unicode="&#x115;" horiz-adv-x="455" 
d="M427 222h-252q0 -95 94 -95q63 0 124 12l22 -123q-65 -25 -163 -25q-110 0 -167 61t-57 213t57 223t158 71q184 0 184 -277v-60zM275 336q5 96 -42 96t-53 -96h95zM412 723q-23 -41 -70 -71.5t-106 -30.5q-60 0 -107 30.5t-68 71.5l70 73q44 -50 108 -50q58 0 103 49z
" />
    <glyph glyph-name="Edotaccent" unicode="&#x116;" horiz-adv-x="466" 
d="M432 0h-376v707h360v-133h-209v-157h194v-124h-194v-160h225v-133zM327 831l-82 -83l-81 83l81 82z" />
    <glyph glyph-name="edotaccent" unicode="&#x117;" horiz-adv-x="455" 
d="M427 222h-252q0 -95 94 -95q63 0 124 12l22 -123q-65 -25 -163 -25q-110 0 -167 61t-57 213t57 223t158 71q184 0 184 -277v-60zM275 336q5 96 -42 96t-53 -96h95zM329 728l-93 -94l-93 94l93 93z" />
    <glyph glyph-name="Eogonek" unicode="&#x118;" horiz-adv-x="466" 
d="M432 0q-42 -19 -71 -50.5t-29 -59.5q0 -13 10 -21.5t25 -8.5q23 0 53 11l23 -100q-49 -26 -113 -26q-131 0 -131 115q0 72 90 140h-233v707h360v-133h-209v-157h194v-124h-194v-160h225v-133z" />
    <glyph glyph-name="eogonek" unicode="&#x119;" horiz-adv-x="455" 
d="M427 222h-252q0 -95 94 -95q63 0 124 12l22 -123q-23 -10 -39.5 -19t-35.5 -24t-29 -36t-10 -47q0 -13 10 -21.5t25 -8.5q23 0 53 11l23 -100q-49 -26 -113 -26q-131 0 -131 115q0 71 63 132h-3q-98 6 -149 67.5t-51 205.5q0 294 215 294q184 0 184 -277v-60zM275 336
q5 96 -42 96t-53 -96h95z" />
    <glyph glyph-name="Ecaron" unicode="&#x11a;" horiz-adv-x="466" 
d="M432 0h-376v707h360v-133h-209v-157h194v-124h-194v-160h225v-133zM390 826l-147 -95l-147 93l48 81l97 -57l100 55z" />
    <glyph glyph-name="ecaron" unicode="&#x11b;" horiz-adv-x="455" 
d="M427 222h-252q0 -95 94 -95q63 0 124 12l22 -123q-65 -25 -163 -25q-110 0 -167 61t-57 213t57 223t158 71q184 0 184 -277v-60zM275 336q5 96 -42 96t-53 -96h95zM408 738l-170 -136l-168 130l66 91l104 -77l104 77z" />
    <glyph glyph-name="Gcircumflex" unicode="&#x11c;" horiz-adv-x="552" 
d="M502 34q-91 -44 -178 -44q-144 0 -218.5 93t-74.5 266q0 162 80.5 264t210.5 102q82 0 174 -46l-32 -120q-49 17 -76 23t-66 6q-67 0 -102 -57.5t-35 -161.5q0 -108 39 -168.5t113 -60.5h19v198h146v-294zM169 810l147 95l147 -93l-48 -81l-97 57l-100 -55z" />
    <glyph glyph-name="gcircumflex" unicode="&#x11d;" horiz-adv-x="485" 
d="M438 2q0 -120 -58.5 -171.5t-149.5 -51.5q-97 0 -178 36l24 131q98 -27 137 -27q41 0 59 20.5t18 68.5v11q-26 -28 -68 -28q-33 0 -62 10t-61 36.5t-51.5 85.5t-19.5 144q0 136 65 214t164 78q57 0 181 -25v-532zM435 700l-66 -91l-104 77l-104 -77l-64 85l170 136z
M289 122v296q-20 4 -33 4q-40 0 -60.5 -43t-20.5 -112q0 -77 20 -113t53 -36q27 0 41 4z" />
    <glyph glyph-name="Gbreve" unicode="&#x11e;" horiz-adv-x="552" 
d="M502 34q-91 -44 -178 -44q-144 0 -218.5 93t-74.5 266q0 162 80.5 264t210.5 102q82 0 174 -46l-32 -120q-49 17 -76 23t-66 6q-67 0 -102 -57.5t-35 -161.5q0 -108 39 -168.5t113 -60.5h19v198h146v-294zM476 842q-22 -39 -66 -67t-97 -28t-96 28.5t-64 68.5l70 63
q44 -45 93 -45q45 0 90 42z" />
    <glyph glyph-name="gbreve" unicode="&#x11f;" horiz-adv-x="485" 
d="M438 2q0 -120 -58.5 -171.5t-149.5 -51.5q-97 0 -178 36l24 131q98 -27 137 -27q41 0 59 20.5t18 68.5v11q-26 -28 -68 -28q-33 0 -62 10t-61 36.5t-51.5 85.5t-19.5 144q0 136 65 214t164 78q57 0 181 -25v-532zM439 723q-23 -41 -70 -71.5t-106 -30.5q-60 0 -107 30.5
t-68 71.5l70 73q44 -50 108 -50q58 0 103 49zM289 122v296q-20 4 -33 4q-40 0 -60.5 -43t-20.5 -112q0 -77 20 -113t53 -36q27 0 41 4z" />
    <glyph glyph-name="Gdotaccent" unicode="&#x120;" horiz-adv-x="552" 
d="M502 34q-91 -44 -178 -44q-144 0 -218.5 93t-74.5 266q0 162 80.5 264t210.5 102q82 0 174 -46l-32 -120q-49 17 -76 23t-66 6q-67 0 -102 -57.5t-35 -161.5q0 -108 39 -168.5t113 -60.5h19v198h146v-294zM403 831l-82 -83l-81 83l81 82z" />
    <glyph glyph-name="gdotaccent" unicode="&#x121;" horiz-adv-x="485" 
d="M438 2q0 -120 -58.5 -171.5t-149.5 -51.5q-97 0 -178 36l24 131q98 -27 137 -27q41 0 59 20.5t18 68.5v11q-26 -28 -68 -28q-33 0 -62 10t-61 36.5t-51.5 85.5t-19.5 144q0 136 65 214t164 78q57 0 181 -25v-532zM289 122v296q-20 4 -33 4q-40 0 -60.5 -43t-20.5 -112
q0 -77 20 -113t53 -36q27 0 41 4zM356 728l-93 -94l-93 94l93 93z" />
    <glyph glyph-name="Gcommaaccent" unicode="&#x122;" horiz-adv-x="552" 
d="M502 34q-91 -44 -178 -44q-144 0 -218.5 93t-74.5 266q0 162 80.5 264t210.5 102q82 0 174 -46l-32 -120q-49 17 -76 23t-66 6q-67 0 -102 -57.5t-35 -161.5q0 -108 39 -168.5t113 -60.5h19v198h146v-294zM401 -58l-38 -189h-100l18 189h120z" />
    <glyph glyph-name="gcommaaccent" unicode="&#x123;" horiz-adv-x="485" 
d="M438 2q0 -120 -58.5 -171.5t-149.5 -51.5q-97 0 -178 36l24 131q98 -27 137 -27q41 0 59 20.5t18 68.5v11q-26 -28 -68 -28q-33 0 -62 10t-61 36.5t-51.5 85.5t-19.5 144q0 136 65 214t164 78q57 0 181 -25v-532zM289 122v296q-20 4 -33 4q-40 0 -60.5 -43t-20.5 -112
q0 -77 20 -113t53 -36q27 0 41 4zM211 615l38 189h100l-18 -189h-120z" />
    <glyph glyph-name="Hcircumflex" unicode="&#x124;" horiz-adv-x="597" 
d="M541 0h-151v291h-183v-291h-151v707h151v-287h183v287h151v-707zM153 810l147 95l147 -93l-48 -81l-97 57l-100 -55z" />
    <glyph glyph-name="hcircumflex" unicode="&#x125;" horiz-adv-x="502" 
d="M455 0h-149v338q0 35 -10.5 51.5t-35.5 16.5q-24 0 -63 -24v-382h-150v754h150v-266q16 25 53 48t65 23q46 0 75.5 -16.5t43 -49t17.5 -64.5t4 -80v-349zM-25 835l147 95l147 -93l-48 -81l-97 57l-100 -55z" />
    <glyph glyph-name="Hbar" unicode="&#x126;" horiz-adv-x="597" 
d="M541 0h-151v291h-183v-291h-151v514h-56v100h56v92h151v-92h183v92h151v-92h55v-100h-55v-514zM207 420h183v94h-183v-94z" />
    <glyph glyph-name="hbar" unicode="&#x127;" horiz-adv-x="502" 
d="M455 0h-149v338q0 35 -10.5 51.5t-35.5 16.5q-24 0 -63 -24v-382h-150v590h-57v96h57v68h150v-68h142v-96h-142v-102q16 25 53 48t65 23q46 0 75.5 -16.5t43 -49t17.5 -64.5t4 -80v-349z" />
    <glyph glyph-name="Itilde" unicode="&#x128;" horiz-adv-x="263" 
d="M207 0h-151v707h151v-707zM306 813q-40 -57 -101 -57q-22 0 -64 13t-65 13t-45 -19l-54 60q31 37 57.5 52t65.5 15q22 0 57.5 -14t47.5 -14q19 0 55 22z" />
    <glyph glyph-name="itilde" unicode="&#x129;" horiz-adv-x="244" 
d="M197 0h-150v546h150v-546zM296 710q-25 -27 -39.5 -39.5t-39 -23.5t-53.5 -11q-19 0 -54 15.5t-50 15.5q-28 0 -54 -22l-56 68q33 38 63 56.5t73 18.5q22 0 52 -15t37 -15q34 0 73 20z" />
    <glyph glyph-name="Imacron" unicode="&#x12a;" horiz-adv-x="263" 
d="M207 0h-151v707h151v-707zM262 765h-264v114h264v-114z" />
    <glyph glyph-name="imacron" unicode="&#x12b;" horiz-adv-x="244" 
d="M197 0h-150v546h150v-546zM254 663h-264v130h264v-130z" />
    <glyph glyph-name="Ibreve" unicode="&#x12c;" horiz-adv-x="263" 
d="M207 0h-151v707h151v-707zM293 842q-22 -39 -66 -67t-97 -28t-96 28.5t-64 68.5l70 63q44 -45 93 -45q45 0 90 42z" />
    <glyph glyph-name="ibreve" unicode="&#x12d;" horiz-adv-x="244" 
d="M197 0h-150v546h150v-546zM289 723q-23 -41 -70 -71.5t-106 -30.5q-60 0 -107 30.5t-68 71.5l70 73q44 -50 108 -50q58 0 103 49z" />
    <glyph glyph-name="Iogonek" unicode="&#x12e;" horiz-adv-x="263" 
d="M207 707v-707q-42 -19 -71 -50.5t-29 -59.5q0 -13 10 -21.5t25 -8.5q23 0 53 11l23 -100q-49 -26 -113 -26q-131 0 -131 115q0 66 82 134v713h151z" />
    <glyph glyph-name="iogonek" unicode="&#x12f;" horiz-adv-x="244" 
d="M197 546v-546q-42 -19 -71 -50.5t-29 -59.5q0 -13 10 -21.5t25 -8.5q23 0 53 11l23 -100q-49 -26 -113 -26q-131 0 -131 115q0 69 83 134v552h150zM213 728l-93 -94l-93 94l93 93z" />
    <glyph glyph-name="Idotaccent" unicode="&#x130;" horiz-adv-x="263" 
d="M207 0h-151v707h151v-707zM213 831l-82 -83l-81 83l81 82z" />
    <glyph glyph-name="dotlessi" unicode="&#x131;" horiz-adv-x="244" 
d="M197 0h-150v546h150v-546z" />
    <glyph glyph-name="IJ" unicode="&#x132;" horiz-adv-x="508" 
d="M207 0h-151v707h151v-707zM452 161q0 -73 -5.5 -118.5t-25.5 -95.5t-63 -86t-112 -64l-60 115q66 37 90 80t24 121v594h152v-546z" />
    <glyph glyph-name="ij" unicode="&#x133;" horiz-adv-x="471" 
d="M197 0h-150v546h150v-546zM424 0q0 -128 -40 -174t-131 -46q-47 0 -110 28l27 124q32 -10 61 -10q25 0 34 11.5t9 56.5v556h150v-546zM212 728l-93 -94l-93 94l93 93zM442 728l-93 -94l-93 94l93 93z" />
    <glyph glyph-name="Jcircumflex" unicode="&#x134;" horiz-adv-x="264" 
d="M208 161q0 -73 -5.5 -118.5t-25.5 -95.5t-63 -86t-112 -64l-60 115q66 37 90 80t24 121v594h152v-546zM-16 810l147 95l147 -93l-48 -81l-97 57l-100 -55z" />
    <glyph glyph-name="jcircumflex" unicode="&#x135;" horiz-adv-x="244" 
d="M197 0q0 -128 -40 -174t-131 -46q-47 0 -110 28l27 124q32 -10 61 -10q25 0 34 11.5t9 56.5v556h150v-546zM287 700l-66 -91l-104 77l-104 -77l-64 85l170 136z" />
    <glyph glyph-name="Kcommaaccent" unicode="&#x136;" horiz-adv-x="550" 
d="M207 0h-151v707h151v-298l36 84l124 214h178l-210 -333l219 -374h-184l-129 248l-34 86v-334zM340 -58l-38 -189h-100l18 189h120z" />
    <glyph glyph-name="kcommaaccent" unicode="&#x137;" horiz-adv-x="454" 
d="M197 0h-150v754h150v-423l23 76l60 139h166l-138 -260l51 -80q41 -64 120 -107l-44 -111q-147 11 -202 156l-22 58l-14 36v-238zM306 -58l-38 -189h-100l18 189h120z" />
    <glyph glyph-name="Lacute" unicode="&#x139;" horiz-adv-x="438" 
d="M426 0h-370v707h151v-573h219v-134zM328 785l-231 -44l-26 84l224 84z" />
    <glyph glyph-name="lacute" unicode="&#x13a;" horiz-adv-x="244" 
d="M197 0h-150v754h150v-754zM272 825l-231 -44l-26 84l224 84z" />
    <glyph glyph-name="Lcommaaccent" unicode="&#x13b;" horiz-adv-x="438" 
d="M426 0h-370v707h151v-573h219v-134zM317 -58l-38 -189h-100l18 189h120z" />
    <glyph glyph-name="lcommaaccent" unicode="&#x13c;" horiz-adv-x="244" 
d="M197 0h-150v754h150v-754zM175 -58l-38 -189h-100l18 189h120z" />
    <glyph glyph-name="Lcaron" unicode="&#x13d;" horiz-adv-x="438" 
d="M426 0h-370v707h151v-573h219v-134zM393 782l-38 -189h-100l18 189h120z" />
    <glyph glyph-name="lcaron" unicode="&#x13e;" horiz-adv-x="358" 
d="M197 0h-150v754h150v-754zM378 757l-38 -189h-100l18 189h120z" />
    <glyph glyph-name="Ldot" unicode="&#x13f;" horiz-adv-x="436" 
d="M426 0h-370v707h151v-573h219v-134zM444 391l-91 -91l-92 91l91 91z" />
    <glyph glyph-name="ldot" unicode="&#x140;" horiz-adv-x="398" 
d="M197 0h-150v754h150v-754zM413 383l-91 -91l-92 91l91 91z" />
    <glyph glyph-name="Lslash" unicode="&#x141;" horiz-adv-x="438" 
d="M426 0h-370v251l-49 -34v114l49 34v341h151v-237l88 61v-112l-88 -61v-223h219v-134z" />
    <glyph glyph-name="lslash" unicode="&#x142;" horiz-adv-x="244" 
d="M269 447l-72 -50v-397h-150v292l-66 -46v114l66 46v348h150v-245l72 50v-112z" />
    <glyph glyph-name="Nacute" unicode="&#x143;" horiz-adv-x="597" 
d="M541 0h-149l-187 422h-4l6 -124v-298h-151v707h163l173 -407h4l-6 124v283h151v-707zM458 785l-231 -44l-26 84l224 84z" />
    <glyph glyph-name="nacute" unicode="&#x144;" horiz-adv-x="502" 
d="M455 0h-149v338q0 35 -10.5 51.5t-35.5 16.5q-24 0 -63 -24v-382h-150v546h150v-58q16 25 53 48t65 23q46 0 75.5 -16.5t43 -49t17.5 -64.5t4 -80v-349zM403 757l-190 -161l-73 76l168 186z" />
    <glyph glyph-name="Ncommaaccent" unicode="&#x145;" horiz-adv-x="597" 
d="M541 0h-149l-187 422h-4l6 -124v-298h-151v707h163l173 -407h4l-6 124v283h151v-707zM364 -58l-38 -189h-100l18 189h120z" />
    <glyph glyph-name="ncommaaccent" unicode="&#x146;" horiz-adv-x="502" 
d="M455 0h-149v338q0 35 -10.5 51.5t-35.5 16.5q-24 0 -63 -24v-382h-150v546h150v-58q16 25 53 48t65 23q46 0 75.5 -16.5t43 -49t17.5 -64.5t4 -80v-349zM319 -58l-38 -189h-100l18 189h120z" />
    <glyph glyph-name="Ncaron" unicode="&#x147;" horiz-adv-x="597" 
d="M541 0h-149l-187 422h-4l6 -124v-298h-151v707h163l173 -407h4l-6 124v283h151v-707zM452 826l-147 -95l-147 93l48 81l97 -57l100 55z" />
    <glyph glyph-name="ncaron" unicode="&#x148;" horiz-adv-x="502" 
d="M455 0h-149v338q0 35 -10.5 51.5t-35.5 16.5q-24 0 -63 -24v-382h-150v546h150v-58q16 25 53 48t65 23q46 0 75.5 -16.5t43 -49t17.5 -64.5t4 -80v-349zM419 738l-170 -136l-168 130l66 91l104 -77l104 77z" />
    <glyph glyph-name="napostrophe" unicode="&#x149;" horiz-adv-x="502" 
d="M455 0h-149v338q0 35 -10.5 51.5t-35.5 16.5q-24 0 -63 -24v-382h-150v546h150v-58q16 25 53 48t65 23q46 0 75.5 -16.5t43 -49t17.5 -64.5t4 -80v-349zM17 645q0 -87 -45 -151h-103q26 60 26 119v122h122v-90z" />
    <glyph glyph-name="Eng" unicode="&#x14a;" horiz-adv-x="597" 
d="M541 0q0 -128 -40 -174t-131 -46q-47 0 -110 28l27 124q32 -10 61 -10q25 0 33.5 11.5t8.5 56.5v10h-9l-169 406l-7 16h-4l6 -123v-299h-151v707h163l173 -406h4l-6 123v283h151v-707z" />
    <glyph glyph-name="eng" unicode="&#x14b;" horiz-adv-x="502" 
d="M455 0q0 -128 -40 -174t-131 -46q-47 0 -110 28l28 124q32 -10 61 -10q25 0 34 11.5t9 56.5v351q0 35 -10.5 51.5t-35.5 16.5q-24 0 -63 -24v-385h-150v546h150v-55q16 25 53 48t65 23q46 0 75.5 -16.5t43 -49t17.5 -64.5t4 -80v-352z" />
    <glyph glyph-name="Omacron" unicode="&#x14c;" horiz-adv-x="630" 
d="M599 353q0 -178 -74 -271.5t-216 -93.5q-139 0 -208.5 95t-69.5 272q0 175 77.5 269t214.5 94q140 0 208 -97.5t68 -267.5zM445 354q0 112 -34.5 174t-100.5 62t-97 -64t-31 -170q0 -107 36.5 -171.5t100.5 -64.5q69 0 97.5 61.5t28.5 172.5zM444 765h-264v114h264v-114z
" />
    <glyph glyph-name="omacron" unicode="&#x14d;" horiz-adv-x="488" 
d="M460 273q0 -134 -61 -209.5t-161 -75.5q-102 0 -156 75.5t-54 204.5q0 133 58.5 212.5t159.5 79.5q109 0 161.5 -76t52.5 -211zM309 273q0 155 -66 155q-33 0 -49.5 -43.5t-16.5 -112.5q0 -151 68 -151q64 0 64 152zM379 641h-264v130h264v-130z" />
    <glyph glyph-name="Obreve" unicode="&#x14e;" horiz-adv-x="630" 
d="M599 353q0 -178 -74 -271.5t-216 -93.5q-139 0 -208.5 95t-69.5 272q0 175 77.5 269t214.5 94q140 0 208 -97.5t68 -267.5zM445 354q0 112 -34.5 174t-100.5 62t-97 -64t-31 -170q0 -107 36.5 -171.5t100.5 -64.5q69 0 97.5 61.5t28.5 172.5zM481 842q-22 -39 -66 -67
t-97 -28t-96 28.5t-64 68.5l70 63q44 -45 93 -45q45 0 90 42z" />
    <glyph glyph-name="obreve" unicode="&#x14f;" horiz-adv-x="488" 
d="M460 273q0 -134 -61 -209.5t-161 -75.5q-102 0 -156 75.5t-54 204.5q0 133 58.5 212.5t159.5 79.5q109 0 161.5 -76t52.5 -211zM309 273q0 155 -66 155q-33 0 -49.5 -43.5t-16.5 -112.5q0 -151 68 -151q64 0 64 152zM419 723q-23 -41 -70 -71.5t-106 -30.5
q-60 0 -107 30.5t-68 71.5l70 73q44 -50 108 -50q58 0 103 49z" />
    <glyph glyph-name="Ohungarumlaut" unicode="&#x150;" horiz-adv-x="630" 
d="M599 353q0 -178 -74 -271.5t-216 -93.5q-139 0 -208.5 95t-69.5 272q0 175 77.5 269t214.5 94q140 0 208 -97.5t68 -267.5zM445 354q0 112 -34.5 174t-100.5 62t-97 -64t-31 -170q0 -107 36.5 -171.5t100.5 -64.5q69 0 97.5 61.5t28.5 172.5zM551 783l-195 -46l-25 81
l186 73zM364 862l-160 -121l-56 62l140 145z" />
    <glyph glyph-name="ohungarumlaut" unicode="&#x151;" horiz-adv-x="488" 
d="M460 273q0 -134 -61 -209.5t-161 -75.5q-102 0 -156 75.5t-54 204.5q0 133 58.5 212.5t159.5 79.5q109 0 161.5 -76t52.5 -211zM309 273q0 155 -66 155q-33 0 -49.5 -43.5t-16.5 -112.5q0 -151 68 -151q64 0 64 152zM514 694l-190 -106l-52 80l179 132zM306 770
l-144 -171l-77 58l125 186z" />
    <glyph glyph-name="OE" unicode="&#x152;" horiz-adv-x="823" 
d="M789 0h-376v27q-47 -39 -124 -39q-117 0 -187.5 97t-70.5 270q0 171 76.5 267t195.5 96q68 0 110 -33v22h360v-133h-209v-157h194v-124h-194v-160h225v-133zM413 189v328q-34 67 -97 67q-66 0 -100 -65t-34 -163q0 -99 33 -166.5t95 -67.5q67 0 103 67z" />
    <glyph glyph-name="oe" unicode="&#x153;" horiz-adv-x="736" 
d="M708 222h-252q0 -95 94 -95q63 0 124 12l22 -123q-65 -25 -163 -25q-103 0 -156 49q-57 -52 -139 -52q-57 0 -99.5 24t-66 65.5t-34 89t-10.5 101.5q0 75 20 138.5t71 108.5t127 45q86 0 138 -50q52 49 140 49q184 0 184 -277v-60zM556 336q5 96 -42 96t-53 -96h95z
M309 273q0 155 -66 155q-33 0 -49.5 -43.5t-16.5 -112.5q0 -151 68 -151q64 0 64 152z" />
    <glyph glyph-name="Racute" unicode="&#x154;" horiz-adv-x="564" 
d="M572 106l-37 -119q-74 4 -132 49.5t-96 115.5l-50 92h-49v-244h-152v707h210q95 0 152.5 -60t57.5 -176q0 -55 -23.5 -102.5t-61.5 -76.5l56 -75q48 -64 125 -111zM320 467q0 106 -69 106h-43v-210h26q45 0 65.5 29t20.5 75zM406 785l-231 -44l-26 84l224 84z" />
    <glyph glyph-name="racute" unicode="&#x155;" horiz-adv-x="343" 
d="M348 548l-14 -149q-30 10 -63 10q-19 0 -41 -12t-33 -27v-370h-150v546h150v-73h6q23 84 79 84q18 0 34.5 -2.5t23.5 -4.5zM367 757l-190 -161l-73 76l168 186z" />
    <glyph glyph-name="Rcommaaccent" unicode="&#x156;" horiz-adv-x="564" 
d="M572 106l-37 -119q-74 4 -132 49.5t-96 115.5l-50 92h-49v-244h-152v707h210q95 0 152.5 -60t57.5 -176q0 -55 -23.5 -102.5t-61.5 -76.5l56 -75q48 -64 125 -111zM320 467q0 106 -69 106h-43v-210h26q45 0 65.5 29t20.5 75zM353 -58l-38 -189h-100l18 189h120z" />
    <glyph glyph-name="rcommaaccent" unicode="&#x157;" horiz-adv-x="343" 
d="M348 548l-14 -149q-30 10 -63 10q-19 0 -41 -12t-33 -27v-370h-150v546h150v-73h6q23 84 79 84q18 0 34.5 -2.5t23.5 -4.5zM173 -58l-38 -189h-100l18 189h120z" />
    <glyph glyph-name="Rcaron" unicode="&#x158;" horiz-adv-x="564" 
d="M572 106l-37 -119q-74 4 -132 49.5t-96 115.5l-50 92h-49v-244h-152v707h210q95 0 152.5 -60t57.5 -176q0 -55 -23.5 -102.5t-61.5 -76.5l56 -75q48 -64 125 -111zM320 467q0 106 -69 106h-43v-210h26q45 0 65.5 29t20.5 75zM379 826l-147 -95l-147 93l48 81l97 -57
l100 55z" />
    <glyph glyph-name="rcaron" unicode="&#x159;" horiz-adv-x="343" 
d="M348 548l-14 -149q-30 10 -63 10q-19 0 -41 -12t-33 -27v-370h-150v546h150v-73h6q23 84 79 84q18 0 34.5 -2.5t23.5 -4.5zM379 738l-170 -136l-168 130l66 91l104 -77l104 77z" />
    <glyph glyph-name="Sacute" unicode="&#x15a;" horiz-adv-x="455" 
d="M431 211q0 -107 -70 -164.5t-157 -57.5q-106 0 -188 59l43 117q77 -36 143 -36q39 0 57 26t18 54q0 23 -18 42.5t-45.5 33t-59 34t-59 43t-45.5 62.5t-18 91q0 92 64 145t136 53q50 0 87.5 -8.5t91.5 -36.5l-43 -114q-76 24 -125 24q-32 0 -46.5 -20t-14.5 -46
q0 -18 18.5 -36.5t46 -33t60 -36.5t60 -46.5t46 -63t18.5 -85.5zM384 785l-231 -44l-26 84l224 84z" />
    <glyph glyph-name="sacute" unicode="&#x15b;" horiz-adv-x="394" 
d="M370 172q0 -85 -52 -133.5t-137 -48.5q-91 0 -158 24l16 123q81 -15 131 -15q52 0 52 33q0 19 -20 35t-49 31t-57.5 33.5t-48.5 51.5t-20 76q0 80 49.5 128t129.5 48q72 0 146 -34l-24 -119q-74 21 -119 21q-34 0 -34 -29q0 -18 20 -33t48.5 -28.5t57.5 -32t49 -52
t20 -79.5zM361 757l-190 -161l-73 76l168 186z" />
    <glyph glyph-name="Scircumflex" unicode="&#x15c;" horiz-adv-x="455" 
d="M431 211q0 -107 -70 -164.5t-157 -57.5q-106 0 -188 59l43 117q77 -36 143 -36q39 0 57 26t18 54q0 23 -18 42.5t-45.5 33t-59 34t-59 43t-45.5 62.5t-18 91q0 92 64 145t136 53q50 0 87.5 -8.5t91.5 -36.5l-43 -114q-76 24 -125 24q-32 0 -46.5 -20t-14.5 -46
q0 -18 18.5 -36.5t46 -33t60 -36.5t60 -46.5t46 -63t18.5 -85.5zM87 820l147 95l147 -93l-48 -81l-97 57l-100 -55z" />
    <glyph glyph-name="scircumflex" unicode="&#x15d;" horiz-adv-x="394" 
d="M370 172q0 -85 -52 -133.5t-137 -48.5q-91 0 -158 24l16 123q81 -15 131 -15q52 0 52 33q0 19 -20 35t-49 31t-57.5 33.5t-48.5 51.5t-20 76q0 80 49.5 128t129.5 48q72 0 146 -34l-24 -119q-74 21 -119 21q-34 0 -34 -29q0 -18 20 -33t48.5 -28.5t57.5 -32t49 -52
t20 -79.5zM365 700l-66 -91l-104 77l-104 -77l-64 85l170 136z" />
    <glyph glyph-name="Scedilla" unicode="&#x15e;" horiz-adv-x="455" 
d="M431 211q0 -107 -70 -164.5t-157 -57.5q-106 0 -188 59l43 117q77 -36 143 -36q39 0 57 26t18 54q0 23 -18 42.5t-45.5 33t-59 34t-59 43t-45.5 62.5t-18 91q0 92 64 145t136 53q50 0 87.5 -8.5t91.5 -36.5l-43 -114q-76 24 -125 24q-32 0 -46.5 -20t-14.5 -46
q0 -18 18.5 -36.5t46 -33t60 -36.5t60 -46.5t46 -63t18.5 -85.5zM294 -137q0 -55 -39.5 -93t-94.5 -58l-52 112q23 10 40 25.5t17 30.5q0 10 -2 21.5t-5.5 26t-4.5 21.5h121q20 -56 20 -86z" />
    <glyph glyph-name="scedilla" unicode="&#x15f;" horiz-adv-x="394" 
d="M370 172q0 -85 -52 -133.5t-137 -48.5q-91 0 -158 24l16 123q81 -15 131 -15q52 0 52 33q0 19 -20 35t-49 31t-57.5 33.5t-48.5 51.5t-20 76q0 80 49.5 128t129.5 48q72 0 146 -34l-24 -119q-74 21 -119 21q-34 0 -34 -29q0 -18 20 -33t48.5 -28.5t57.5 -32t49 -52
t20 -79.5zM268 -137q0 -55 -39.5 -93t-94.5 -58l-52 112q23 10 40 25.5t17 30.5q0 10 -2 21.5t-5.5 26t-4.5 21.5h121q20 -56 20 -86z" />
    <glyph glyph-name="Scaron" unicode="&#x160;" horiz-adv-x="455" 
d="M431 211q0 -107 -70 -164.5t-157 -57.5q-106 0 -188 59l43 117q77 -36 143 -36q39 0 57 26t18 54q0 23 -18 42.5t-45.5 33t-59 34t-59 43t-45.5 62.5t-18 91q0 92 64 145t136 53q50 0 87.5 -8.5t91.5 -36.5l-43 -114q-76 24 -125 24q-32 0 -46.5 -20t-14.5 -46
q0 -18 18.5 -36.5t46 -33t60 -36.5t60 -46.5t46 -63t18.5 -85.5zM370 826l-147 -95l-147 93l48 81l97 -57l100 55z" />
    <glyph glyph-name="scaron" unicode="&#x161;" horiz-adv-x="394" 
d="M370 172q0 -85 -52 -133.5t-137 -48.5q-91 0 -158 24l16 123q81 -15 131 -15q52 0 52 33q0 19 -20 35t-49 31t-57.5 33.5t-48.5 51.5t-20 76q0 80 49.5 128t129.5 48q72 0 146 -34l-24 -119q-74 21 -119 21q-34 0 -34 -29q0 -18 20 -33t48.5 -28.5t57.5 -32t49 -52
t20 -79.5zM368 738l-170 -136l-168 130l66 91l104 -77l104 77z" />
    <glyph glyph-name="Tcommaaccent" unicode="&#x162;" horiz-adv-x="478" 
d="M472 574h-157v-574h-152v574h-157v133h466v-133zM296 -58l-38 -189h-100l18 189h120z" />
    <glyph glyph-name="tcommaaccent" unicode="&#x163;" horiz-adv-x="362" 
d="M351 11q-62 -22 -112 -22q-104 0 -140.5 39t-36.5 149v246h-56v123h56v112h149v-112h120v-123h-120v-245q0 -50 34 -50l92 8zM268 -58l-38 -189h-100l18 189h120z" />
    <glyph glyph-name="Tcaron" unicode="&#x164;" horiz-adv-x="478" 
d="M472 574h-157v-574h-152v574h-157v133h466v-133zM380 826l-147 -95l-147 93l48 81l97 -57l100 55z" />
    <glyph glyph-name="tcaron" unicode="&#x165;" horiz-adv-x="362" 
d="M351 11q-62 -22 -112 -22q-104 0 -140.5 39t-36.5 149v246h-56v123h56v112h149v-112h120v-123h-120v-245q0 -50 34 -50l92 8zM405 829l-38 -189h-100l18 189h120z" />
    <glyph glyph-name="Tbar" unicode="&#x166;" horiz-adv-x="478" 
d="M472 574h-157v-174h109v-100h-109v-300h-152v300h-104v100h104v174h-157v133h466v-133z" />
    <glyph glyph-name="tbar" unicode="&#x167;" horiz-adv-x="362" 
d="M351 11q-62 -22 -112 -22q-104 0 -140.5 39t-36.5 149v66h-55v100h55v80h-56v123h56v112h149v-112h120v-123h-120v-80h108v-100h-108v-65q0 -50 34 -50l92 8z" />
    <glyph glyph-name="Utilde" unicode="&#x168;" horiz-adv-x="598" 
d="M547 294q0 -89 -21 -151.5t-58 -95t-77.5 -46.5t-89.5 -14q-50 0 -91 12.5t-78.5 42.5t-58.5 88t-21 141v436h152v-442q0 -146 97 -146q96 0 96 166v422h150v-413zM470 813q-40 -57 -101 -57q-22 0 -64 13t-65 13t-45 -19l-54 60q31 37 57.5 52t65.5 15q22 0 57.5 -14
t47.5 -14q19 0 55 22z" />
    <glyph glyph-name="utilde" unicode="&#x169;" horiz-adv-x="502" 
d="M455 0h-150v55q-16 -24 -53 -46t-65 -22q-46 0 -75.5 16.5t-43 49t-17.5 64.5t-4 80v349h149v-348q0 -35 10.5 -51.5t35.5 -16.5q29 0 63 21v395h150v-546zM431 710q-25 -27 -39.5 -39.5t-39 -23.5t-53.5 -11q-19 0 -54 15.5t-50 15.5q-28 0 -54 -22l-56 68
q33 38 63 56.5t73 18.5q23 0 52 -15t37 -15q34 0 73 20z" />
    <glyph glyph-name="Umacron" unicode="&#x16a;" horiz-adv-x="598" 
d="M547 294q0 -89 -21 -151.5t-58 -95t-77.5 -46.5t-89.5 -14q-50 0 -91 12.5t-78.5 42.5t-58.5 88t-21 141v436h152v-442q0 -146 97 -146q96 0 96 166v422h150v-413zM436 765h-264v114h264v-114z" />
    <glyph glyph-name="umacron" unicode="&#x16b;" horiz-adv-x="502" 
d="M455 0h-150v55q-16 -24 -53 -46t-65 -22q-46 0 -75.5 16.5t-43 49t-17.5 64.5t-4 80v349h149v-348q0 -35 10.5 -51.5t35.5 -16.5q29 0 63 21v395h150v-546zM389 665h-264v130h264v-130z" />
    <glyph glyph-name="Ubreve" unicode="&#x16c;" horiz-adv-x="598" 
d="M547 294q0 -89 -21 -151.5t-58 -95t-77.5 -46.5t-89.5 -14q-50 0 -91 12.5t-78.5 42.5t-58.5 88t-21 141v436h152v-442q0 -146 97 -146q96 0 96 166v422h150v-413zM462 842q-22 -39 -66 -67t-97 -28t-96 28.5t-64 68.5l70 63q44 -45 93 -45q45 0 90 42z" />
    <glyph glyph-name="ubreve" unicode="&#x16d;" horiz-adv-x="502" 
d="M455 0h-150v55q-16 -24 -53 -46t-65 -22q-46 0 -75.5 16.5t-43 49t-17.5 64.5t-4 80v349h149v-348q0 -35 10.5 -51.5t35.5 -16.5q29 0 63 21v395h150v-546zM425 723q-23 -41 -70 -71.5t-106 -30.5q-60 0 -107 30.5t-68 71.5l70 73q44 -50 108 -50q58 0 103 49z" />
    <glyph glyph-name="Uring" unicode="&#x16e;" horiz-adv-x="598" 
d="M547 294q0 -89 -21 -151.5t-58 -95t-77.5 -46.5t-89.5 -14q-50 0 -91 12.5t-78.5 42.5t-58.5 88t-21 141v436h152v-442q0 -146 97 -146q96 0 96 166v422h150v-413zM415 836q0 -46 -31.5 -74.5t-78.5 -28.5t-80 25.5t-33 75.5q0 48 33 78.5t78 30.5q41 0 76.5 -28
t35.5 -79zM340 835q0 15 -10.5 25t-26.5 10q-36 0 -36 -33q0 -35 37 -35q36 0 36 33z" />
    <glyph glyph-name="uring" unicode="&#x16f;" horiz-adv-x="502" 
d="M455 0h-150v55q-16 -24 -53 -46t-65 -22q-46 0 -75.5 16.5t-43 49t-17.5 64.5t-4 80v349h149v-348q0 -35 10.5 -51.5t35.5 -16.5q29 0 63 21v395h150v-546zM373 716q0 -46 -31.5 -74.5t-78.5 -28.5t-80 25.5t-33 75.5q0 48 33 78.5t78 30.5q41 0 76.5 -28t35.5 -79z
M298 715q0 15 -10.5 25t-26.5 10q-36 0 -36 -33q0 -35 37 -35q36 0 36 33z" />
    <glyph glyph-name="Uhungarumlaut" unicode="&#x170;" horiz-adv-x="598" 
d="M547 294q0 -89 -21 -151.5t-58 -95t-77.5 -46.5t-89.5 -14q-50 0 -91 12.5t-78.5 42.5t-58.5 88t-21 141v436h152v-442q0 -146 97 -146q96 0 96 166v422h150v-413zM516 783l-195 -46l-25 81l186 73zM329 862l-160 -121l-56 62l140 145z" />
    <glyph glyph-name="uhungarumlaut" unicode="&#x171;" horiz-adv-x="502" 
d="M455 0h-150v55q-16 -24 -53 -46t-65 -22q-46 0 -75.5 16.5t-43 49t-17.5 64.5t-4 80v349h149v-348q0 -35 10.5 -51.5t35.5 -16.5q29 0 63 21v395h150v-546zM515 694l-190 -106l-52 80l179 132zM307 770l-144 -171l-77 58l125 186z" />
    <glyph glyph-name="Uogonek" unicode="&#x172;" horiz-adv-x="598" 
d="M376 -129l23 -100q-49 -26 -113 -26q-131 0 -131 115q0 66 81 133q-184 33 -184 278v436h152v-442q0 -146 97 -146q96 0 96 166v422h150v-413q0 -245 -161 -295q-41 -19 -69.5 -50t-28.5 -59q0 -13 10 -21.5t25 -8.5q23 0 53 11z" />
    <glyph glyph-name="uogonek" unicode="&#x173;" horiz-adv-x="502" 
d="M455 546v-546q-42 -19 -71 -50.5t-29 -59.5q0 -13 10 -21.5t25 -8.5q23 0 53 11l23 -100q-49 -26 -113 -26q-131 0 -131 115q0 56 58 112l25 22v61q-16 -25 -53 -48t-65 -23q-46 0 -75.5 16.5t-43 49t-17.5 64.5t-4 80v352h149v-351q0 -35 10.5 -51.5t35.5 -16.5
q24 0 63 24v395h150z" />
    <glyph glyph-name="Wcircumflex" unicode="&#x174;" horiz-adv-x="785" 
d="M778 707l-145 -707h-176l-58 254l-15 102h-4l-15 -100l-64 -256h-181l-113 707h150l56 -437l10 -153h6l23 156l70 255l-48 179h152l97 -440l18 -142h6l11 152l75 430h145zM217 810l147 95l147 -93l-48 -81l-97 57l-100 -55z" />
    <glyph glyph-name="wcircumflex" unicode="&#x175;" horiz-adv-x="672" 
d="M670 546l-123 -546h-169l-37 311l-4 101h-6l-8 -101l-44 -311h-171l-106 546h156l32 -311l6 -101h6l6 101l45 311h167l39 -311l5 -101h6l7 101l41 311h152zM507 700l-66 -91l-104 77l-104 -77l-64 85l170 136z" />
    <glyph glyph-name="Ycircumflex" unicode="&#x176;" horiz-adv-x="533" 
d="M542 707l-205 -472v-235h-151v229l-195 478h174l74 -229l24 -108h4l24 103l82 234h169zM121 810l147 95l147 -93l-48 -81l-97 57l-100 -55z" />
    <glyph glyph-name="ycircumflex" unicode="&#x177;" horiz-adv-x="469" 
d="M468 546l-199 -766h-145l60 220h-33l-150 546h159l66 -322l7 -91h4l7 91l72 322h152zM408 700l-66 -91l-104 77l-104 -77l-64 85l170 136z" />
    <glyph glyph-name="Ydieresis" unicode="&#x178;" horiz-adv-x="533" 
d="M542 707l-205 -472v-235h-151v229l-195 478h174l74 -229l24 -108h4l24 103l82 234h169zM442 831l-81 -83l-82 83l82 82zM253 831l-82 -83l-81 83l81 82z" />
    <glyph glyph-name="Zacute" unicode="&#x179;" horiz-adv-x="464" 
d="M445 0h-426v128l241 438h-222v141h391v-123l-241 -443h257v-141zM372 785l-231 -44l-26 84l224 84z" />
    <glyph glyph-name="zacute" unicode="&#x17a;" horiz-adv-x="409" 
d="M382 0h-354v123l182 289h-172v134h341v-120l-180 -294h183v-132zM361 757l-190 -161l-73 76l168 186z" />
    <glyph glyph-name="Zdotaccent" unicode="&#x17b;" horiz-adv-x="464" 
d="M445 0h-426v128l241 438h-222v141h391v-123l-241 -443h257v-141zM322 831l-82 -83l-81 83l81 82z" />
    <glyph glyph-name="zdotaccent" unicode="&#x17c;" horiz-adv-x="409" 
d="M382 0h-354v123l182 289h-172v134h341v-120l-180 -294h183v-132zM308 728l-93 -94l-93 94l93 93z" />
    <glyph glyph-name="Zcaron" unicode="&#x17d;" horiz-adv-x="464" 
d="M445 0h-426v128l241 438h-222v141h391v-123l-241 -443h257v-141zM377 826l-147 -95l-147 93l48 81l97 -57l100 55z" />
    <glyph glyph-name="zcaron" unicode="&#x17e;" horiz-adv-x="409" 
d="M382 0h-354v123l182 289h-172v134h341v-120l-180 -294h183v-132zM380 738l-170 -136l-168 130l66 91l104 -77l104 77z" />
    <glyph glyph-name="uni018F" unicode="&#x18f;" horiz-adv-x="656" 
d="M318 -12q-142 0 -214.5 91.5t-75.5 258.5v74h442q-10 79 -52.5 125.5t-113.5 46.5q-53 0 -93.5 -12t-88.5 -45l-53 110q58 46 118.5 63.5t136.5 17.5q139 -1 218.5 -102t79.5 -263q0 -170 -80 -267.5t-224 -97.5zM320 122q74 0 107 44.5t43 129.5h-291q11 -84 42.5 -129
t98.5 -45z" />
    <glyph glyph-name="florin" unicode="&#x192;" horiz-adv-x="468" 
d="M434 480q-84 -5 -105 -21q-23 -16 -23 -61v-44h90v-134h-90v-52q0 -60 -15 -103.5t-37.5 -68t-58.5 -38.5t-69.5 -18t-79.5 -4l-12 138q93 12 109 29q14 14 14 56v61h-80v134h80v35q0 60 15.5 104t39 68.5t60.5 38.5t71 18t80 4z" />
    <glyph glyph-name="uni01D3" unicode="&#x1d3;" horiz-adv-x="598" 
d="M547 294q0 -89 -21 -151.5t-58 -95t-77.5 -46.5t-89.5 -14q-50 0 -91 12.5t-78.5 42.5t-58.5 88t-21 141v436h152v-442q0 -146 97 -146q96 0 96 166v422h150v-413zM443 826l-147 -95l-147 93l48 81l97 -57l100 55z" />
    <glyph glyph-name="uni01D4" unicode="&#x1d4;" horiz-adv-x="502" 
d="M455 0h-150v55q-16 -24 -53 -46t-65 -22q-46 0 -75.5 16.5t-43 49t-17.5 64.5t-4 80v349h149v-348q0 -35 10.5 -51.5t35.5 -16.5q29 0 63 21v395h150v-546zM416 738l-170 -136l-168 130l66 91l104 -77l104 77z" />
    <glyph glyph-name="AEmacron" unicode="&#x1e2;" horiz-adv-x="741" 
d="M707 0h-376v209h-118l-58 -209h-153l203 707h486v-133h-209v-157h194v-124h-194v-160h225v-133zM331 331v252h-31l-60 -252h91zM574 765h-264v114h264v-114z" />
    <glyph glyph-name="aemacron" unicode="&#x1e3;" horiz-adv-x="687" 
d="M659 229l-252 -7q0 -95 94 -95q63 0 124 12l22 -123q-65 -25 -163 -25q-124 0 -176 72q-53 -71 -132 -71q-70 0 -109 45.5t-39 123.5q0 48 23 80.5t60.5 47.5t70.5 20.5t69 5.5h10v53q0 26 -12.5 38t-43.5 12q-41 0 -127 -27l-28 121q97 47 173 47q95 0 133 -32
q48 32 119 32q184 0 184 -277v-53zM479 641h-264v130h264v-130zM507 333q2 43 -8 71t-34 28q-46 0 -53 -111zM272 142l-6 26q-4 29 -5 50q-5 0 -21.5 -0.5t-22.5 -1t-17.5 -3.5t-16 -8.5t-8.5 -15.5t-4 -25q0 -21 9 -31.5t33 -10.5q19 0 59 20z" />
    <glyph glyph-name="AEacute" unicode="&#x1fc;" horiz-adv-x="741" 
d="M707 0h-376v209h-118l-58 -209h-153l203 707h486v-133h-209v-157h194v-124h-194v-160h225v-133zM331 331v252h-31l-60 -252h91zM590 785l-231 -44l-26 84l224 84z" />
    <glyph glyph-name="aeacute" unicode="&#x1fd;" horiz-adv-x="687" 
d="M659 229l-252 -7q0 -95 94 -95q63 0 124 12l22 -123q-65 -25 -163 -25q-124 0 -176 72q-53 -71 -132 -71q-70 0 -109 45.5t-39 123.5q0 48 23 80.5t60.5 47.5t70.5 20.5t69 5.5h10v53q0 26 -12.5 38t-43.5 12q-41 0 -127 -27l-28 121q97 47 173 47q95 0 133 -32
q48 32 119 32q184 0 184 -277v-53zM525 757l-190 -161l-73 76l168 186zM507 333q2 43 -8 71t-34 28q-46 0 -53 -111zM272 142l-6 26q-4 29 -5 50q-5 0 -21.5 -0.5t-22.5 -1t-17.5 -3.5t-16 -8.5t-8.5 -15.5t-4 -25q0 -21 9 -31.5t33 -10.5q19 0 59 20z" />
    <glyph glyph-name="Oslashacute" unicode="&#x1fe;" horiz-adv-x="630" 
d="M633 658l-73 -87q39 -88 39 -218q0 -175 -74.5 -270t-215.5 -95q-107 0 -174 61l-53 -62l-71 62l65 77q-45 91 -45 229q0 175 77.5 269t214.5 94q113 0 182 -67l55 66zM406 530q-38 60 -90 60q-67 0 -100.5 -62.5t-33.5 -171.5q0 -45 8 -90zM445 354q0 33 -5 71
l-210 -259q34 -47 80 -47q135 0 135 235zM470 785l-231 -44l-26 84l224 84z" />
    <glyph glyph-name="oslashacute" unicode="&#x1ff;" horiz-adv-x="488" 
d="M492 530l-65 -80q33 -70 33 -177q0 -134 -61 -209.5t-161 -75.5q-88 0 -141 58l-54 -66l-47 38l65 80q-33 69 -33 170q0 133 58.5 212.5t159.5 79.5q94 0 146 -57l53 65zM295 384q-18 44 -52 44q-33 0 -49.5 -43.5t-16.5 -112.5q0 -21 1 -31zM309 273q0 22 -1 32
l-115 -142q18 -42 52 -42q64 0 64 152zM409 757l-190 -161l-73 76l168 186z" />
    <glyph glyph-name="Scommaaccent" unicode="&#x218;" horiz-adv-x="455" 
d="M431 211q0 -107 -70 -164.5t-157 -57.5q-106 0 -188 59l43 117q77 -36 143 -36q39 0 57 26t18 54q0 23 -18 42.5t-45.5 33t-59 34t-59 43t-45.5 62.5t-18 91q0 92 64 145t136 53q50 0 87.5 -8.5t91.5 -36.5l-43 -114q-76 24 -125 24q-32 0 -46.5 -20t-14.5 -46
q0 -18 18.5 -36.5t46 -33t60 -36.5t60 -46.5t46 -63t18.5 -85.5zM283 -58l-38 -189h-100l18 189h120z" />
    <glyph glyph-name="scommaaccent" unicode="&#x219;" horiz-adv-x="394" 
d="M370 172q0 -85 -52 -133.5t-137 -48.5q-91 0 -158 24l16 123q81 -15 131 -15q52 0 52 33q0 19 -20 35t-49 31t-57.5 33.5t-48.5 51.5t-20 76q0 80 49.5 128t129.5 48q72 0 146 -34l-24 -119q-74 21 -119 21q-34 0 -34 -29q0 -18 20 -33t48.5 -28.5t57.5 -32t49 -52
t20 -79.5zM261 -58l-38 -189h-100l18 189h120z" />
    <glyph glyph-name="uni021A" unicode="&#x21a;" horiz-adv-x="478" 
d="M472 574h-157v-574h-152v574h-157v133h466v-133zM292 -58l-38 -189h-100l18 189h120z" />
    <glyph glyph-name="uni021B" unicode="&#x21b;" horiz-adv-x="362" 
d="M351 11q-62 -22 -112 -22q-104 0 -140.5 39t-36.5 149v246h-56v123h56v112h149v-112h120v-123h-120v-245q0 -50 34 -50l92 8zM267 -58l-38 -189h-100l18 189h120z" />
    <glyph glyph-name="Ymacron" unicode="&#x232;" horiz-adv-x="533" 
d="M542 707l-205 -472v-235h-151v229l-195 478h174l74 -229l24 -108h4l24 103l82 234h169zM401 765h-264v114h264v-114z" />
    <glyph glyph-name="ymacron" unicode="&#x233;" horiz-adv-x="469" 
d="M468 546l-199 -766h-145l60 220h-33l-150 546h159l66 -322l7 -91h4l7 91l72 322h152zM367 641h-264v130h264v-130z" />
    <glyph glyph-name="schwa" unicode="&#x259;" horiz-adv-x="455" 
d="M28 326h252q0 95 -94 95q-63 0 -124 -12l-22 123q65 25 163 25q110 0 167 -61t57 -213t-57 -223t-158 -71q-184 0 -184 277v60zM180 212q-5 -96 42 -96t53 96h-95z" />
    <glyph glyph-name="h.superior" unicode="&#x2b0;" horiz-adv-x="340" 
d="M34 415v498h95v-174q44 47 83 47q59 0 81 -38t22 -107v-226h-89v223q0 35 -9.5 46.5t-31.5 11.5q-27 0 -56 -20v-261h-95z" />
    <glyph glyph-name="j.superior" unicode="&#x2b2;" horiz-adv-x="156" 
d="M7 271q-33 0 -63 15l15 80q30 -7 46 -7q17 0 23.5 11t6.5 43v363h94v-359q0 -45 -10.5 -75.5t-29.5 -45t-38 -20t-44 -5.5zM81 815l-73 74l73 73l74 -73z" />
    <glyph glyph-name="r.superior" unicode="&#x2b3;" horiz-adv-x="231" 
d="M34 416v360h95v-48q32 56 70 56q19 0 37 -6l-11 -91q-16 4 -36 4q-17 0 -34 -9t-26 -22v-244h-95z" />
    <glyph glyph-name="w.superior" unicode="&#x2b7;" horiz-adv-x="477" 
d="M74 416l-70 360h94l35 -276l49 276h113l42 -276l45 276h91l-80 -360h-116l-41 263l-45 -263h-117z" />
    <glyph glyph-name="y.superior" unicode="&#x2b8;" horiz-adv-x="320" 
d="M98 271l36 145h-37l-93 360h96l58 -277l67 277h91l-132 -505h-86z" />
    <glyph glyph-name="circumflex" unicode="&#x2c6;" horiz-adv-x="426" 
d="M384 700l-66 -91l-104 77l-104 -77l-64 85l170 136z" />
    <glyph glyph-name="caron" unicode="&#x2c7;" horiz-adv-x="426" 
d="M384 738l-170 -136l-168 130l66 91l104 -77l104 77z" />
    <glyph glyph-name="breve" unicode="&#x2d8;" horiz-adv-x="428" 
d="M389 723q-23 -41 -70 -71.5t-106 -30.5q-60 0 -107 30.5t-68 71.5l70 73q44 -50 108 -50q58 0 103 49z" />
    <glyph glyph-name="dotaccent" unicode="&#x2d9;" horiz-adv-x="238" 
d="M212 728l-93 -94l-93 94l93 93z" />
    <glyph glyph-name="ring" unicode="&#x2da;" horiz-adv-x="463" 
d="M343 716q0 -46 -31.5 -74.5t-78.5 -28.5t-80 25.5t-33 75.5q0 48 33 78.5t78 30.5q41 0 76.5 -28t35.5 -79zM268 715q0 15 -10.5 25t-26.5 10q-36 0 -36 -33q0 -35 37 -35q36 0 36 33z" />
    <glyph glyph-name="ogonek" unicode="&#x2db;" horiz-adv-x="482" 
d="M421 -105l22 -90q-49 -26 -103 -26q-124 0 -124 126q0 20 5 38t18.5 35.5l23 29t31.5 28l29.5 22t33.5 21.5t27 17l46 -75l-36 -24t-28.5 -23t-26 -31t-7.5 -32q0 -12 9 -19.5t19 -7.5q31 0 61 11z" />
    <glyph glyph-name="tilde" unicode="&#x2dc;" horiz-adv-x="425" 
d="M395 710q-25 -27 -39.5 -39.5t-39 -23.5t-53.5 -11q-19 0 -54 15.5t-50 15.5q-28 0 -54 -22l-56 68q33 38 63 56.5t73 18.5q23 0 52 -15t37 -15q34 0 73 20z" />
    <glyph glyph-name="hungarumlaut" unicode="&#x2dd;" horiz-adv-x="534" 
d="M472 694l-190 -106l-52 80l179 132zM264 770l-144 -171l-77 58l125 186z" />
    <glyph glyph-name="x.superior" unicode="&#x2e3;" horiz-adv-x="332" 
d="M4 416l108 184l-101 176h103l52 -115l52 115h102l-100 -176l108 -184h-106l-56 123l-57 -123h-105z" />
    <glyph glyph-name="Sigma" unicode="&#x3a3;" horiz-adv-x="439" 
d="M418 0h-396v128l122 225l-123 226v128h396v-133h-223l119 -222l-118 -220h223v-132z" />
    <glyph glyph-name="alpha" unicode="&#x3b1;" horiz-adv-x="503" 
d="M186 -12q-74 0 -115.5 70.5t-41.5 195.5q0 152 49 229t136 77q30 0 56.5 -18.5t37.5 -49.5h5v54h120v-391q0 -20 9.5 -26.5t33.5 -6.5l-5 -126q-33 0 -56 3t-47 12.5t-37.5 30t-17.5 52.5h-4q-39 -106 -123 -106zM223 127q26 0 47.5 39.5t21.5 96.5v92q-21 77 -59 77
q-59 0 -59 -168q0 -137 49 -137z" />
    <glyph glyph-name="beta" unicode="&#x3b2;" horiz-adv-x="503" 
d="M51 -220v735q0 121 52 190.5t144 69.5q86 0 139 -58.5t53 -145.5q0 -52 -20.5 -98t-53.5 -69v-4q106 -57 106 -170q0 -119 -51.5 -180.5t-135.5 -61.5q-61 0 -89 34v-242h-144zM260 121q65 0 65 108q0 52 -26 80t-66 30v103q29 4 46 36.5t17 71.5q0 43 -13.5 68t-35.5 25
q-52 0 -52 -107v-397q18 -18 65 -18z" />
    <glyph glyph-name="gamma" unicode="&#x3b3;" horiz-adv-x="473" 
d="M167 -220q-8 63 -8 130q0 31 4 105q-53 278 -155 531h162q47 -127 91 -371h6q37 170 42 371h166q-2 -62 -18 -136t-47 -158t-51.5 -133.5l-55.5 -129.5q13 -78 13 -150q0 -19 -2 -59h-147z" />
    <glyph glyph-name="delta" unicode="&#x3b4;" horiz-adv-x="478" 
d="M238 -12q-103 0 -156.5 70.5t-53.5 197.5q0 72 28.5 132.5t72.5 97.5q-58 52 -58 118q0 48 17.5 83.5t46 53.5t57.5 26t58 8q109 0 191 -36l-24 -129q-4 1 -24 8t-25.5 8.5l-22 6t-26 6t-24.5 3t-30 1.5q-45 0 -45 -39q0 -11 8 -21.5t17 -17.5t29.5 -21.5l31.5 -22.5
l42.5 -33t39.5 -37.5t38.5 -50t23 -60.5t10.5 -79q0 -133 -60.5 -203t-161.5 -70zM245 121q36 0 52 31.5t16 97.5q0 50 -23 86.5t-66 73.5q-51 -66 -51 -158q0 -131 72 -131z" />
    <glyph glyph-name="pi" unicode="&#x3c0;" horiz-adv-x="538" 
d="M444 -12q-133 0 -133 155v274h-103v-417h-150v417h-58v129h521v-129h-60v-260q0 -39 46 -43q13 0 20 1l8 -114q-35 -13 -91 -13z" />
    <glyph glyph-name="omega" unicode="&#x3c9;" horiz-adv-x="659" 
d="M195 -12q-82 0 -124.5 69t-42.5 180q0 166 101 309h152q-107 -139 -107 -288q0 -137 42 -137q21 0 33 30.5t12 81.5v126h137v-126q0 -51 12 -81.5t33 -30.5q42 0 42 137q0 149 -107 288h152q101 -143 101 -309q0 -111 -42.5 -180t-124.5 -69q-38 0 -77 22.5t-58 63.5
q-19 -41 -57.5 -63.5t-76.5 -22.5z" />
    <glyph glyph-name="i.inferior" unicode="&#x1d62;" horiz-adv-x="164" 
d="M35 0v360h94v-360h-94zM81 399l-73 74l73 73l74 -73z" />
    <glyph glyph-name="r.inferior" unicode="&#x1d63;" horiz-adv-x="231" 
d="M34 0v360h95v-48q32 56 70 56q19 0 37 -6l-11 -91q-16 4 -36 4q-17 0 -34 -9t-26 -22v-244h-95z" />
    <glyph glyph-name="u.inferior" unicode="&#x1d64;" horiz-adv-x="344" 
d="M132 -8q-59 0 -81 37.5t-22 107.5v223h94v-219q0 -36 7.5 -47t29.5 -11q27 0 55 18v259h95v-360h-95v37q-45 -45 -83 -45z" />
    <glyph glyph-name="v.inferior" unicode="&#x1d65;" horiz-adv-x="323" 
d="M109 0l-105 360h92l64 -262l69 262h91l-113 -360h-98z" />
    <glyph glyph-name="uni1E46" unicode="&#x1e46;" horiz-adv-x="597" 
d="M541 0h-149l-187 422h-4l6 -124v-298h-151v707h163l173 -407h4l-6 124v283h151v-707zM401 -148l-93 -94l-93 94l93 93z" />
    <glyph glyph-name="uni1E47" unicode="&#x1e47;" horiz-adv-x="502" 
d="M455 0h-149v338q0 35 -10.5 51.5t-35.5 16.5q-24 0 -63 -24v-382h-150v546h150v-58q16 25 53 48t65 23q46 0 75.5 -16.5t43 -49t17.5 -64.5t4 -80v-349zM345 -158l-93 -94l-93 94l93 93z" />
    <glyph glyph-name="uni1E62" unicode="&#x1e62;" horiz-adv-x="455" 
d="M431 211q0 -107 -70 -164.5t-157 -57.5q-106 0 -188 59l43 117q77 -36 143 -36q39 0 57 26t18 54q0 23 -18 42.5t-45.5 33t-59 34t-59 43t-45.5 62.5t-18 91q0 92 64 145t136 53q50 0 87.5 -8.5t91.5 -36.5l-43 -114q-76 24 -125 24q-32 0 -46.5 -20t-14.5 -46
q0 -18 18.5 -36.5t46 -33t60 -36.5t60 -46.5t46 -63t18.5 -85.5zM310 -149l-93 -94l-93 94l93 93z" />
    <glyph glyph-name="uni1E63" unicode="&#x1e63;" horiz-adv-x="394" 
d="M370 172q0 -85 -52 -133.5t-137 -48.5q-91 0 -158 24l16 123q81 -15 131 -15q52 0 52 33q0 19 -20 35t-49 31t-57.5 33.5t-48.5 51.5t-20 76q0 80 49.5 128t129.5 48q72 0 146 -34l-24 -119q-74 21 -119 21q-34 0 -34 -29q0 -18 20 -33t48.5 -28.5t57.5 -32t49 -52
t20 -79.5zM275 -146l-93 -94l-93 94l93 93z" />
    <glyph glyph-name="Wgrave" unicode="&#x1e80;" horiz-adv-x="785" 
d="M778 707l-145 -707h-176l-58 254l-15 102h-4l-15 -100l-64 -256h-181l-113 707h150l56 -437l10 -153h6l23 156l70 255l-48 179h152l97 -440l18 -142h6l11 152l75 430h145zM453 741l-231 44l33 124l224 -84z" />
    <glyph glyph-name="wgrave" unicode="&#x1e81;" horiz-adv-x="672" 
d="M670 546l-123 -546h-169l-37 311l-4 101h-6l-8 -101l-44 -311h-171l-106 546h156l32 -311l6 -101h6l6 101l45 311h167l39 -311l5 -101h6l7 101l41 311h152zM430 672l-73 -76l-190 161l95 101z" />
    <glyph glyph-name="Wacute" unicode="&#x1e82;" horiz-adv-x="785" 
d="M778 707l-145 -707h-176l-58 254l-15 102h-4l-15 -100l-64 -256h-181l-113 707h150l56 -437l10 -153h6l23 156l70 255l-48 179h152l97 -440l18 -142h6l11 152l75 430h145zM525 785l-231 -44l-26 84l224 84z" />
    <glyph glyph-name="wacute" unicode="&#x1e83;" horiz-adv-x="672" 
d="M670 546l-123 -546h-169l-37 311l-4 101h-6l-8 -101l-44 -311h-171l-106 546h156l32 -311l6 -101h6l6 101l45 311h167l39 -311l5 -101h6l7 101l41 311h152zM504 757l-190 -161l-73 76l168 186z" />
    <glyph glyph-name="Wdieresis" unicode="&#x1e84;" horiz-adv-x="785" 
d="M778 707l-145 -707h-176l-58 254l-15 102h-4l-15 -100l-64 -256h-181l-113 707h150l56 -437l10 -153h6l23 156l70 255l-48 179h152l97 -440l18 -142h6l11 152l75 430h145zM552 831l-81 -83l-82 83l82 82zM363 831l-82 -83l-81 83l81 82z" />
    <glyph glyph-name="wdieresis" unicode="&#x1e85;" horiz-adv-x="672" 
d="M670 546l-123 -546h-169l-37 311l-4 101h-6l-8 -101l-44 -311h-171l-106 546h156l32 -311l6 -101h6l6 101l45 311h167l39 -311l5 -101h6l7 101l41 311h152zM512 728l-82 -83l-82 83l82 82zM318 728l-82 -83l-82 83l82 82z" />
    <glyph glyph-name="uni1EBC" unicode="&#x1ebc;" horiz-adv-x="466" 
d="M432 0h-376v707h360v-133h-209v-157h194v-124h-194v-160h225v-133zM412 813q-40 -57 -101 -57q-22 0 -64 13t-65 13t-45 -19l-54 60q31 37 57.5 52t65.5 15q22 0 57.5 -14t47.5 -14q19 0 55 22z" />
    <glyph glyph-name="uni1EBD" unicode="&#x1ebd;" horiz-adv-x="455" 
d="M427 222h-252q0 -95 94 -95q63 0 124 12l22 -123q-65 -25 -163 -25q-110 0 -167 61t-57 213t57 223t158 71q184 0 184 -277v-60zM275 336q5 96 -42 96t-53 -96h95zM419 710q-25 -27 -39.5 -39.5t-39 -23.5t-53.5 -11q-19 0 -54 15.5t-50 15.5q-28 0 -54 -22l-56 68
q33 38 63 56.5t73 18.5q23 0 52 -15t37 -15q34 0 73 20z" />
    <glyph glyph-name="Ygrave" unicode="&#x1ef2;" horiz-adv-x="533" 
d="M542 707l-205 -472v-235h-151v229l-195 478h174l74 -229l24 -108h4l24 103l82 234h169zM318 741l-231 44l33 124l224 -84z" />
    <glyph glyph-name="ygrave" unicode="&#x1ef3;" horiz-adv-x="469" 
d="M468 546l-199 -766h-145l60 220h-33l-150 546h159l66 -322l7 -91h4l7 91l72 322h152zM324 672l-73 -76l-190 161l95 101z" />
    <glyph glyph-name="uni2012" unicode="&#x2012;" horiz-adv-x="400" 
d="M0 225v156h400v-156h-400z" />
    <glyph glyph-name="endash" unicode="&#x2013;" horiz-adv-x="500" 
d="M471 220h-441v133h441v-133z" />
    <glyph glyph-name="emdash" unicode="&#x2014;" horiz-adv-x="700" 
d="M670 220h-640v133h640v-133z" />
    <glyph glyph-name="quoteleft" unicode="&#x2018;" horiz-adv-x="276" 
d="M230 754q-29 -66 -29 -132v-135h-135v100q0 94 50 167h114z" />
    <glyph glyph-name="quoteright" unicode="&#x2019;" horiz-adv-x="256" 
d="M210 654q0 -94 -50 -167h-114q29 66 29 132v135h135v-100z" />
    <glyph glyph-name="quotesinglbase" unicode="&#x201a;" horiz-adv-x="256" 
d="M210 47q0 -94 -50 -167h-114q29 66 29 132v135h135v-100z" />
    <glyph glyph-name="quotedblleft" unicode="&#x201c;" horiz-adv-x="463" 
d="M417 754q-29 -66 -29 -132v-135h-135v100q0 94 50 167h114zM220 754q-29 -66 -29 -132v-135h-135v100q0 94 50 167h114z" />
    <glyph glyph-name="quotedblright" unicode="&#x201d;" horiz-adv-x="453" 
d="M407 654q0 -94 -50 -167h-114q29 66 29 132v135h135v-100zM210 654q0 -94 -50 -167h-114q29 66 29 132v135h135v-100z" />
    <glyph glyph-name="quotedblbase" unicode="&#x201e;" horiz-adv-x="453" 
d="M407 47q0 -94 -50 -167h-114q29 66 29 132v135h135v-100zM210 47q0 -94 -50 -167h-114q29 66 29 132v135h135v-100z" />
    <glyph glyph-name="dagger" unicode="&#x2020;" horiz-adv-x="410" 
d="M396 449l-120 14l-5 -463h-132l-5 463l-120 -14v150l120 -9l-10 164h162l-10 -164l120 9v-150z" />
    <glyph glyph-name="daggerdbl" unicode="&#x2021;" horiz-adv-x="410" 
d="M396 155l-120 9l10 -164h-162l10 164l-120 -9v150l120 -14l1 86l-1 86l-120 -14v150l120 -9l-10 164h162l-10 -164l120 9v-150l-120 14l-1 -86l1 -86l120 14v-150z" />
    <glyph glyph-name="bullet" unicode="&#x2022;" horiz-adv-x="516" 
d="M403 352q0 -60 -42.5 -102t-102.5 -42t-102.5 42t-42.5 102t42.5 102.5t102.5 42.5t102.5 -42.5t42.5 -102.5z" />
    <glyph glyph-name="ellipsis" unicode="&#x2026;" horiz-adv-x="724" 
d="M664 0h-161v162h161v-162zM442 0h-161v162h161v-162zM221 0h-161v162h161v-162z" />
    <glyph glyph-name="perthousand" unicode="&#x2030;" horiz-adv-x="1057" 
d="M1038 172q0 -86 -46.5 -134.5t-114.5 -48.5q-67 0 -111 43t-44 133q0 85 46 135.5t112 50.5q68 0 113 -43t45 -136zM335 535q0 -86 -46.5 -134.5t-114.5 -48.5q-67 0 -111 43t-44 133q0 85 46 135.5t112 50.5q68 0 113 -43t45 -136zM697 172q0 -86 -46.5 -134.5
t-114.5 -48.5q-67 0 -111 43t-44 133q0 85 46 135.5t112 50.5q68 0 113 -43t45 -136zM919 172q0 65 -39 65t-39 -72q0 -62 36 -62q18 0 30 17t12 52zM216 535q0 65 -39 65t-39 -72q0 -62 36 -62q18 0 30 17t12 52zM578 172q0 65 -39 65t-39 -72q0 -62 36 -62q18 0 30 17
t12 52zM638 565l-494 -523l-80 83l494 523z" />
    <glyph glyph-name="guilsinglleft" unicode="&#x2039;" horiz-adv-x="225" 
d="M211 454l-67 -182l68 -174l-107 -43l-98 217l101 223z" />
    <glyph glyph-name="guilsinglright" unicode="&#x203a;" horiz-adv-x="225" 
d="M218 270l-98 -232l-106 50l67 182l-68 174l109 47z" />
    <glyph glyph-name="fraction" unicode="&#x2044;" horiz-adv-x="201" 
d="M401 607l-544 -545l-57 62l543 543z" />
    <glyph glyph-name="fraction" unicode="&#x2215;" horiz-adv-x="201" 
d="M401 607l-544 -545l-57 62l543 543z" />
    <glyph glyph-name="zerosuperior" unicode="&#x2070;" horiz-adv-x="291" 
d="M143 409q-126 0 -126 183q0 50 10 90.5t41.5 71.5t81.5 31q125 0 125 -182q0 -85 -31 -139.5t-101 -54.5zM146 485q37 0 37 114q0 100 -36 100q-39 0 -39 -105q0 -109 38 -109z" />
    <glyph glyph-name="i.superior" unicode="&#x2071;" horiz-adv-x="164" 
d="M35 414v360h94v-360h-94zM81 813l-73 74l73 73l74 -73z" />
    <glyph glyph-name="foursuperior" unicode="&#x2074;" horiz-adv-x="255" 
d="M127 413v79h-118v70l76 220h123v-222h37v-68h-37v-79h-81zM68 560h59v159z" />
    <glyph glyph-name="fivesuperior" unicode="&#x2075;" horiz-adv-x="253" 
d="M113 406q-23 0 -88 17l15 76q47 -18 71 -18q33 0 33 46q0 23 -12 38t-28 15q-36 0 -66 -3v205h180v-84h-100v-45h6q53 0 81.5 -25t28.5 -90q0 -62 -34.5 -97t-86.5 -35z" />
    <glyph glyph-name="sixsuperior" unicode="&#x2076;" horiz-adv-x="275" 
d="M140 407q-62 0 -92 37.5t-30 131.5q0 102 39 156t101 54q41 0 84 -17l-22 -78q-24 9 -57 9q-19 0 -34.5 -22.5t-21.5 -56.5q28 22 53 22q45 0 71 -22t26 -78q0 -72 -33 -104t-84 -32zM143 482q10 0 16.5 18t6.5 38q0 38 -27 38q-11 0 -30 -7q0 -87 34 -87z" />
    <glyph glyph-name="sevensuperior" unicode="&#x2077;" horiz-adv-x="211" 
d="M91 406l-87 24l121 266h-120v86h204v-72z" />
    <glyph glyph-name="eightsuperior" unicode="&#x2078;" horiz-adv-x="267" 
d="M132 409q-116 0 -116 105q0 59 46 91q-36 31 -36 79q0 54 31.5 78.5t79.5 24.5q45 0 75.5 -26.5t30.5 -70.5q0 -48 -39 -79q47 -33 47 -90q0 -51 -32 -81.5t-87 -30.5zM134 479q26 0 26 39q0 24 -44 49q-11 -12 -11 -49q0 -15 7 -27t22 -12zM143 646q12 19 12 41
q0 10 -5.5 20t-14.5 10q-23 0 -23 -31q0 -22 31 -40z" />
    <glyph glyph-name="ninesuperior" unicode="&#x2079;" horiz-adv-x="271" 
d="M117 407q-41 0 -84 17l21 71q24 -9 57 -9q43 0 56 86q-27 -22 -52 -22q-45 0 -71 22t-26 78q0 72 33 104t84 32q62 0 92 -37.5t30 -131.5q0 -102 -39 -156t-101 -54zM136 617q15 0 30 7q0 87 -32 87q-12 0 -18.5 -13.5t-6.5 -32.5q0 -23 7.5 -35.5t19.5 -12.5z" />
    <glyph glyph-name="plussuperior" unicode="&#x207a;" horiz-adv-x="338" 
d="M126 449l1 111l-111 -1v83l111 -3l-1 113h84l-4 -115l116 5v-83l-114 1l2 -111h-84z" />
    <glyph glyph-name="minussuperior" unicode="&#x207b;" horiz-adv-x="338" 
d="M16 562v83h306v-83h-306z" />
    <glyph glyph-name="equalsuperior" unicode="&#x207c;" horiz-adv-x="338" 
d="M16 478v83h306v-83h-306zM16 645v83h306v-83h-306z" />
    <glyph glyph-name="parenleftsuperior" unicode="&#x207d;" horiz-adv-x="225" 
d="M166 268l-16.5 13.5t-36.5 40.5t-46 67.5t-36.5 94t-16.5 120.5q0 64 16 120t38 91.5t44.5 61.5t38.5 37l16 11l58 -71q-4 -3 -11.5 -10t-26.5 -30t-33 -49.5t-26 -70t-12 -89.5q0 -47 11 -91.5t27 -75t32 -54t27 -34.5l11 -11z" />
    <glyph glyph-name="parenrightsuperior" unicode="&#x207e;" horiz-adv-x="225" 
d="M60 268l-59 71l11.5 11.5t26.5 33.5t33 55t26 74t12 92q0 46 -11.5 89t-27.5 71t-32 49t-27 30l-12 10l59 71l16.5 -11.5t37 -36t46.5 -62.5t36.5 -90.5t16.5 -120.5q0 -62 -15.5 -120t-38 -95.5t-45 -66t-37.5 -41.5z" />
    <glyph glyph-name="n.superior" unicode="&#x207f;" horiz-adv-x="340" 
d="M34 416v360h94v-36q43 46 84 46q59 0 81 -37.5t22 -106.5v-226h-94v221q0 36 -7.5 47.5t-28.5 11.5q-28 0 -57 -20v-260h-94z" />
    <glyph glyph-name="zeroinferior" unicode="&#x2080;" horiz-adv-x="291" 
d="M143 -4q-126 0 -126 183q0 50 10 90.5t41.5 71.5t81.5 31q125 0 125 -182q0 -85 -31 -139.5t-101 -54.5zM146 72q37 0 37 114q0 100 -36 100q-39 0 -39 -105q0 -109 38 -109z" />
    <glyph glyph-name="oneinferior" unicode="&#x2081;" horiz-adv-x="180" 
d="M62 0v281h-54v83l145 5v-369h-91z" />
    <glyph glyph-name="twoinferior" unicode="&#x2082;" horiz-adv-x="230" 
d="M8 0v65q45 41 81 92.5t36 79.5q0 15 -9 29t-21 14q-29 0 -54 -22l-29 70q43 45 101 45q49 0 76.5 -36t27.5 -86q0 -44 -28.5 -89.5t-73.5 -76.5h104v-85h-211z" />
    <glyph glyph-name="threeinferior" unicode="&#x2083;" horiz-adv-x="229" 
d="M98 -6q-43 0 -89 16l14 78q32 -10 67 -10q20 0 29 15t9 33q0 21 -14.5 30t-47.5 9v51q31 4 40 14t9 30q0 9 -6 21.5t-17 12.5q-32 0 -57 -16l-19 70q37 25 85 25q104 0 104 -103q0 -51 -32 -71q45 -23 45 -86q0 -119 -120 -119z" />
    <glyph glyph-name="fourinferior" unicode="&#x2084;" horiz-adv-x="255" 
d="M127 0v79h-118v70l76 220h123v-222h37v-68h-37v-79h-81zM68 147h59v159z" />
    <glyph glyph-name="fiveinferior" unicode="&#x2085;" horiz-adv-x="253" 
d="M113 -7q-23 0 -88 17l15 76q47 -18 71 -18q33 0 33 46q0 22 -12 37.5t-28 15.5q-36 0 -66 -3v205h180v-84h-100v-45h6q53 0 81.5 -25t28.5 -90q0 -62 -34.5 -97t-86.5 -35z" />
    <glyph glyph-name="sixinferior" unicode="&#x2086;" horiz-adv-x="275" 
d="M140 -6q-62 0 -92 37.5t-30 131.5q0 102 39 156t101 54q41 0 84 -17l-22 -78q-24 9 -57 9q-19 0 -34.5 -22.5t-21.5 -56.5q28 22 53 22q45 0 71 -22t26 -78q0 -72 -33 -104t-84 -32zM143 69q10 0 16.5 18t6.5 38q0 38 -27 38q-15 0 -30 -7q0 -87 34 -87z" />
    <glyph glyph-name="seveninferior" unicode="&#x2087;" horiz-adv-x="211" 
d="M91 -7l-87 24l121 266h-120v86h204v-72z" />
    <glyph glyph-name="eightinferior" unicode="&#x2088;" horiz-adv-x="267" 
d="M132 -4q-116 0 -116 105q0 59 46 91q-36 31 -36 79q0 54 31.5 78.5t79.5 24.5q45 0 75.5 -26.5t30.5 -70.5q0 -48 -39 -79q47 -33 47 -90q0 -51 -32 -81.5t-87 -30.5zM134 66q26 0 26 39q0 24 -44 49q-11 -12 -11 -49q0 -15 7 -27t22 -12zM143 233q12 19 12 41
q0 10 -5.5 20t-14.5 10q-23 0 -23 -31q0 -22 31 -40z" />
    <glyph glyph-name="nineinferior" unicode="&#x2089;" horiz-adv-x="271" 
d="M117 -6q-41 0 -84 17l21 71q24 -9 57 -9q43 0 56 86q-27 -22 -52 -22q-45 0 -71 22t-26 78q0 72 33 104t84 32q62 0 92 -37.5t30 -131.5q0 -102 -39 -156t-101 -54zM136 204q15 0 30 7q0 87 -32 87q-12 0 -18.5 -13.5t-6.5 -32.5q0 -22 7.5 -35t19.5 -13z" />
    <glyph glyph-name="plus.inferior" unicode="&#x208a;" horiz-adv-x="338" 
d="M126 50l1 111l-111 -1v83l111 -3l-1 113h84l-4 -115l116 5v-83l-114 1l2 -111h-84z" />
    <glyph glyph-name="minus.inferior" unicode="&#x208b;" horiz-adv-x="338" 
d="M16 160v83h306v-83h-306z" />
    <glyph glyph-name="equal.inferior" unicode="&#x208c;" horiz-adv-x="338" 
d="M16 76v83h306v-83h-306zM16 243v83h306v-83h-306z" />
    <glyph glyph-name="parenleft.inferior" unicode="&#x208d;" horiz-adv-x="225" 
d="M166 -149l-16.5 13.5t-36.5 40.5t-46 67.5t-36.5 94t-16.5 120.5q0 64 16 120t38 91.5t44.5 61.5t38.5 37l16 11l58 -71q-4 -3 -11.5 -10t-26.5 -30t-33 -49.5t-26 -70t-12 -89.5q0 -47 11 -91.5t27 -75t32 -54t27 -34.5l11 -11z" />
    <glyph glyph-name="parenright.inferior" unicode="&#x208e;" horiz-adv-x="225" 
d="M60 -149l-59 71l11.5 11.5t26.5 33.5t33 55t26 74t12 92q0 46 -11.5 89t-27.5 71t-32 49t-27 31l-12 9l59 71l16.5 -11.5t37 -36t46.5 -62.5t36.5 -90.5t16.5 -120.5q0 -62 -15.5 -120t-38 -95.5t-45 -66t-37.5 -41.5z" />
    <glyph glyph-name="colonsign" unicode="&#x20a1;" horiz-adv-x="618" 
d="M9 -75l81 179q-59 91 -59 245q0 170 82.5 268t216.5 98q14 0 38 -2l40 87h65l-45 -98q37 -12 64 -30l58 128h68l-306 -668q16 -2 25 -2q68 0 136 23l23 -124q-81 -39 -172 -39q-34 0 -73 7l-33 -72h-67l41 91q-36 16 -59 38l-59 -129h-65zM185 359q0 -16 2 -44l120 263
h-6q-50 0 -83 -62.5t-33 -156.5zM208 219q19 -42 48 -64l183 402q-49 16 -68 19z" />
    <glyph glyph-name="cruzeiro" unicode="&#x20a2;" horiz-adv-x="569" 
d="M565 467l-14 -149q-30 10 -63 10q-19 0 -41 -12t-33 -27v-157h1q63 7 108 23l23 -124q-85 -41 -202 -41q-158 0 -235.5 92t-77.5 267q0 173 88 269.5t251 96.5q87 0 177 -43l-32 -120q-76 27 -153 27q-89 0 -133 -57.5t-44 -162.5q0 -153 79 -205v311h150v-73h6
q23 84 79 84q18 0 34.5 -2t24.5 -4z" />
    <glyph glyph-name="franc" unicode="&#x20a3;" horiz-adv-x="660" 
d="M665 426l-14 -149q-30 10 -63 10q-19 0 -41 -12t-33 -27v-248h-150v301h-157v-301h-151v707h458v-133h-307v-150h307v-73h6q23 84 79 84q18 0 34.5 -2.5t24.5 -4.5z" />
    <glyph glyph-name="lira" unicode="&#x20a4;" horiz-adv-x="434" 
d="M46 0v132q40 27 49 93h-65v122h71q0 5 -0.5 16t-0.5 17h-70v121h69q0 28 5 55q7 41 25.5 70t40.5 45t56.5 24.5t62.5 10.5t69 2l4 -136l-23 -2.5t-20.5 -2.5t-16 -2t-14 -2.5t-11.5 -3.5t-9.5 -4t-6.5 -5.5t-6 -7.5t-4 -9t-3 -12q0 -3 -1 -9.5t-1 -10.5h115v-121h-117
v-33h118v-122h-132q-11 -55 -31 -93h213v-132h-366z" />
    <glyph glyph-name="mill" unicode="&#x20a5;" horiz-adv-x="741" 
d="M152 -134l144 333v146q0 35 -9 49.5t-34 14.5q-17 0 -56 -24v-385h-149v546h149v-55q16 25 52.5 48t64.5 23q81 0 111 -64l105 243h76l-81 -185q26 6 38 6q36 0 61 -12t38.5 -30t21 -49t9 -58t1.5 -68v-345h-149v345q0 35 -9 49.5t-34 14.5q-20 0 -48 -17l-10 -22
q1 -8 1 -25v-345h-149v29l-71 -163h-73z" />
    <glyph glyph-name="naira" unicode="&#x20a6;" horiz-adv-x="596" 
d="M541 0h-179l-91 264h-64v-264h-151v264h-56v70h56v30h-56v70h56v273h172l98 -273h64v273h151v-273h55v-70h-55v-30h55v-70h-55v-264zM351 364l11 -30h30l-2 30h-39zM205 364l2 -30h40l-10 30h-32zM396 250v2l-1 12h-8l5 -14h4zM201 455l1 -21h11l-8 23h-4v-2z" />
    <glyph glyph-name="pesetas" unicode="&#x20a7;" horiz-adv-x="1215" 
d="M476 451q0 -110 -65.5 -180.5t-181.5 -70.5h-21v-200h-152v707h210q98 0 154 -68t56 -188zM835 11q-62 -22 -112 -22q-104 0 -140.5 39t-36.5 149v246h-56v123h56v112h149v-112h120v-123h-120v-245q0 -50 34 -50l92 8zM1191 172q0 -85 -52 -133.5t-137 -48.5
q-91 0 -158 24l16 123q81 -15 131 -15q52 0 52 33q0 19 -20 35t-48.5 31t-57.5 33.5t-49 51.5t-20 76q0 80 49.5 128t129.5 48q72 0 146 -34l-24 -119q-74 21 -119 21q-34 0 -34 -29q0 -18 20 -33t49 -28.5t57.5 -32t48.5 -52t20 -79.5zM208 574v-243h26q45 0 65.5 34.5
t20.5 83.5q0 54 -16.5 89.5t-52.5 35.5h-43z" />
    <glyph glyph-name="rupee" unicode="&#x20a8;" horiz-adv-x="857" 
d="M320 467q0 106 -69 106h-43v-210h26q45 0 65.5 29t20.5 75zM614 -10q-58 0 -104 9t-76.5 23t-56 37t-40 43.5t-30.5 49.5l-50 92h-49v-244h-152v707h210q95 0 152.5 -60t57.5 -176q0 -55 -23.5 -102.5t-61.5 -76.5l56 -75q19 -26 32.5 -41.5t46.5 -34.5t69 -19
q90 0 90 33q0 19 -20 35t-48.5 31t-57.5 33.5t-49 51.5t-20 76q0 80 49.5 128t129.5 48q72 0 146 -34l-24 -119q-74 21 -119 21q-34 0 -34 -29q0 -18 20 -33t49 -28.5t57.5 -32t48.5 -52t20 -79.5q0 -82 -65.5 -132t-153.5 -50z" />
    <glyph glyph-name="won" unicode="&#x20a9;" horiz-adv-x="787" 
d="M-7 464h53l-39 243h150l31 -243h116l18 64l-48 179h152l53 -243h111l43 243h145l-50 -243h66v-75h-81l-12 -55h93v-75h-108l-53 -259h-176l-59 259h-33l-64 -259h-181l-41 259h-86v75h74l-9 55h-65v75zM197 389l7 -55h64l15 55h-86zM496 389l12 -55h60l9 55h-81zM229 117
l10 66l11 76h-37l5 -74l5 -68h6zM547 125l5 68l4 66h-32l9 -68l8 -66h6zM376 335v-1h11v1l-3 21h-4z" />
    <glyph glyph-name="sheqel" unicode="&#x20aa;" horiz-adv-x="849" 
d="M72 0v707h261q145 0 198 -66t53 -228v-172h-136v152q0 55 -3.5 83.5t-16.5 53.5t-39.5 34t-72.5 9h-107v-573h-137zM265 1v465h137v-331h107q46 0 72.5 9t39.5 34t16.5 53.5t3.5 83.5v391h136v-411q0 -162 -53 -228t-198 -66h-261z" />
    <glyph glyph-name="dong" unicode="&#x20ab;" horiz-adv-x="485" 
d="M190 113q-28 0 -53 9t-51.5 32t-42 72.5t-15.5 120.5q0 114 61 168.5t164 54.5q19 0 36 -3v50h-127v78h127v59h149v-59h47v-78h-47v-497h-149v47q-4 -6 -12.5 -15t-34 -24t-52.5 -15zM239 251q23 0 50 12v171q-20 4 -33 4q-45 0 -63 -19.5t-18 -66.5q0 -61 13.5 -81
t50.5 -20zM20 0v77h418v-77h-418z" />
    <glyph glyph-name="Euro" unicode="&#x20ac;" horiz-adv-x="418" 
d="M414 27q-74 -35 -147 -35q-94 0 -152.5 47.5t-77.5 137.5h-37v70h28v22q0 22 1 32h-29v70h38q39 180 226 180q78 0 150 -42l-29 -113q-62 26 -120 27q-55 2 -78 -52h144v-70h-159q-1 -8 -1 -24q0 -21 1 -30h159v-70h-142q27 -56 87 -56q52 0 114 23z" />
    <glyph glyph-name="uni20AD" unicode="&#x20ad;" horiz-adv-x="550" 
d="M0 433h56v274h151v-274h10l150 274h178l-173 -274h131v-122h-131l182 -311h-184l-154 311h-9v-311h-151v311h-56v122z" />
    <glyph glyph-name="uni20AE" unicode="&#x20ae;" horiz-adv-x="478" 
d="M28 205l135 59v70l-135 -59v78l135 59v162h-157v133h466v-133h-157v-96l138 61v-78l-138 -61v-70l138 61v-82l-138 -61v-248h-152v182l-135 -59v82z" />
    <glyph glyph-name="uni20B1" unicode="&#x20b1;" horiz-adv-x="488" 
d="M0 543h56v164h210q75 0 126.5 -43t71.5 -121h74v-71h-63q1 -8 1 -25v-8h62v-71h-72q-22 -77 -83 -122.5t-154 -45.5h-21v-200h-152v368h-56v71h56v33h-56v71zM208 439h112v33h-112v-33zM208 368v-37h26q46 0 68 37h-94zM208 574v-31h92q-18 31 -49 31h-43z" />
    <glyph glyph-name="afii61289" unicode="&#x2113;" horiz-adv-x="385" 
d="M176 -12q-57 0 -82 42t-25 136v60q-14 -13 -42 -37l-32 57l74 66v196q0 120 59.5 189.5t121.5 69.5q42 0 76.5 -28.5t34.5 -96.5q0 -141 -167 -304v-129q0 -74 7.5 -99t31.5 -25q35 0 58 25l23 -45q-28 -38 -59 -57.5t-79 -19.5zM194 570v-133q84 100 84 178
q0 42 -7.5 62.5t-29.5 20.5q-47 0 -47 -128z" />
    <glyph glyph-name="afii61352" unicode="&#x2116;" horiz-adv-x="815" 
d="M466 0h-171l-117 336l10 -113v-223h-141v546h166l121 -348l-7 108v240h139v-546zM789 362q0 -72 -41 -113.5t-98 -41.5q-58 0 -96 42t-38 110q0 71 40 114.5t97 43.5q62 0 99 -42t37 -113zM789 64h-273v88h273v-88zM680 362q0 76 -28 76t-28 -77q0 -75 28 -75t28 76z" />
    <glyph glyph-name="uni2117" unicode="&#x2117;" horiz-adv-x="718" 
d="M662 345q0 -163 -81 -259t-229 -96q-144 0 -220 97t-76 259q0 164 83.5 254.5t228.5 90.5q147 0 220.5 -94.5t73.5 -251.5zM587 346q0 129 -61.5 204.5t-165.5 75.5q-106 0 -167.5 -70t-61.5 -208q0 -131 58.5 -208.5t165.5 -77.5q120 0 176 76t56 208zM514 396
q0 -56 -41 -94t-96 -38h-31v-113h-96v375h131q58 0 95.5 -34t37.5 -96zM416 394q0 61 -44 61h-26v-122h15q28 0 41.5 18t13.5 43z" />
    <glyph glyph-name="servicemark" unicode="&#x2120;" horiz-adv-x="698" 
d="M134 344q-68 0 -113 15l10 73q57 -12 96 -12q42 0 42 36q0 10 -14 19t-34.5 18.5t-40.5 21.5t-34 34.5t-14 52.5q0 56 34.5 85.5t85.5 29.5q57 0 105 -21l-15 -70q-45 13 -87 13q-20 0 -28 -10.5t-8 -20.5q0 -11 14.5 -20.5t35.5 -19t42 -21.5t35.5 -34t14.5 -51
q0 -44 -22.5 -72t-49 -37t-55.5 -9zM648 353h-94v155l3 71h-9l-30 -129h-81l-27 120h-9l3 -65v-152h-95v355h125l43 -180h6l42 180h123v-355z" />
    <glyph glyph-name="trademark" unicode="&#x2122;" horiz-adv-x="667" 
d="M648 353h-94v155l3 71h-9l-30 -129h-81l-27 120h-9l3 -65v-152h-95v355h125l43 -180h6l42 180h123v-355zM281 613h-77v-260h-107v260h-78v95h262v-95z" />
    <glyph glyph-name="Omega" unicode="&#x2126;" horiz-adv-x="625" 
d="M621 0h-262v128q34 20 59.5 78t25.5 158q0 96 -34.5 159t-98.5 63q-60 0 -95 -62.5t-35 -157.5q0 -70 19 -140t66 -98v-128h-262v128h98q-8 10 -20.5 28t-33 77.5t-20.5 123.5q0 168 77 264.5t212 96.5q141 0 210 -94.5t69 -260.5q0 -40 -7.5 -79t-18 -66t-21.5 -48
t-19 -32l-7 -10h98v-128z" />
    <glyph glyph-name="estimated" unicode="&#x212e;" horiz-adv-x="466" 
d="M250 -8q-114 0 -177.5 73t-63.5 203q0 131 66.5 214.5t166.5 83.5t159 -63t59 -185v-56h-314v-55q0 -60 32.5 -97t74.5 -37q102 0 155 93l47 -46q-32 -67 -90 -97.5t-115 -30.5zM146 334h177v19q0 133 -81 133q-46 0 -71 -34.5t-25 -98.5v-19z" />
    <glyph glyph-name="uni2139" unicode="&#x2139;" horiz-adv-x="800" 
d="M400 -9q-150 0 -256.5 106t-106.5 257q0 150 106.5 256.5t256.5 106.5t256.5 -106.5t106.5 -256.5q0 -151 -106.5 -257t-256.5 -106zM400 71q117 0 200 83t83 200t-83 200t-200 83t-200 -83t-83 -200t83 -200t200 -83zM400 451q-30 0 -51 21t-21 51t21 51t51 21t51 -21
t21 -51t-21 -51t-51 -21zM331 146v271h137v-271h-137z" />
    <glyph glyph-name="uni213B" unicode="&#x213b;" horiz-adv-x="804" 
d="M754 0h-704v309h111v344h309l175 -175v-169h109v-309zM585 483l-109 110v-110h109zM606 309v135h-170v170h-236v-305h406zM715 39l-1 231h-625v-231h626zM390 529h-144v39h144v-39zM560 360h-314v38h314v-38zM390 444h-144v39h144v-39zM390 80h-144v39h144v-39z" />
    <glyph glyph-name="onethird" unicode="&#x2153;" horiz-adv-x="674" 
d="M121 413v281h-54v83l145 5v-369h-91zM631 607l-544 -545l-57 62l543 543zM524 -6q-43 0 -89 16l14 78q33 -10 67 -10q20 0 29 15t9 33q0 21 -14.5 30t-47.5 9v51q31 4 40 14t9 30q0 9 -6 21.5t-17 12.5q-32 0 -57 -16l-19 70q37 25 85 25q104 0 104 -103q0 -51 -32 -71
q45 -23 45 -86q0 -119 -120 -119z" />
    <glyph glyph-name="twothirds" unicode="&#x2154;" horiz-adv-x="696" 
d="M653 607l-544 -545l-57 62l543 543zM546 -6q-43 0 -89 16l14 78q33 -10 67 -10q20 0 29 15t9 33q0 21 -14.5 30t-47.5 9v51q31 4 40 14t9 30q0 9 -6 21.5t-17 12.5q-32 0 -57 -16l-19 70q37 25 85 25q104 0 104 -103q0 -51 -32 -71q45 -23 45 -86q0 -119 -120 -119z
M30 413v65q45 41 81 92.5t36 79.5q0 15 -9 29t-21 14q-29 0 -54 -22l-29 70q43 45 101 45q49 0 76.5 -36t27.5 -86q0 -44 -28.5 -89.5t-73.5 -76.5h104v-85h-211z" />
    <glyph glyph-name="uni215B" unicode="&#x215b;" horiz-adv-x="682" 
d="M631 607l-544 -545l-57 62l543 543zM102 413v281h-54v83l145 5v-369h-91zM533 -4q-116 0 -116 105q0 59 46 91q-36 31 -36 79q0 54 31.5 78.5t79.5 24.5q45 0 75.5 -26.5t30.5 -70.5q0 -48 -39 -79q47 -33 47 -90q0 -51 -32 -81.5t-87 -30.5zM535 66q26 0 26 39
q0 24 -44 49q-11 -12 -11 -49q0 -15 7 -27t22 -12zM544 233q12 19 12 41q0 10 -5.5 20t-14.5 10q-23 0 -23 -31q0 -22 31 -40z" />
    <glyph glyph-name="threesup_fraction_eightinf" unicode="&#x215c;" horiz-adv-x="695" 
d="M631 607l-544 -545l-57 62l543 543zM552 -4q-116 0 -116 105q0 59 46 91q-36 31 -36 79q0 54 31.5 78.5t79.5 24.5q45 0 75.5 -26.5t30.5 -70.5q0 -48 -39 -79q47 -33 47 -90q0 -51 -32 -81.5t-87 -30.5zM554 66q26 0 26 39q0 24 -44 49q-11 -12 -11 -49q0 -15 7 -27
t22 -12zM563 233q12 19 12 41q0 10 -5.5 20t-14.5 10q-23 0 -23 -31q0 -22 31 -40zM121 407q-43 0 -89 16l14 78q33 -10 67 -10q20 0 29 15t9 33q0 21 -14.5 30t-47.5 9v51q31 4 40 14t9 30q0 9 -6 21.5t-17 12.5q-32 0 -57 -16l-19 70q37 25 85 25q104 0 104 -103
q0 -51 -32 -71q45 -23 45 -86q0 -119 -120 -119z" />
    <glyph glyph-name="fivesup_fraction_eightinf" unicode="&#x215d;" horiz-adv-x="682" 
d="M631 607l-544 -545l-57 62l543 543zM153 406q-23 0 -88 17l15 76q47 -18 71 -18q33 0 33 46q0 23 -12 38t-28 15q-36 0 -66 -3v205h180v-84h-100v-45h6q53 0 81.5 -25t28.5 -90q0 -62 -34.5 -97t-86.5 -35zM533 -4q-116 0 -116 105q0 59 46 91q-36 31 -36 79
q0 54 31.5 78.5t79.5 24.5q45 0 75.5 -26.5t30.5 -70.5q0 -48 -39 -79q47 -33 47 -90q0 -51 -32 -81.5t-87 -30.5zM535 66q26 0 26 39q0 24 -44 49q-11 -12 -11 -49q0 -15 7 -27t22 -12zM544 233q12 19 12 41q0 10 -5.5 20t-14.5 10q-23 0 -23 -31q0 -22 31 -40z" />
    <glyph glyph-name="sevensup_fraction_eightinf" unicode="&#x215e;" horiz-adv-x="682" 
d="M631 607l-544 -545l-57 62l543 543zM162 406l-87 24l121 266h-120v86h204v-72zM533 -4q-116 0 -116 105q0 59 46 91q-36 31 -36 79q0 54 31.5 78.5t79.5 24.5q45 0 75.5 -26.5t30.5 -70.5q0 -48 -39 -79q47 -33 47 -90q0 -51 -32 -81.5t-87 -30.5zM535 66q26 0 26 39
q0 24 -44 49q-11 -12 -11 -49q0 -15 7 -27t22 -12zM544 233q12 19 12 41q0 10 -5.5 20t-14.5 10q-23 0 -23 -31q0 -22 31 -40z" />
    <glyph glyph-name="arrowleft" unicode="&#x2190;" horiz-adv-x="650" 
d="M307 16l-289 288l283 283l100 -100l-106 -106h336l-1 -156h-342l115 -113z" />
    <glyph glyph-name="arrowup" unicode="&#x2191;" horiz-adv-x="650" 
d="M39 345l288 289l283 -283l-100 -100l-106 106v-336l-156 1v342l-113 -115z" />
    <glyph glyph-name="arrowright" unicode="&#x2192;" horiz-adv-x="650" 
d="M348 587l283 -283l-289 -288l-96 96l115 113h-342l-1 156h336l-106 106z" />
    <glyph glyph-name="arrowdown" unicode="&#x2193;" horiz-adv-x="650" 
d="M610 209l-288 -289l-283 283l100 100l106 -106v336l156 -1v-342l113 115z" />
    <glyph glyph-name="uni2196" unicode="&#x2196;" horiz-adv-x="650" 
d="M82 127l-1 408h400v-141h-150l238 -238l-111 -110l-242 242l2 -161h-136z" />
    <glyph glyph-name="uni2197" unicode="&#x2197;" horiz-adv-x="650" 
d="M169 521h400l-1 -408h-135l1 161l-242 -242l-111 110l238 238h-150v141z" />
    <glyph glyph-name="uni2198" unicode="&#x2198;" horiz-adv-x="650" 
d="M569 425v-408h-400v142h150l-238 237l111 110l242 -242l-1 161h136z" />
    <glyph glyph-name="uni2199" unicode="&#x2199;" horiz-adv-x="650" 
d="M488 33l-408 -1v401h142v-150l237 237l110 -111l-242 -241l161 1v-136z" />
    <glyph glyph-name="home" unicode="&#x21b8;" horiz-adv-x="780" 
d="M730 400h-92v-400h-491v400h-97l340 270zM623 436l-234 183l-236 -183h470zM599 39v361h-413v-361h231v253h116v-253h66zM353 176h-116v116h116v-116z" />
    <glyph glyph-name="partialdiff" unicode="&#x2202;" horiz-adv-x="482" 
d="M451 330q0 -343 -216 -343q-204 0 -204 241q0 91 59.5 164.5t151.5 73.5q25 0 37 -1l-2.5 10t-12.5 24.5t-27 34.5t-49 34.5t-75 30.5l45 132q293 -88 293 -401zM304 296v41q-32 6 -48 6q-40 0 -60 -37t-20 -78q0 -119 55 -119q69 0 73 187z" />
    <glyph glyph-name="Delta" unicode="&#x2206;" horiz-adv-x="566" 
d="M565 0h-564l206 707h178zM372 130l-68 323l-9 102h-6l-12 -103l-86 -322h181z" />
    <glyph glyph-name="product" unicode="&#x220f;" horiz-adv-x="616" 
d="M601 574h-72v-795h-151v795h-141v-795h-151v795h-71v133h586v-133z" />
    <glyph glyph-name="summation" unicode="&#x2211;" horiz-adv-x="439" 
d="M418 -220h-396v128l122 335l-123 336v128h396v-133h-221l100 -332l-99 -330h221v-132z" />
    <glyph glyph-name="minus" unicode="&#x2212;" horiz-adv-x="404" 
d="M376 220h-348v133h348v-133z" />
    <glyph glyph-name="radical" unicode="&#x221a;" horiz-adv-x="575" 
d="M589 837l-217 -837h-168l-99 412h-105v133h227l50 -277l11 -121h6l6 111l136 579h153z" />
    <glyph glyph-name="infinity" unicode="&#x221e;" horiz-adv-x="816" 
d="M766 296q0 -86 -44.5 -133.5t-123.5 -47.5q-37 0 -69 16t-73.5 52t-51.5 43q-13 -12 -35 -30.5t-73.5 -49.5t-83.5 -31q-162 0 -162 174q0 85 44.5 132t121.5 47q31 0 61 -12.5t46.5 -25t45 -38t39.5 -34.5l36 30.5t74 49t84 30.5q79 0 121.5 -44.5t42.5 -127.5zM645 292
q0 54 -47 54q-39 0 -101 -53q66 -55 104 -55q21 0 32.5 14.5t11.5 39.5zM315 291q-62 55 -101 55q-21 0 -32.5 -14.5t-11.5 -38.5q0 -55 47 -55q40 0 98 53z" />
    <glyph glyph-name="integral" unicode="&#x222b;" horiz-adv-x="350" 
d="M344 577q-76 -5 -102 -18t-26 -64v-494q0 -60 -15 -103.5t-37.5 -68t-58.5 -38.5t-69.5 -18t-79.5 -4l-12 138q83 11 103 23.5t20 61.5v494q0 60 15.5 104t39 68.5t60.5 38.5t71 18t80 4z" />
    <glyph glyph-name="approxequal" unicode="&#x2248;" horiz-adv-x="486" 
d="M448 446q-29 -28 -45 -41.5t-44.5 -26t-60.5 -12.5q-29 0 -64.5 19.5t-60.5 19.5q-35 0 -72 -29l-63 84q75 82 156 82q32 0 65 -19t44 -19q36 0 91 26zM448 256q-29 -28 -45 -41.5t-44.5 -26t-60.5 -12.5q-29 0 -64.5 19.5t-60.5 19.5q-35 0 -72 -29l-63 84q75 82 156 82
q32 0 65 -19t44 -19q36 0 91 26z" />
    <glyph glyph-name="notequal" unicode="&#x2260;" horiz-adv-x="416" 
d="M375 131h-180l-40 -96h-103l40 96h-51v119h101l30 71h-131v119h180l40 95h103l-40 -95h51v-119h-100l-30 -71h130v-119z" />
    <glyph glyph-name="lessequal" unicode="&#x2264;" horiz-adv-x="423" 
d="M388 0h-353v127h351l-351 161v131l353 161v-139l-211 -85v-6l211 -84v-266z" />
    <glyph glyph-name="greaterequal" unicode="&#x2265;" horiz-adv-x="423" 
d="M389 0h-353v266l211 84v6l-211 85v139l353 -161v-131l-351 -161h351v-127z" />
    <glyph glyph-name="uni231A" unicode="&#x231a;" horiz-adv-x="786" 
d="M753 354q0 -150 -105.5 -255t-254.5 -105t-254.5 105t-105.5 255q0 149 105.5 254.5t254.5 105.5t254.5 -105.5t105.5 -254.5zM711 354q0 133 -92.5 225.5t-225.5 92.5t-225.5 -92.5t-92.5 -225.5t92.5 -225.5t225.5 -92.5t225.5 92.5t92.5 225.5zM557 601l-20 -25
l-26 15l15 30zM659 488l-31 -15l-15 27l26 20zM689 341h-30v31h30v-31zM277 591l-26 -16l-20 26l31 20zM658 225l-20 -31l-26 20l15 26zM410 340h-200v33h167v262h33v-295zM175 500l-15 -27l-30 15l19 32zM557 112l-32 -18l-15 29l27 15zM409 62h-30v32h30v-32zM130 341h-31
v31h31v-31zM176 214l-27 -20l-19 31l31 15zM277 123l-15 -29l-31 18l20 26z" />
    <glyph glyph-name="uni235F" unicode="&#x235f;" horiz-adv-x="666" 
d="M616 333q0 -115 -81.5 -196.5t-196.5 -81.5t-196.5 81.5t-81.5 196.5t81.5 196.5t196.5 81.5q116 0 197 -81.5t81 -196.5zM498 385l-113 18l-52 102l-52 -102l-112 -18l80 -80l-17 -113l101 52l102 -52l-18 113z" />
    <glyph glyph-name="uni24BB" unicode="&#x24bb;" horiz-adv-x="793" 
d="M763 354q0 -151 -106.5 -257t-256.5 -106t-256.5 106t-106.5 257q0 150 106.5 256.5t256.5 106.5t256.5 -106.5t106.5 -256.5zM683 354q0 117 -83 200t-200 83t-200 -83t-83 -200t83 -200t200 -83t200 83t83 200zM504 426h-125v-68h117v-58h-117v-87h-77v274h202v-61z
" />
    <glyph glyph-name="uni24C2" unicode="&#x24c2;" horiz-adv-x="793" 
d="M223 213v274h90l86 -201l92 201h86v-274h-73v113l4 43l-71 -156h-79l-68 156l6 -43v-113h-73zM400 -9q-150 0 -256.5 106t-106.5 257q0 150 106.5 256.5t256.5 106.5t256.5 -106.5t106.5 -256.5q0 -151 -106.5 -257t-256.5 -106zM400 71q117 0 200 83t83 200t-83 200
t-200 83t-200 -83t-83 -200t83 -200t200 -83z" />
    <glyph glyph-name="uni24C9" unicode="&#x24c9;" horiz-adv-x="793" 
d="M763 354q0 -151 -106.5 -257t-256.5 -106t-256.5 106t-106.5 257q0 150 106.5 256.5t256.5 106.5t256.5 -106.5t106.5 -256.5zM683 354q0 117 -83 200t-200 83t-200 -83t-83 -200t83 -200t200 -83t200 83t83 200zM518 426h-85v-213h-78v213h-86v61h249v-61z" />
    <glyph glyph-name="uni24CC" unicode="&#x24cc;" horiz-adv-x="793" 
d="M763 354q0 -151 -106.5 -257t-256.5 -106t-256.5 106t-106.5 257q0 150 106.5 256.5t256.5 106.5t256.5 -106.5t106.5 -256.5zM683 354q0 117 -83 200t-200 83t-200 -83t-83 -200t83 -200t200 -83t200 83t83 200zM606 487l-78 -274h-91l-36 98l-8 26l-8 -26l-38 -98h-94
l-61 274h76l33 -170l7 -42l14 44l40 98l-25 70h79l55 -171l10 -39l9 43l41 167h75z" />
    <glyph glyph-name="uni25A0" unicode="&#x25a0;" horiz-adv-x="926" 
d="M110 0v707h706v-707h-706z" />
    <glyph glyph-name="uni25A1" unicode="&#x25a1;" horiz-adv-x="800" 
d="M60 13v681h680v-681h-680zM200 153h400v401h-400v-401z" />
    <glyph glyph-name="uni25AA" unicode="&#x25aa;" horiz-adv-x="766" 
d="M110 0v547h546v-547h-546z" />
    <glyph glyph-name="uni25AB" unicode="&#x25ab;" horiz-adv-x="766" 
d="M110 0v547h546v-547h-546zM276 167h214v214h-214v-214z" />
    <glyph glyph-name="uni25B6" unicode="&#x25b6;" horiz-adv-x="665" 
d="M110 -62v670l535 -335z" />
    <glyph glyph-name="uni25B7" unicode="&#x25b7;" horiz-adv-x="665" 
d="M110 -62v670l535 -335zM276 217l102 56l-102 61v-117z" />
    <glyph glyph-name="uni25B8" unicode="&#x25b8;" horiz-adv-x="465" 
d="M444 273l-334 -335v670z" />
    <glyph glyph-name="uni25B9" unicode="&#x25b9;" horiz-adv-x="465" 
d="M444 273l-334 -335v670zM289 273l-61 61v-122z" />
    <glyph glyph-name="uni25BA" unicode="&#x25ba;" horiz-adv-x="1013" 
d="M1013 273l-903 -335v670z" />
    <glyph glyph-name="uni25BB" unicode="&#x25bb;" horiz-adv-x="1013" 
d="M1013 273l-903 -335v670zM625 273l-349 104v-206z" />
    <glyph glyph-name="uni25C0" unicode="&#x25c0;" horiz-adv-x="665" 
d="M555 -62l-535 335l535 335v-670z" />
    <glyph glyph-name="uni25C1" unicode="&#x25c1;" horiz-adv-x="665" 
d="M555 -62l-535 335l535 335v-670zM389 217v117l-102 -61z" />
    <glyph glyph-name="uni25C2" unicode="&#x25c2;" horiz-adv-x="464" 
d="M354 -62l-334 336l334 334v-670z" />
    <glyph glyph-name="uni25C3" unicode="&#x25c3;" horiz-adv-x="464" 
d="M354 -62l-334 335l334 335v-670zM236 212v122l-60 -61z" />
    <glyph glyph-name="uni25C4" unicode="&#x25c4;" horiz-adv-x="1013" 
d="M903 -62l-903 334l903 336v-670z" />
    <glyph glyph-name="uni25C5" unicode="&#x25c5;" horiz-adv-x="1013" 
d="M903 -62l-903 335l903 335v-670zM737 171v206l-349 -104z" />
    <glyph glyph-name="uni25C6" unicode="&#x25c6;" horiz-adv-x="510" 
d="M255 172l-175 175l175 175l175 -175z" />
    <glyph glyph-name="uni25C9" unicode="&#x25c9;" horiz-adv-x="891" 
d="M801 351q0 -146 -105 -250q-104 -105 -250 -105q-148 0 -251 105q-105 103 -105 250t105 251q103 105 251 105q147 0 250 -105q105 -104 105 -251zM748 351q0 126 -89 214q-87 88 -213 88q-127 0 -214 -88q-88 -87 -88 -214q0 -126 88 -213q89 -89 214 -89q126 0 213 89
q89 86 89 213zM602 351q0 -64 -46 -110t-110 -46q-65 0 -111 46t-46 110q0 65 46 111t111 46q64 0 110 -46t46 -111z" />
    <glyph glyph-name="lozenge" unicode="&#x25ca;" horiz-adv-x="495" 
d="M482 353l-153 -353h-167l-149 355l154 352h167zM314 352l-53 163l-7 59h-8l-9 -59l-55 -159l50 -159l10 -63h8l10 63z" />
    <glyph glyph-name="uni25CB" unicode="&#x25cb;" horiz-adv-x="766" 
d="M382 -5q-115 0 -197 81.5t-82 196.5t81.5 196.5t197.5 81.5q115 0 196.5 -81.5t81.5 -196.5t-81.5 -196.5t-196.5 -81.5zM382 165q44 0 76 31.5t32 76.5t-32 76.5t-76 31.5q-45 0 -77 -31.5t-32 -76.5t32 -76.5t77 -31.5z" />
    <glyph glyph-name="uni25CE" unicode="&#x25ce;" horiz-adv-x="891" 
d="M797 361q0 -145 -103 -248t-248 -103q-146 0 -249 103t-103 248q0 146 103 249t249 103q145 0 248 -103t103 -249zM745 361q0 124 -88 212q-87 87 -211 87q-125 0 -212 -87t-87 -212q0 -124 87 -211q90 -88 212 -88q123 0 211 88q88 87 88 211zM653 361q0 -83 -61 -146
q-60 -60 -146 -60t-146 60q-61 61 -61 146q0 86 61 147q60 60 146 60t146 -60q61 -63 61 -147zM600 361q0 65 -45 110t-109 45q-65 0 -110 -45t-45 -110q0 -64 45 -109t110 -45q64 0 109 45t45 109zM508 361q0 -26 -18 -44t-44 -18t-44 18q-18 19 -18 44q0 26 18 44
q18 19 44 19q25 0 44 -19q18 -18 18 -44z" />
    <glyph glyph-name="uni25CF" unicode="&#x25cf;" horiz-adv-x="766" 
d="M382 -5q-115 0 -197 81.5t-82 196.5t81.5 196.5t197.5 81.5q115 0 196.5 -81.5t81.5 -196.5t-81.5 -196.5t-196.5 -81.5z" />
    <glyph glyph-name="uni25EF" unicode="&#x25ef;" horiz-adv-x="926" 
d="M463 -5q-149 0 -254 105t-105 254t105 254t254 105q148 0 253 -105t105 -254t-105 -254t-253 -105zM463 161q80 0 136.5 56.5t56.5 136.5t-57 136.5t-136 56.5q-80 0 -136.5 -56.5t-56.5 -136.5t56.5 -136.5t136.5 -56.5z" />
    <glyph glyph-name="star" unicode="&#x2605;" horiz-adv-x="585" 
d="M119 98l29 188l-134 134l188 30l86 169l86 -169l188 -30l-134 -134l29 -188l-169 86z" />
    <glyph glyph-name="uni260F" unicode="&#x260f;" horiz-adv-x="658" 
d="M608 125q-89 -85 -126 -97q-16 -6 -42 4q-117 45 -250 231q-78 112 -107 182q-30 74 -33 129q5 32 10 40q12 19 57 51t72 45l102 -178l-64 -47l186 -259l58 50zM542 129l-73 80l-50 -44q-13 -13 -29 11l-219 305q-8 9 -6.5 17.5t8.5 11.5l51 43l-56 90
q-22 -12 -45.5 -41.5t-20.5 -52.5q19 -113 125 -258q125 -166 211 -207q20 -9 51 7.5t53 37.5z" />
    <glyph glyph-name="uni2612" unicode="&#x2612;" horiz-adv-x="766" 
d="M110 0v547h546v-547h-546zM276 220l53 53l-53 53v-106zM331 167h106l-54 52zM383 327l54 54h-107zM490 223v102l-53 -52z" />
    <glyph glyph-name="uni261C" unicode="&#x261c;" horiz-adv-x="765" 
d="M715 97h-67q-11 0 -38.5 -21t-54.5 -21h-188q-39 0 -60.5 20.5t-21.5 51.5q0 9 3 18q-21 7 -34 26t-13 41q0 14 8 32q-15 16 -15 42q0 11 6 27h-116q-35 0 -54.5 21t-19.5 50q0 30 21.5 52.5t60.5 22.5h263l-45 42q-30 29 -30 59q0 43 59 100l237 -190h98v-38h-112
l-222 178q-20 -20 -20 -43q0 -29 29 -53l108 -93h-365q-21 0 -32.5 -10.5t-11.5 -25.5q0 -14 9.5 -24t26.5 -10h334v-38h-178q-8 -14 -8 -22q0 -9 7 -17.5t22 -8.5h157v-38h-175q-5 -6 -5 -22q0 -26 47 -26h133v-38h-131q-4 -4 -4 -16q0 -14 14 -23t30 -9h188q18 0 44 21
t49 21h67v-38z" />
    <glyph glyph-name="uni261D" unicode="&#x261d;" horiz-adv-x="705" 
d="M655 361l-190 -237v-124h-38v138l178 222q-20 20 -43 20q-29 0 -53 -29l-93 -108v365q0 21 -10.5 32.5t-25.5 11.5q-14 0 -24 -9.5t-10 -26.5v-334h-38v178q-14 8 -22 8q-9 0 -17.5 -7t-8.5 -22v-157h-38v175q-6 5 -22 5q-26 0 -26 -47v-133h-38v130q-4 5 -16 5
q-14 0 -23 -14t-9 -30v-188q0 -18 21 -44t21 -49v-93h-38v93q0 11 -21 38.5t-21 54.5v188q0 39 20.5 60.5t51.5 21.5q9 0 18 -3q7 21 26 34t41 13q14 0 32 -8q18 15 42 15q11 0 27 -6v116q0 35 21 54.5t50 19.5q30 0 52.5 -21.5t22.5 -60.5v-263l42 45q28 30 59 30
q43 0 100 -59z" />
    <glyph glyph-name="uni261E" unicode="&#x261e;" horiz-adv-x="765" 
d="M715 384q0 -29 -19.5 -50t-54.5 -21h-116q6 -16 6 -27q0 -24 -15 -42q8 -18 8 -32q0 -22 -13 -41t-34 -26q3 -9 3 -18q0 -31 -21.5 -51.5t-60.5 -20.5h-188q-27 0 -54.5 21t-38.5 21h-67v38h67q23 0 49 -21t44 -21h188q16 0 30 9t14 23q0 12 -5 16h-130v38h133
q47 0 47 26q0 16 -5 22h-175v38h157q15 0 22 8.5t7 17.5q0 8 -8 22h-178v38h334q17 0 26.5 10t9.5 24q0 15 -11.5 25.5t-32.5 10.5h-365l108 93q29 24 29 53q0 23 -20 43l-222 -178h-112v38h98l237 190q59 -57 59 -100q0 -30 -30 -59l-45 -42h263q39 0 60.5 -22.5
t21.5 -52.5z" />
    <glyph glyph-name="uni261F" unicode="&#x261f;" horiz-adv-x="705" 
d="M655 361l-190 -237v-124h-38v138l178 222q-20 20 -43 20q-29 0 -53 -29l-93 -108v160q0 44 -26 44q-14 0 -24 -9.5t-10 -26.5v-129h-38v337q0 17 -9.5 27.5t-21.5 10.5t-19.5 -10.5t-7.5 -27.5v-337h-38v161q-6 5 -22 5q-15 0 -20.5 -6t-5.5 -27v-133h-38v130q-4 5 -16 5
q-14 0 -23 -14t-9 -30v-188q0 -18 21 -44t21 -49v-93h-38v93q0 11 -21 38.5t-21 54.5v188q0 39 20.5 60.5t51.5 21.5q9 0 18 -3q20 33 58 33q10 0 24 -7v153q0 28 22.5 47.5t47.5 19.5q26 0 45.5 -19t19.5 -44v-156q14 6 32 6q29 0 47 -21t18 -61v-58l42 45q27 28 67 28
q22 0 42 -13t50 -44z" />
    <glyph glyph-name="smileface" unicode="&#x263a;" horiz-adv-x="803" 
d="M402 211q-75 0 -120 67l52 44q34 -40 72 -40q45 0 68 36l47 -40q-15 -30 -48.5 -48.5t-70.5 -18.5zM323 372q-22 0 -37 14.5t-15 36.5q0 21 15 35.5t37 14.5q21 0 37.5 -14.5t16.5 -35.5t-16.5 -36t-37.5 -15zM402 -11q-151 0 -257 106.5t-106 256.5t106 256.5t257 106.5
q150 0 256 -106.5t106 -256.5t-106 -256.5t-256 -106.5zM402 129q91 0 157 66t66 157t-66 157t-157 66t-157 -66t-66 -157q0 -92 65.5 -157.5t157.5 -65.5zM481 372q-23 0 -38 14.5t-15 36.5q0 21 15.5 35.5t37.5 14.5q21 0 37 -14.5t16 -35.5t-16 -36t-37 -15z" />
    <glyph glyph-name="earth" unicode="&#x2641;" horiz-adv-x="786" 
d="M753 354q0 -150 -105.5 -255t-254.5 -105t-254.5 105t-105.5 255q0 149 105.5 254.5t254.5 105.5t254.5 -105.5t105.5 -254.5zM202 561l-29 -21l-16 25l1 1h-2l1 -1q-82 -88 -82 -211q0 -133 92.5 -225.5t225.5 -92.5t225.5 92.5t92.5 225.5q0 33 -7 69l-5 -49l-49 -32
l17 -20l-28 -14l-10 18l-5 -1l5 -26l21 -12l-8 -7l-13 4l3 -10l11 -1l10 -19l30 -11l2 -10l-36 6l-48 51l19 -2l-27 64v16h-8l-3 -15l-27 -20v-19l-25 -6l-13 36l-9 3l1 21l-81 14l13 -21l18 5l14 -14l-14 -18l-39 -12l-34 67h-10l-1 -13l23 -48l18 -13l32 2l-54 -76l6 -6
l2 -24l-15 -15l-1 -18l-38 -46l-35 2l-27 77l8 11v19l-22 27l9 6l-22 14l-49 2l-26 27l-1 49l62 54l32 3l8 -9l-2 -13l25 -8l13 16l9 -14h40l6 6v24l-14 -24l-24 30l8 -30l-22 18l-3 19l-21 24l-4 -4l17 -20l-11 -19l-2 16l-22 17l-11 -10l-6 4l-41 -34l-14 35l26 -1l9 11
l-14 9l21 13l10 1l17 16l-5 18l10 4l6 -14l32 4l1 12l40 13l-6 7l-27 -7l-7 14l16 12l-9 10l-21 -27l8 -6l-2 -16l-20 -6l-5 12l-22 -3l2 19l36 49l44 9l60 -14l-11 -16l-23 2l15 -16l46 30h35l-20 27l23 26l33 14q-52 19 -111 19q-146 0 -235 -106l30 8zM564 625
q-40 20 -60 28l5 -11l-31 -11l-18 -23l36 -23l-6 11l22 24l45 -15zM438 219l-14 -51l-21 14l6 26l21 16zM702 277l-13 -25l-23 6l1 19l21 21zM251 496l-1 -13h-27l6 13l-15 21l12 11l6 -18zM218 491l-10 -11l-11 10l9 18zM296 419l-9 4l6 9z" />
    <glyph glyph-name="uni2661" unicode="&#x2661;" horiz-adv-x="673" 
d="M623 375q0 -74 -98 -188l-189 -223l-154 175q-58 65 -95 130t-37 106q0 82 49.5 132t112.5 50t125 -56q58 56 124 56q63 0 112.5 -50t49.5 -132zM564 375q0 59 -32.5 91t-70.5 32q-24 0 -43.5 -8.5t-35.5 -27.5t-24 -32t-22 -39q-22 42 -37 61q-39 46 -87 46
q-38 0 -70.5 -33t-32.5 -90q0 -29 31.5 -81.5t73.5 -101.5l123 -142l143 169q37 44 60.5 88t23.5 68z" />
    <glyph glyph-name="uni2665" unicode="&#x2665;" horiz-adv-x="673" 
d="M623 375q0 -74 -98 -188l-189 -223l-154 175q-58 65 -95 130t-37 106q0 82 49.5 132t112.5 50t125 -56q58 56 124 56q63 0 112.5 -50t49.5 -132z" />
    <glyph glyph-name="uni2708" unicode="&#x2708;" horiz-adv-x="786" 
d="M753 354q0 -149 -105.5 -254.5t-254.5 -105.5t-254.5 105.5t-105.5 254.5t105.5 254.5t254.5 105.5t254.5 -105.5t105.5 -254.5zM711 354q0 133 -92.5 225.5t-225.5 92.5t-225.5 -92.5t-92.5 -225.5t92.5 -225.5t225.5 -92.5t225.5 92.5t92.5 225.5zM572 512
q0 -15 -8 -25l-79 -87l85 -187l-43 -45l-115 161l-74 -76l14 -103l-36 -12l-44 96l-97 41l5 37l109 -13l74 77l-163 108l43 45l188 -78l86 81q10 10 23 10q14 0 23 -9t9 -21z" />
    <glyph glyph-name="uni2709" unicode="&#x2709;" horiz-adv-x="756" 
d="M706 51h-656v484h656v-484zM665 116v351l-186 -168zM642 495h-524l263 -227zM637 89l-190 182l-32 -31q-13 -13 -38 -13q-19 0 -37 17l-33 29l-190 -184h520zM278 300l-189 163v-351z" />
    <glyph glyph-name="uni270E" unicode="&#x270e;" horiz-adv-x="764" 
d="M714 498l-377 -380l-287 -108l111 278l383 380zM586 571l-45 41l-316 -320l45 -42zM657 496l-45 45l-316 -320l45 -46zM316 148l-121 118l-53 -123l43 -46z" />
    <glyph glyph-name="uni2740" unicode="&#x2740;" horiz-adv-x="434" 
d="M384 211l-137 -206v-5h-59v3l-138 208q16 4 37 4q29 0 50 -11q41 -24 51 -108v156q-42 12 -66 43.5t-24 72.5q0 22 0.5 102t0.5 102l71 -45l44 47l47 -48l74 46v-204q0 -41 -23.5 -72t-64.5 -43v-149q9 76 50 100q21 11 50 11zM282 368v112l-20 -20l-47 48l-45 -49
l-19 20v-111q0 -27 19 -46t46 -19t46.5 19t19.5 46z" />
    <glyph glyph-name="uni2780" unicode="&#x2780;" horiz-adv-x="840" 
d="M420 -5q-149 0 -254.5 105t-105.5 254t105.5 254t254.5 105t254.5 -105t105.5 -254q0 -148 -105.5 -253.5t-254.5 -105.5zM420 72q117 0 199.5 82.5t82.5 199.5t-82.5 199.5t-199.5 82.5t-199.5 -82.5t-82.5 -199.5t82.5 -199.5t199.5 -82.5zM372 182v271h-73v93l194 5
v-369h-121z" />
    <glyph glyph-name="uni2781" unicode="&#x2781;" horiz-adv-x="840" 
d="M281 192v75q64 44 110.5 89.5t46.5 72.5q0 14 -12 23.5t-29 9.5q-38 0 -72 -22l-38 80q58 45 134 45q65 0 102 -36t37 -86q0 -43 -37 -84t-99 -72h139v-95h-282zM420 -5q-149 0 -254.5 105t-105.5 254t105.5 254t254.5 105t254.5 -105t105.5 -254q0 -148 -105.5 -253.5
t-254.5 -105.5zM420 72q117 0 199.5 82.5t82.5 199.5t-82.5 199.5t-199.5 82.5t-199.5 -82.5t-82.5 -199.5t82.5 -199.5t199.5 -82.5z" />
    <glyph glyph-name="uni2782" unicode="&#x2782;" horiz-adv-x="840" 
d="M416 171q-59 0 -119 16l18 88q44 -10 90 -10q50 0 50 38q0 22 -18.5 30.5t-63.5 8.5v51q42 4 53.5 14t11.5 30q0 8 -7.5 16t-22.5 8q-42 0 -77 -16l-25 80q49 25 113 25q139 0 139 -103q0 -22 -11 -42t-31 -29q60 -24 60 -86q0 -119 -160 -119zM420 -5q-149 0 -254.5 105
t-105.5 254t105.5 254t254.5 105t254.5 -105t105.5 -254q0 -148 -105.5 -253.5t-254.5 -105.5zM420 72q117 0 199.5 82.5t82.5 199.5t-82.5 199.5t-199.5 82.5t-199.5 -82.5t-82.5 -199.5t82.5 -199.5t199.5 -82.5z" />
    <glyph glyph-name="uni2783" unicode="&#x2783;" horiz-adv-x="840" 
d="M420 -5q-149 0 -254.5 105t-105.5 254t105.5 254t254.5 105t254.5 -105t105.5 -254q0 -148 -105.5 -253.5t-254.5 -105.5zM420 72q117 0 199.5 82.5t82.5 199.5t-82.5 199.5t-199.5 82.5t-199.5 -82.5t-82.5 -199.5t82.5 -199.5t199.5 -82.5zM407 180v79h-157v86l101 204
h164v-206h50v-84h-50v-79h-108zM329 343h78v143z" />
    <glyph glyph-name="uni2784" unicode="&#x2784;" horiz-adv-x="840" 
d="M402 161q-30 0 -118 17l20 78q63 -18 95 -18q44 0 44 44q0 22 -15.5 32.5t-38.5 10.5q-58 0 -87 -3v215h240v-94h-134v-35h8q71 0 109 -25t38 -90q0 -61 -46.5 -96.5t-114.5 -35.5zM420 -5q-149 0 -254.5 105t-105.5 254t105.5 254t254.5 105t254.5 -105t105.5 -254
q0 -148 -105.5 -253.5t-254.5 -105.5zM420 72q117 0 199.5 82.5t82.5 199.5t-82.5 199.5t-199.5 82.5t-199.5 -82.5t-82.5 -199.5t82.5 -199.5t199.5 -82.5z" />
    <glyph glyph-name="uni2785" unicode="&#x2785;" horiz-adv-x="840" 
d="M420 -5q-149 0 -254.5 105t-105.5 254t105.5 254t254.5 105t254.5 -105t105.5 -254q0 -148 -105.5 -253.5t-254.5 -105.5zM420 72q117 0 199.5 82.5t82.5 199.5t-82.5 199.5t-199.5 82.5t-199.5 -82.5t-82.5 -199.5t82.5 -199.5t199.5 -82.5zM414 172q-82 0 -122 37.5
t-40 131.5q0 102 52 156t134 54q54 0 112 -17l-29 -88q-32 9 -76 9q-26 0 -46.5 -18t-27.5 -51q36 22 70 22q129 0 129 -100q0 -72 -43.5 -104t-112.5 -32zM416 257q13 0 23 14t10 32q0 38 -36 38q-14 0 -40 -7q0 -42 9 -59.5t34 -17.5z" />
    <glyph glyph-name="uni2786" unicode="&#x2786;" horiz-adv-x="840" 
d="M420 -5q-149 0 -254.5 105t-105.5 254t105.5 254t254.5 105t254.5 -105t105.5 -254q0 -148 -105.5 -253.5t-254.5 -105.5zM420 72q117 0 199.5 82.5t82.5 199.5t-82.5 199.5t-199.5 82.5t-199.5 -82.5t-82.5 -199.5t82.5 -199.5t199.5 -82.5zM411 151l-116 24l162 244
h-160v108h271v-94z" />
    <glyph glyph-name="uni2787" unicode="&#x2787;" horiz-adv-x="840" 
d="M421 165q-155 0 -155 105q0 58 61 91q-47 31 -47 79q0 54 42 78.5t105 24.5q60 0 101 -26.5t41 -70.5q0 -48 -52 -79q25 -13 43.5 -37.5t18.5 -52.5q0 -51 -42 -81.5t-116 -30.5zM424 245q34 0 34 34q0 19 -58 44q-15 -12 -15 -44q0 -34 39 -34zM420 -5
q-149 0 -254.5 105t-105.5 254t105.5 254t254.5 105t254.5 -105t105.5 -254q0 -148 -105.5 -253.5t-254.5 -105.5zM420 72q117 0 199.5 82.5t82.5 199.5t-82.5 199.5t-199.5 82.5t-199.5 -82.5t-82.5 -199.5t82.5 -199.5t199.5 -82.5zM436 402q15 19 15 36q0 9 -7 17t-19 8
q-31 0 -31 -26q0 -8 7.5 -15.5t14 -10.5t20.5 -9z" />
    <glyph glyph-name="uni2788" unicode="&#x2788;" horiz-adv-x="840" 
d="M420 -5q-149 0 -254.5 105t-105.5 254t105.5 254t254.5 105t254.5 -105t105.5 -254q0 -148 -105.5 -253.5t-254.5 -105.5zM420 72q117 0 199.5 82.5t82.5 199.5t-82.5 199.5t-199.5 82.5t-199.5 -82.5t-82.5 -199.5t82.5 -199.5t199.5 -82.5zM402 166q-54 0 -112 17
l29 88q32 -9 76 -9q26 0 46.5 18t27.5 51q-36 -22 -70 -22q-129 0 -129 100q0 72 43.5 104t112.5 32q82 0 122 -37.5t40 -131.5q0 -102 -52 -156t-134 -54zM427 376q14 0 40 7q-1 40 -10 58.5t-33 18.5q-14 0 -23.5 -12t-9.5 -34q0 -38 36 -38z" />
    <glyph glyph-name="uni278A" unicode="&#x278a;" horiz-adv-x="840" 
d="M420 -5q-149 0 -254.5 105t-105.5 254t105.5 254t254.5 105t254.5 -105t105.5 -254q0 -148 -105.5 -253.5t-254.5 -105.5zM372 182h121v369l-194 -5v-93h73v-271z" />
    <glyph glyph-name="uni278B" unicode="&#x278b;" horiz-adv-x="840" 
d="M281 192h282v95h-139q62 31 99 72t37 84q0 50 -37 86t-102 36q-76 0 -134 -45l38 -80q34 22 72 22q17 0 29 -9.5t12 -23.5q0 -27 -46.5 -72.5t-110.5 -89.5v-75zM420 -5q-149 0 -254.5 105t-105.5 254t105.5 254t254.5 105t254.5 -105t105.5 -254q0 -148 -105.5 -253.5
t-254.5 -105.5z" />
    <glyph glyph-name="uni278C" unicode="&#x278c;" horiz-adv-x="840" 
d="M416 171q160 0 160 119q0 62 -60 86q20 9 31 29t11 42q0 103 -139 103q-64 0 -113 -25l25 -80q35 16 77 16q15 0 22.5 -8t7.5 -16q0 -20 -11.5 -30t-53.5 -14v-51q45 0 63.5 -8.5t18.5 -30.5q0 -38 -50 -38q-46 0 -90 10l-18 -88q60 -16 119 -16zM420 -5
q-149 0 -254.5 105t-105.5 254t105.5 254t254.5 105t254.5 -105t105.5 -254q0 -148 -105.5 -253.5t-254.5 -105.5z" />
    <glyph glyph-name="uni278D" unicode="&#x278d;" horiz-adv-x="840" 
d="M420 -5q-149 0 -254.5 105t-105.5 254t105.5 254t254.5 105t254.5 -105t105.5 -254q0 -148 -105.5 -253.5t-254.5 -105.5zM407 180h108v79h50v84h-50v206h-164l-101 -204v-86h157v-79zM329 343l78 143v-143h-78z" />
    <glyph glyph-name="uni278E" unicode="&#x278e;" horiz-adv-x="840" 
d="M402 161q68 0 114.5 35.5t46.5 96.5q0 65 -38 90t-109 25h-8v35h134v94h-240v-215q29 3 87 3q23 0 38.5 -10.5t15.5 -32.5q0 -44 -44 -44q-32 0 -95 18l-20 -78q88 -17 118 -17zM420 -5q-149 0 -254.5 105t-105.5 254t105.5 254t254.5 105t254.5 -105t105.5 -254
q0 -148 -105.5 -253.5t-254.5 -105.5z" />
    <glyph glyph-name="uni278F" unicode="&#x278f;" horiz-adv-x="840" 
d="M420 -5q-149 0 -254.5 105t-105.5 254t105.5 254t254.5 105t254.5 -105t105.5 -254q0 -148 -105.5 -253.5t-254.5 -105.5zM414 172q69 0 112.5 32t43.5 104q0 100 -129 100q-34 0 -70 -22q7 33 27.5 51t46.5 18q44 0 76 -9l29 88q-58 17 -112 17q-82 0 -134 -54t-52 -156
q0 -94 40 -131.5t122 -37.5zM419 257q-25 0 -35.5 16.5t-10.5 60.5q26 7 40 7q36 0 36 -38q0 -19 -8.5 -32.5t-21.5 -13.5z" />
    <glyph glyph-name="uni2790" unicode="&#x2790;" horiz-adv-x="840" 
d="M420 -5q-149 0 -254.5 105t-105.5 254t105.5 254t254.5 105t254.5 -105t105.5 -254q0 -148 -105.5 -253.5t-254.5 -105.5zM411 151l157 282v94h-271v-108h160l-162 -244z" />
    <glyph glyph-name="uni2791" unicode="&#x2791;" horiz-adv-x="840" 
d="M421 165q74 0 116 30.5t42 81.5q0 28 -18.5 52.5t-43.5 37.5q52 31 52 79q0 44 -41 70.5t-101 26.5q-63 0 -105 -24.5t-42 -78.5q0 -48 47 -79q-61 -33 -61 -91q0 -105 155 -105zM424 245q-39 0 -39 34q0 32 15 44q58 -25 58 -44q0 -34 -34 -34zM420 -5
q-149 0 -254.5 105t-105.5 254t105.5 254t254.5 105t254.5 -105t105.5 -254q0 -148 -105.5 -253.5t-254.5 -105.5zM436 402q-14 6 -20.5 9t-14 10.5t-7.5 15.5q0 26 31 26q12 0 19 -8t7 -17q0 -17 -15 -36z" />
    <glyph glyph-name="uni2792" unicode="&#x2792;" horiz-adv-x="840" 
d="M402 166q82 0 134 54t52 156q0 94 -40 131.5t-122 37.5q-69 0 -112.5 -32t-43.5 -104q0 -100 129 -100q34 0 70 22q-7 -33 -27.5 -51t-46.5 -18q-44 0 -76 9l-29 -88q58 -17 112 -17zM426 460q46 0 41 -77q-26 -7 -40 -7q-36 0 -36 38q0 20 10.5 33t24.5 13zM780 354
q0 -148 -105.5 -253.5t-254.5 -105.5t-254.5 105t-105.5 254t105.5 254t254.5 105t254.5 -105t105.5 -254z" />
    <glyph glyph-name="swing" unicode="&#x301c;" horiz-adv-x="941" 
d="M640 153q-60 0 -106 14.5t-73.5 34.5t-51.5 40.5t-54 35t-66 14.5q-40 0 -74.5 -14t-55 -30t-53.5 -47l-82 95q130 137 268 137q56 0 98 -14t67.5 -34l49 -40t56.5 -34t76 -14q103 0 190 84l88 -93q-49 -58 -126.5 -96.5t-150.5 -38.5z" />
    <glyph glyph-name="apple" unicode="&#xf8ff;" horiz-adv-x="1241" 
d="M200 377v11h11v-11h-11zM160 377v11h11v-11h-11zM160 338v10h11v-10h-11zM200 338v10h11v-10h-11zM290 338v10h11v-10h10v-10h-11v10h-10zM290 377v11h10v10h11v-11h-10v-10h-11zM240 387v11h11v-10h10v-11h-11v10h-10zM240 328v10h10v10h11v-10h-10v-10h-11zM260 357v11
h10v10h11v-10h10v-11h-10v-10h-11v10h-10zM170 357v11h10v10h11v-10h10v-11h-10v-10h-11v10h-10zM100 357v11h10v10h11v-10h10v-11h-10v-10h-11v10h-10zM371 338h-21v9h-10v30h-10v11h10v10h11v-10h20v-11h-20v-29h20v-10zM431 347h-10v-9h-10v-10h-10v-10h-11v11h10v18h-10
v41h11v-40h19v40h11v-41zM480 348v29h-19v-29h19zM491 347h-10v-9h-20v-20h-11v70h31v-10h10v-31zM540 348v29h-19v-29h19zM551 347h-10v-9h-21v9h-10v31h10v10h21v-10h10v-31zM611 338h-21v9h-10v30h-10v11h10v10h11v-10h20v-11h-20v-29h20v-10zM671 338h-11v39h-19v-39
h-11v70h11v-20h20v-10h10v-40zM720 368v9h-19v-9h19zM731 338h-31v9h-10v31h10v10h21v-10h10v-21h-30v-9h30v-10zM780 348v29h-19v-29h19zM791 318h-11v20h-20v9h-10v31h10v10h31v-70zM851 338h-31v9h-10v41h11v-40h19v40h11v-50zM900 368v9h-19v-9h19zM911 338h-31v9h-10
v31h10v10h21v-10h10v-21h-30v-9h30v-10zM1041 388v-11h-11v11h11zM1041 348v-10h-11v10h11zM1081 348v-10h-11v10h11zM1081 388v-11h-11v11h11zM941 398v-10h10v-11h-11v10h-10v11h11zM951 348v-10h-10v-10h-11v10h10v10h11zM1001 338v-10h-11v10h-10v10h11v-10h10z
M1001 398v-11h-10v-10h-11v11h10v10h11zM981 368v-11h-10v-10h-11v10h-10v11h10v10h11v-10h10zM1071 368v-11h-10v-10h-11v10h-10v11h10v10h11v-10h10zM1131 378v-10h10v-11h-10v-10h-11v10h-10v11h10v10h11z" />
    <glyph glyph-name="comma.inferior" unicode="&#xfe50;" horiz-adv-x="196" 
d="M36 -58q23 42 23 97v99h101v-72q0 -69 -45 -124h-79z" />
    <glyph glyph-name="period.inferior" unicode="&#xfe52;" horiz-adv-x="222" 
d="M60 0v107h102v-107h-102z" />
    <glyph glyph-name="dollar.inferior" unicode="&#xfe69;" horiz-adv-x="269" 
d="M164 19l3 -63h-61l3 57q-47 2 -80 14l7 71q50 -9 82 -9q42 0 42 28q0 11 -20.5 20t-45 16.5t-45 32.5t-20.5 65t23 66.5t58 34.5l-4 66h61l-4 -65q36 -5 66 -17l-13 -68q-41 12 -73 12t-32 -24q0 -16 20 -27t44 -17.5t44 -30t20 -61.5q0 -78 -75 -101z" />
    <glyph glyph-name="uni0045_uni02DA" horiz-adv-x="466" 
d="M432 0h-376v707h360v-133h-209v-157h194v-124h-194v-160h225v-133zM350 834q0 -46 -31.5 -74.5t-78.5 -28.5t-80 25.5t-33 75.5q0 48 33 78.5t78 30.5q41 0 76.5 -28t35.5 -79zM275 833q0 15 -10.5 25t-26.5 10q-36 0 -36 -33q0 -35 37 -35q36 0 36 33z" />
    <glyph glyph-name="uni0046_uni00AF" horiz-adv-x="463" 
d="M437 574h-230v-175h215v-123h-215v-276h-151v707h381v-133zM372 765h-264v114h264v-114z" />
    <glyph glyph-name="Jacute" horiz-adv-x="264" 
d="M208 161q0 -73 -5.5 -118.5t-25.5 -95.5t-63 -86t-112 -64l-60 115q66 37 90 80t24 121v594h152v-546zM281 785l-231 -44l-26 84l224 84z" />
    <glyph glyph-name="uni004E_uni00AF" horiz-adv-x="597" 
d="M541 0h-149l-187 422h-4l6 -124v-298h-151v707h163l173 -407h4l-6 124v283h151v-707zM436 765h-264v114h264v-114z" />
    <glyph glyph-name="uni0050_uni00AF" horiz-adv-x="488" 
d="M476 451q0 -110 -65.5 -180.5t-181.5 -70.5h-21v-200h-152v707h210q98 0 154 -68t56 -188zM357 765h-264v114h264v-114zM208 574v-243h26q45 0 65.5 34.5t20.5 83.5q0 54 -16.5 89.5t-52.5 35.5h-43z" />
    <glyph glyph-name="uni0052_uni0060" horiz-adv-x="564" 
d="M572 106l-37 -119q-74 4 -132 49.5t-96 115.5l-50 92h-49v-244h-152v707h210q95 0 152.5 -60t57.5 -176q0 -55 -23.5 -102.5t-61.5 -76.5l56 -75q48 -64 125 -111zM320 467q0 106 -69 106h-43v-210h26q45 0 65.5 29t20.5 75zM273 741l-231 44l33 124l224 -84z" />
    <glyph glyph-name="uni0053_uni02D8" horiz-adv-x="455" 
d="M431 211q0 -107 -70 -164.5t-157 -57.5q-106 0 -188 59l43 117q77 -36 143 -36q39 0 57 26t18 54q0 23 -18 42.5t-45.5 33t-59 34t-59 43t-45.5 62.5t-18 91q0 92 64 145t136 53q50 0 87.5 -8.5t91.5 -36.5l-43 -114q-76 24 -125 24q-32 0 -46.5 -20t-14.5 -46
q0 -18 18.5 -36.5t46 -33t60 -36.5t60 -46.5t46 -63t18.5 -85.5zM387 842q-22 -39 -66 -67t-97 -28t-96 28.5t-64 68.5l70 63q44 -45 93 -45q45 0 90 42z" />
    <glyph glyph-name="uni0056_uni00AF" horiz-adv-x="557" 
d="M561 707l-205 -707h-179l-181 707h160l94 -453l17 -134h6l20 134l112 453h156zM403 765h-264v114h264v-114z" />
    <glyph glyph-name="uni0058_uni00AF" horiz-adv-x="524" 
d="M529 0h-174l-72 185l-16 63h-4l-19 -63l-80 -185h-170l190 362l-169 345h175l64 -172l14 -55h4l15 55l74 172h169l-178 -342zM406 765h-264v114h264v-114z" />
    <glyph glyph-name="uni00CD_uni004A_uni0301" horiz-adv-x="508" 
d="M207 0h-151v707h151v-707zM452 161q0 -73 -5.5 -118.5t-25.5 -95.5t-63 -86t-112 -64l-60 115q66 37 90 80t24 121v594h152v-546zM285 785l-231 -44l-26 84l224 84zM544 785l-231 -44l-26 84l224 84z" />
    <glyph glyph-name="f.alt" horiz-adv-x="304" 
d="M349 752l-24 -130q-36 8 -81 8q-34 0 -34 -43v-41h83v-122h-83v-424h-150v424h-56v122h56v24q0 63 14 105t40 62t53 27.5t64 7.5q26 0 55.5 -5t45.5 -10z" />
    <glyph glyph-name="g.alt" horiz-adv-x="521" 
d="M495 424h-68q4 -44 4 -59q0 -81 -54.5 -128t-134.5 -47q-38 0 -80 8l-1 -55h115q96 0 143 -38t47 -123q0 -89 -58.5 -146t-169.5 -57q-208 0 -208 141q0 29 17 57t43 44q-32 23 -32 75q1 30 18 65t33 54q-24 18 -41 59.5t-17 86.5q0 83 51.5 138.5t136.5 55.5
q68 0 111 -27l145 13v-117zM299 367q0 85 -56 85q-35 0 -48 -23t-13 -66q0 -79 59 -79q58 0 58 83zM355 -42q0 52 -67 52h-124q-12 -20 -12 -50q0 -24 28.5 -43t81.5 -19q43 0 68 16.5t25 43.5z" />
    <glyph glyph-name="uni0065_uni02DA" horiz-adv-x="455" 
d="M427 222h-252q0 -95 94 -95q63 0 124 12l22 -123q-65 -25 -163 -25q-110 0 -167 61t-57 213t57 223t158 71q184 0 184 -277v-60zM275 336q5 96 -42 96t-53 -96h95zM346 716q0 -46 -31.5 -74.5t-78.5 -28.5t-80 25.5t-33 75.5q0 48 33 78.5t78 30.5q41 0 76.5 -28
t35.5 -79zM271 715q0 15 -10.5 25t-26.5 10q-36 0 -36 -33q0 -35 37 -35q36 0 36 33z" />
    <glyph glyph-name="uni0066_uni00AF" horiz-adv-x="304" 
d="M349 752l-24 -130q-36 8 -81 8q-34 0 -34 -43v-41h83v-122h-83v-424h-150v424h-56v122h56v24q0 63 14 105t40 62t53 27.5t64 7.5q26 0 55.5 -5t45.5 -10zM275 -201h-264v130h264v-130z" />
    <glyph glyph-name="jacute" horiz-adv-x="244" 
d="M197 0q0 -128 -40 -174t-131 -46q-47 0 -110 28l27 124q32 -10 61 -10q25 0 34 11.5t9 56.5v556h150v-546zM291 757l-190 -161l-73 76l168 186z" />
    <glyph glyph-name="dotlessj" horiz-adv-x="244" 
d="M197 0q0 -128 -40 -174t-131 -46q-47 0 -110 28l27 124q32 -10 61 -10q25 0 34 11.5t9 56.5v556h150v-546z" />
    <glyph glyph-name="uni006E_uni00AF" horiz-adv-x="502" 
d="M455 0h-149v338q0 35 -10.5 51.5t-35.5 16.5q-24 0 -63 -24v-382h-150v546h150v-58q16 25 53 48t65 23q46 0 75.5 -16.5t43 -49t17.5 -64.5t4 -80v-349zM382 641h-264v130h264v-130z" />
    <glyph glyph-name="uni0070_uni00AF" horiz-adv-x="488" 
d="M462 293q0 -158 -65.5 -229.5t-167.5 -71.5q-13 0 -33 2v-214h-149v766h149v-39q5 6 15 15t37.5 23.5t51.5 14.5q162 0 162 -267zM311 288q0 66 -17.5 97t-54.5 31q-13 0 -43 -10v-282q20 -4 36 -4q35 0 57 47.5t22 120.5zM375 641h-264v130h264v-130z" />
    <glyph glyph-name="uni0072_uni0060" horiz-adv-x="343" 
d="M348 548l-14 -149q-30 10 -63 10q-19 0 -41 -12t-33 -27v-370h-150v546h150v-73h6q23 84 79 84q18 0 34.5 -2.5t23.5 -4.5zM292 672l-73 -76l-190 161l95 101z" />
    <glyph glyph-name="uni0073_uni02D8" horiz-adv-x="394" 
d="M370 172q0 -85 -52 -133.5t-137 -48.5q-91 0 -158 24l16 123q81 -15 131 -15q52 0 52 33q0 19 -20 35t-49 31t-57.5 33.5t-48.5 51.5t-20 76q0 80 49.5 128t129.5 48q72 0 146 -34l-24 -119q-74 21 -119 21q-34 0 -34 -29q0 -18 20 -33t48.5 -28.5t57.5 -32t49 -52
t20 -79.5zM370 723q-23 -41 -70 -71.5t-106 -30.5q-60 0 -107 30.5t-68 71.5l70 73q44 -50 108 -50q58 0 103 49z" />
    <glyph glyph-name="germandbls.alt" horiz-adv-x="528" 
d="M510 154q0 -51 -17 -86.5t-46 -51.5t-56.5 -22.5t-59.5 -6.5q-22 0 -48 6t-41 12l-15 6l16 123q47 -13 72 -13q48 0 48 38q0 18 -13 34.5t-31 32.5t-36 35.5t-31 52t-13 74.5q0 47 28.5 107.5t28.5 89.5q0 20 -1.5 31.5t-11.5 22t-30 10.5q-27 0 -37.5 -25t-10.5 -75
v-549h-149v540q0 126 51 180.5t143 54.5q24 0 46 -3t50 -15t48.5 -31.5t35 -55.5t14.5 -84q0 -49 -15 -85.5t-29.5 -64.5t-14.5 -56q0 -20 13 -37t31.5 -32t36.5 -33.5t31 -50.5t13 -73z" />
    <glyph glyph-name="uni0076_uni00AF" horiz-adv-x="473" 
d="M472 546l-159 -546h-164l-148 546h159l62 -311l11 -92h4l11 92l68 311h156zM368 641h-264v130h264v-130z" />
    <glyph glyph-name="uni0078_uni00AF" horiz-adv-x="465" 
d="M471 0h-180l-57 178h-6l-58 -178h-176l156 279l-146 267h173l51 -166h6l53 166h172l-148 -267zM365 665h-264v130h264v-130z" />
    <glyph glyph-name="iacute_jacute" horiz-adv-x="471" 
d="M197 0h-150v546h150v-546zM424 0q0 -128 -40 -174t-131 -46q-47 0 -110 28l27 124q32 -10 61 -10q25 0 34 11.5t9 56.5v556h150v-546zM286 757l-190 -161l-73 76l168 186zM528 757l-190 -161l-73 76l168 186z" />
    <glyph glyph-name="gbreve.alt" horiz-adv-x="521" 
d="M495 424h-68q4 -44 4 -59q0 -81 -54.5 -128t-134.5 -47q-38 0 -80 8l-1 -55h115q96 0 143 -38t47 -123q0 -89 -58.5 -146t-169.5 -57q-208 0 -208 141q0 29 17 57t43 44q-32 23 -32 75q1 30 18 65t33 54q-24 18 -41 59.5t-17 86.5q0 83 51.5 138.5t136.5 55.5
q68 0 111 -27l145 13v-117zM299 367q0 85 -56 85q-35 0 -48 -23t-13 -66q0 -79 59 -79q58 0 58 83zM355 -42q0 52 -67 52h-124q-12 -20 -12 -50q0 -24 28.5 -43t81.5 -19q43 0 68 16.5t25 43.5zM422 723q-23 -41 -70 -71.5t-106 -30.5q-60 0 -107 30.5t-68 71.5l70 73
q44 -50 108 -50q58 0 103 49z" />
    <glyph glyph-name="gcircumflex.alt" horiz-adv-x="521" 
d="M495 424h-68q4 -44 4 -59q0 -81 -54.5 -128t-134.5 -47q-38 0 -80 8l-1 -55h115q96 0 143 -38t47 -123q0 -89 -58.5 -146t-169.5 -57q-208 0 -208 141q0 29 17 57t43 44q-32 23 -32 75q1 30 18 65t33 54q-24 18 -41 59.5t-17 86.5q0 83 51.5 138.5t136.5 55.5
q68 0 111 -27l145 13v-117zM299 367q0 85 -56 85q-35 0 -48 -23t-13 -66q0 -79 59 -79q58 0 58 83zM355 -42q0 52 -67 52h-124q-12 -20 -12 -50q0 -24 28.5 -43t81.5 -19q43 0 68 16.5t25 43.5zM414 700l-66 -91l-104 77l-104 -77l-64 85l170 136z" />
    <glyph glyph-name="gcommaaccent.alt" horiz-adv-x="521" 
d="M495 424h-68q4 -44 4 -59q0 -81 -54.5 -128t-134.5 -47q-38 0 -80 8l-1 -55h115q96 0 143 -38t47 -123q0 -89 -58.5 -146t-169.5 -57q-208 0 -208 141q0 29 17 57t43 44q-32 23 -32 75q1 30 18 65t33 54q-24 18 -41 59.5t-17 86.5q0 83 51.5 138.5t136.5 55.5
q68 0 111 -27l145 13v-117zM299 367q0 85 -56 85q-35 0 -48 -23t-13 -66q0 -79 59 -79q58 0 58 83zM355 -42q0 52 -67 52h-124q-12 -20 -12 -50q0 -24 28.5 -43t81.5 -19q43 0 68 16.5t25 43.5zM184 615l38 189h100l-18 -189h-120z" />
    <glyph glyph-name="gdotaccent.alt" horiz-adv-x="521" 
d="M495 424h-68q4 -44 4 -59q0 -81 -54.5 -128t-134.5 -47q-38 0 -80 8l-1 -55h115q96 0 143 -38t47 -123q0 -89 -58.5 -146t-169.5 -57q-208 0 -208 141q0 29 17 57t43 44q-32 23 -32 75q1 30 18 65t33 54q-24 18 -41 59.5t-17 86.5q0 83 51.5 138.5t136.5 55.5
q68 0 111 -27l145 13v-117zM299 367q0 85 -56 85q-35 0 -48 -23t-13 -66q0 -79 59 -79q58 0 58 83zM355 -42q0 52 -67 52h-124q-12 -20 -12 -50q0 -24 28.5 -43t81.5 -19q43 0 68 16.5t25 43.5zM329 728l-93 -94l-93 94l93 93z" />
    <glyph glyph-name="questiondown.cap" horiz-adv-x="324" 
d="M267 561h-145v146h145v-146zM300 134l-25 -139q-59 7 -97 17.5t-73.5 32.5t-52.5 60.5t-17 96.5q0 43 18 81t39 60t39 48.5t18 50.5q0 15 -3.5 28.5t-7.5 19.5l-4 7l125 27q23 -47 23 -94q0 -50 -23 -94t-45.5 -74t-22.5 -44q0 -34 20.5 -53t88.5 -31z" />
    <glyph glyph-name="question.smcp" horiz-adv-x="311" 
d="M285 446q0 -33 -16 -64t-35 -49.5t-35 -40.5t-16 -39q0 -23 9 -53l-100 -21q-16 43 -16 83q0 35 13 67.5t28.5 51.5l28.5 36t13 25q0 12 -2 18t-10.5 14.5t-30.5 14t-58 9.5l22 130q45 -4 79 -13t64 -28.5t46 -55t16 -85.5zM200 0h-125v127h125v-127z" />
    <glyph glyph-name="questiondown.smcp" horiz-adv-x="311" 
d="M26 101q0 33 16 64t35 49.5t35 40.5t16 39q0 23 -9 53l100 21q16 -43 16 -83q0 -35 -13 -67.5t-28.5 -51.5l-28.5 -36t-13 -25q0 -12 2 -18t10.5 -14.5t30.5 -14t58 -9.5l-22 -130q-45 4 -79 13t-64 28.5t-46 55t-16 85.5zM111 547h125v-127h-125v127z" />
    <glyph glyph-name="exclamdown.cap" horiz-adv-x="262" 
d="M204 561h-145v146h145v-146zM205 0h-148v297l12 190h125l11 -190v-297z" />
    <glyph glyph-name="exclam.smcp" horiz-adv-x="243" 
d="M185 413l-8 -193h-110l-8 193v194h126v-194zM185 0h-126v127h126v-127z" />
    <glyph glyph-name="exclamdown.smcp" horiz-adv-x="243" 
d="M59 133l8 193h110l8 -193v-194h-126v194zM59 546h126v-127h-126v127z" />
    <glyph glyph-name="hyphen.cap" horiz-adv-x="297" 
d="M269 290h-241v133h241v-133z" />
    <glyph glyph-name="endash.cap" horiz-adv-x="500" 
d="M471 290h-441v133h441v-133z" />
    <glyph glyph-name="emdash.cap" horiz-adv-x="700" 
d="M670 290h-640v133h640v-133z" />
    <glyph glyph-name="slash.smcp" horiz-adv-x="335" 
d="M314 616l-191 -678h-102l192 678h101z" />
    <glyph glyph-name="backslash.smcp" horiz-adv-x="343" 
d="M216 -62l-191 678h101l192 -678h-102z" />
    <glyph glyph-name="parenleft.cap" horiz-adv-x="324" 
d="M334 773q-61 -78 -85 -121q-71 -130 -71 -296q0 -75 12.5 -140.5t39 -124t46 -92t54.5 -86.5l-90 -65q-80 79 -140 208t-60 299q0 90 21 171.5t55.5 140.5t66 98t64.5 67z" />
    <glyph glyph-name="parenright.cap" horiz-adv-x="324" 
d="M93 -152l-90 65q35 53 54.5 86.5t46 92t39 124t12.5 140.5q0 78 -14.5 145t-40 117t-45.5 80t-46 63q-7 8 -10 12l87 59q33 -28 64.5 -67t66 -98t55.5 -140.5t21 -171.5q0 -170 -60 -299t-140 -208z" />
    <glyph glyph-name="bracketleft.cap" horiz-adv-x="287" 
d="M265 -150h-211v974h211v-138h-71v-698h71v-138z" />
    <glyph glyph-name="bracketright.cap" horiz-adv-x="287" 
d="M233 -150h-211v138h71v698h-71v138h211v-974z" />
    <glyph glyph-name="braceleft.cap" horiz-adv-x="298" 
d="M290 -153h-57q-164 0 -164 162q0 11 2 39l19 186q2 21 -12 33t-50 12v127q36 0 50 12t12 33l-19 186q-2 28 -2 39q0 162 164 162h57v-139q-48 0 -65 -16.5t-13 -65.5l15 -159q8 -87 -49 -113v-4q57 -26 49 -114l-15 -159q-4 -49 13 -65.5t65 -16.5v-139z" />
    <glyph glyph-name="braceright.cap" horiz-adv-x="298" 
d="M270 279q-36 0 -50 -12t-12 -33l19 -186q2 -28 2 -39q0 -162 -164 -162h-57v139q48 0 65 16.5t13 65.5l-15 159q-8 87 49 113v4q-57 26 -49 114l15 159q4 49 -13 65.5t-65 16.5v139h57q164 0 164 -162q0 -11 -2 -39l-19 -186q-2 -21 12 -33t50 -12v-127z" />
    <glyph glyph-name="section.pnum_lnum" horiz-adv-x="494" 
d="M506 707l-69 -113q-37 43 -80 43q-31 0 -31 -48q0 -29 12 -85l56 -263q18 -87 18 -176q0 -120 -92.5 -200.5t-214.5 -80.5q-73 0 -119 31l39 119q30 -26 64 -26q38 0 38 62q0 38 -17 123l-57 283q-8 43 -8 97q0 122 91.5 205t214.5 83q42 0 86.5 -14t68.5 -40zM279 105
l-70 369q-7 36 -7 66q0 22 3 40t7 25l3 7l-3 3q-5 -4 -12.5 -13t-20 -41.5t-12.5 -71.5q0 -26 6 -59l71 -353q6 -33 6 -61q0 -24 -4 -46.5t-8 -33.5l-3 -10l3 -3q5 4 12.5 13t20.5 41.5t13 72.5q0 30 -5 55z" />
    <glyph glyph-name="numbersign.pnum_lnum" horiz-adv-x="495" 
d="M480 142h-82l-7 -142h-119l6 142h-80l-7 -142h-119l7 142h-64v122h71l7 159h-78v123h86l8 161h119l-8 -161h80l8 161h119l-8 -161h61v-123h-68l-8 -159h76v-122zM293 423h-81l-8 -159h81z" />
    <glyph glyph-name="ordfeminine.smcp" horiz-adv-x="353" 
d="M306 393h-85l-17 75h-60l-16 -75h-81l89 313h82zM303 283h-254v79h254v-79zM199 522q-1 7 -3 17.5t-5.5 33.5t-6 38t-1.5 15h-15q1 0 -3.5 -26t-9.5 -52l-5 -26h49z" />
    <glyph glyph-name="quotedblleft.smcp" horiz-adv-x="463" 
d="M417 675q-29 -66 -29 -132v-135h-135v100q0 94 50 167h114zM220 675q-29 -66 -29 -132v-135h-135v100q0 94 50 167h114z" />
    <glyph glyph-name="quotedblright.smcp" horiz-adv-x="453" 
d="M407 575q0 -94 -50 -167h-114q29 66 29 132v135h135v-100zM210 575q0 -94 -50 -167h-114q29 66 29 132v135h135v-100z" />
    <glyph glyph-name="quoteleft.smcp" horiz-adv-x="276" 
d="M230 675q-29 -66 -29 -132v-135h-135v100q0 94 50 167h114z" />
    <glyph glyph-name="quoteright.smcp" horiz-adv-x="256" 
d="M210 575q0 -94 -50 -167h-114q29 66 29 132v135h135v-100z" />
    <glyph glyph-name="guilsinglright.cap" horiz-adv-x="225" 
d="M218 340l-98 -224l-106 42l67 182l-68 174l109 49z" />
    <glyph glyph-name="guilsinglleft.cap" horiz-adv-x="225" 
d="M211 524l-67 -182l68 -174l-105 -41l-100 215l98 229z" />
    <glyph glyph-name="guillemotleft.cap" horiz-adv-x="434" 
d="M420 524l-67 -182l68 -174l-109 -46l-96 220l96 225zM211 524l-67 -182l68 -174l-109 -46l-96 220l96 225z" />
    <glyph glyph-name="guillemotright.cap" horiz-adv-x="434" 
d="M427 340l-98 -232l-106 50l67 182l-68 174l111 47zM218 340l-98 -232l-106 50l67 182l-68 174l111 47z" />
    <glyph glyph-name="asterisk.alt" horiz-adv-x="315" 
d="M287 698l-72 -59l23 -94l-80 53l-81 -53l23 94l-72 59l95 8l35 86l35 -86z" />
    <glyph glyph-name="fi.alt" horiz-adv-x="548" 
d="M507 648q-58 -23 -151 -23q-15 0 -47.5 2.5t-58.5 2.5q-15 0 -27.5 -10.5t-12.5 -32.5v-41h291v-546h-150v424h-141v-424h-150v424h-56v122h56v24q0 202 179 202q20 0 60.5 -3t53.5 -3q64 -2 133 8z" />
    <glyph glyph-name="fl.alt" horiz-adv-x="548" 
d="M501 0h-150v625q-14 0 -45 2.5t-56 2.5q-15 0 -27.5 -10.5t-12.5 -32.5v-41h83v-122h-83v-424h-150v424h-56v122h56v24q0 202 179 202q20 0 60.5 -3t53.5 -3q70 -2 148 14v-780z" />
    <glyph glyph-name="f_h.alt" horiz-adv-x="806" 
d="M501 0h-150v625q-14 0 -45 2.5t-56 2.5q-15 0 -27.5 -10.5t-12.5 -32.5v-41h83v-122h-83v-424h-150v424h-56v122h56v24q0 202 179 202q20 0 60.5 -3t53.5 -3q70 -2 148 14v-289q16 25 53 48t65 23q46 0 75.5 -16.5t43 -49t17.5 -64.5t4 -80v-352h-149v341
q0 35 -10.5 51.5t-35.5 16.5q-24 0 -63 -24v-385z" />
    <glyph glyph-name="f_b.alt" horiz-adv-x="793" 
d="M60 0v424h-56v122h56v24q0 202 179 202q20 0 60.5 -3t53.5 -3q70 -2 148 14v-230q36 12 64 12q99 0 150.5 -59.5t51.5 -197.5q0 -85 -19 -147.5t-52.5 -97t-73.5 -50.5t-88 -16q-63 0 -99.5 8t-82.5 26v597q-14 0 -45.5 2.5t-56.5 2.5q-15 0 -27.5 -10.5t-12.5 -32.5v-41
h83v-122h-83v-424h-150zM543 438q-17 0 -42 -10v-299q18 -3 35 -3q35 0 57.5 52t22.5 126q0 71 -17.5 102.5t-55.5 31.5z" />
    <glyph glyph-name="f_j.alt" horiz-adv-x="554" 
d="M501 546v-549q0 -127 -40 -172t-131 -45q-54 0 -110 25l27 124q32 -10 61 -10q25 0 34 11.5t9 56.5v437h-141v-424h-150v424h-56v122h56v24q0 202 179 202q20 0 60.5 -3t53.5 -3q64 -2 133 8l21 -126q-58 -23 -151 -23q-15 0 -47.5 2.5t-58.5 2.5q-15 0 -27.5 -10.5
t-12.5 -32.5v-41h291z" />
    <glyph glyph-name="f_k.alt" horiz-adv-x="768" 
d="M501 0h-150v625q-14 0 -45 2.5t-56 2.5q-15 0 -27.5 -10.5t-12.5 -32.5v-41h83v-122h-83v-424h-150v424h-56v122h56v24q0 202 179 202q20 0 60.5 -3t53.5 -3q70 -2 148 14v-488l33 115l60 139h166l-138 -260l51 -80q27 -42 120 -107l-44 -111q-73 6 -124 48t-78 108
l-40 102l-6 16v-262z" />
    <glyph glyph-name="f_f.alt" horiz-adv-x="596" 
d="M641 752l-24 -130q-36 8 -81 8q-34 0 -34 -43v-41h83v-122h-83v-424h-150v424h-142v-424h-150v424h-56v122h56v24q0 57 16 98t43 63t57.5 31.5t65.5 9.5q81 0 165 -34q39 34 116 34q26 0 55.5 -5t45.5 -10zM210 587v-41h142v24q0 18 2 48q-52 15 -108 15q-14 0 -25 -11.5
t-11 -34.5z" />
    <glyph glyph-name="f_f_i.alt" horiz-adv-x="846" 
d="M799 648q-57 -23 -151 -23q-15 0 -47.5 2.5t-58.5 2.5q-15 0 -27.5 -10.5t-12.5 -32.5v-41h291v-546h-150v424h-141v-424h-150v424h-142v-424h-150v424h-56v122h56v24q0 57 16 98t43 63t57.5 31.5t65.5 9.5q75 0 170 -35q42 35 119 35q20 0 60.5 -3t53.5 -3q64 -2 133 8z
M210 587v-41h142v24q0 26 3 48q-54 15 -109 15q-14 0 -25 -11.5t-11 -34.5z" />
    <glyph glyph-name="f_f_l.alt" horiz-adv-x="841" 
d="M794 0h-150v625q-14 0 -45 2.5t-56 2.5q-15 0 -27.5 -10.5t-12.5 -32.5v-41h83v-122h-83v-424h-150v424h-143v-424h-150v424h-56v122h56v24q0 57 16 98t43 63t57.5 31.5t65.5 9.5q81 0 170 -36q43 36 120 36q20 0 60.5 -3t53.5 -3q70 -2 148 14v-780zM353 570q0 26 3 48
q-54 15 -110 15q-14 0 -25 -11.5t-11 -34.5v-41h143v24z" />
    <glyph glyph-name="f_f_j.alt" horiz-adv-x="816" 
d="M211 574v-28h139v24q0 38 6 68q-38 2 -69 2q-32 0 -54 -17.5t-22 -48.5zM641 424h-141v-424h-150v424h-139v-424h-150v424h-55v122h56v28q0 208 220 208q89 0 171 -21q34 11 76 11q20 0 60.5 -3t53.5 -3q64 -2 133 8l21 -126q-57 -23 -151 -23q-15 0 -47.5 2.5t-58.5 2.5
q-15 0 -27.5 -10.5t-12.5 -32.5v-41h291v-546q0 -128 -40 -174t-131 -46q-47 0 -110 28l27 124q32 -10 61 -10q25 0 34 11.5t9 56.5v434z" />
    <glyph glyph-name="Acute" horiz-adv-x="563" 
d="M432 785l-231 -44l-26 84l224 84z" />
    <glyph glyph-name="Breve" horiz-adv-x="425" 
d="M376 842q-22 -39 -66 -67t-97 -28t-96 28.5t-64 68.5l70 63q44 -45 93 -45q45 0 90 42z" />
    <glyph glyph-name="Caron" horiz-adv-x="464" 
d="M375 826l-147 -95l-147 93l48 81l97 -57l100 55z" />
    <glyph glyph-name="Circumflex" horiz-adv-x="464" 
d="M86 810l147 95l147 -93l-48 -81l-97 57l-100 -55z" />
    <glyph glyph-name="Dieresis" horiz-adv-x="480" 
d="M414 831l-81 -83l-82 83l82 82zM225 831l-82 -83l-81 83l81 82z" />
    <glyph glyph-name="Dotaccent" horiz-adv-x="238" 
d="M200 831l-82 -83l-81 83l81 82z" />
    <glyph glyph-name="Hungarumlaut" horiz-adv-x="534" 
d="M472 783l-195 -46l-25 81l186 73zM285 862l-160 -121l-56 62l140 145z" />
    <glyph glyph-name="Grave" horiz-adv-x="563" 
d="M380 741l-231 44l33 124l224 -84z" />
    <glyph glyph-name="Macron" 
d="M342 765h-264v114h264v-114z" />
    <glyph glyph-name="Tilde" horiz-adv-x="563" 
d="M460 813q-40 -57 -101 -57q-22 0 -64 13t-65 13t-45 -19l-54 60q31 37 57.5 52t65.5 15q22 0 57.5 -14t47.5 -14q19 0 55 22z" />
    <glyph glyph-name="commaaccent" horiz-adv-x="266" 
d="M190 -58l-38 -189h-100l18 189h120z" />
    <glyph glyph-name="zero.opencirc" horiz-adv-x="840" 
d="M420 -5q-149 0 -254.5 105t-105.5 254t105.5 254t254.5 105t254.5 -105t105.5 -254q0 -148 -105.5 -253.5t-254.5 -105.5zM420 72q117 0 199.5 82.5t82.5 199.5t-82.5 199.5t-199.5 82.5t-199.5 -82.5t-82.5 -199.5t82.5 -199.5t199.5 -82.5zM415 167q-48 0 -83 15.5
t-52.5 43t-25.5 57.5t-8 67t8 68.5t27 61t55.5 46.5t87.5 17q166 0 166 -182q0 -85 -41 -139.5t-134 -54.5zM418 253q30 0 40 27t10 77q0 90 -48 90q-31 0 -41.5 -24t-10.5 -71q0 -99 50 -99z" />
    <glyph glyph-name="zero.closecirc" horiz-adv-x="840" 
d="M420 -5q-149 0 -254.5 105t-105.5 254t105.5 254t254.5 105t254.5 -105t105.5 -254q0 -148 -105.5 -253.5t-254.5 -105.5zM415 167q93 0 134 54.5t41 139.5q0 182 -166 182q-51 0 -87.5 -17t-55.5 -46.5t-27 -61t-8 -68.5t8 -67t25.5 -57.5t52.5 -43t83 -15.5zM418 253
q-50 0 -50 99q0 47 10.5 71t41.5 24q48 0 48 -90q0 -50 -10 -77t-40 -27z" />
    <glyph glyph-name="zero.closecirc_fina" 
d="M130 228q117 0 117 141q0 21 -1 35.5t-7.5 34.5t-17.5 32.5t-33 21.5t-52 9q-119 0 -119 -141q0 -60 23 -96.5t90 -36.5zM132 291q-19 0 -26 17t-7 55q0 35 6 52t28 17q20 0 26.5 -17t6.5 -49q0 -38 -6.5 -56.5t-27.5 -18.5zM0 -5v718q149 0 254.5 -105t105.5 -254
t-105.5 -254t-254.5 -105z" />
    <glyph glyph-name="one.closecirc_fina" 
d="M0 -5v718q149 0 254.5 -105t105.5 -254t-105.5 -254t-254.5 -105zM92 229h89v269l-142 -3v-68h53v-198z" />
    <glyph glyph-name="two.closecirc_fina" 
d="M19 229h206v70h-102q100 50 100 114q0 37 -27 63t-75 26q-55 0 -98 -33l28 -58q27 16 53 16q13 0 21.5 -7t8.5 -17q0 -20 -34 -53.5t-81 -65.5v-55zM0 -5v718q149 0 254.5 -105t105.5 -254t-105.5 -254t-254.5 -105z" />
    <glyph glyph-name="three.closecirc_fina" 
d="M109 225q116 0 116 87q0 46 -43 63q30 14 30 52q0 75 -101 75q-47 0 -83 -18l19 -59q25 12 56 12q11 0 16.5 -6t5.5 -12q0 -14 -8.5 -21.5t-39.5 -10.5v-37q33 0 46.5 -6t13.5 -22q0 -28 -36 -28q-37 0 -66 7l-13 -64q44 -12 87 -12zM0 -5v718q149 0 254.5 -105
t105.5 -254t-105.5 -254t-254.5 -105z" />
    <glyph glyph-name="four.closecirc_fina" 
d="M123 229h79v58h37v61h-37v150h-120l-73 -149v-62h114v-58zM0 -5v718q149 0 254.5 -105t105.5 -254t-105.5 -254t-254.5 -105zM66 348l57 104v-104h-57z" />
    <glyph glyph-name="five.closecirc_fina" 
d="M102 224q50 0 83.5 25.5t33.5 70.5q0 47 -27.5 65.5t-79.5 18.5h-6v26h98v68h-175v-157q19 2 63 2q40 0 40 -31q0 -32 -32 -32q-22 0 -70 13l-14 -57q66 -12 86 -12zM0 -5v718q149 0 254.5 -105t105.5 -254t-105.5 -254t-254.5 -105z" />
    <glyph glyph-name="six.closecirc_fina" 
d="M128 227q50 0 82 23.5t32 76.5q0 73 -94 73q-24 0 -51 -16q5 23 20 36.5t34 13.5q30 0 55 -7l21 65q-43 12 -81 12q-60 0 -98 -39.5t-38 -113.5q0 -69 29 -96.5t89 -27.5zM130 289q-19 0 -25.5 13t-6.5 44q27 5 29 5q27 0 27 -28q0 -14 -7 -24t-17 -10zM0 -5v718
q149 0 254.5 -105t105.5 -254t-105.5 -254t-254.5 -105z" />
    <glyph glyph-name="seven.closecirc_fina" 
d="M108 224l114 206v68h-198v-79h117l-118 -178zM0 -5v718q149 0 254.5 -105t105.5 -254t-105.5 -254t-254.5 -105z" />
    <glyph glyph-name="eight.closecirc_fina" 
d="M126 228q54 0 84.5 22t30.5 60q0 20 -13.5 38t-31.5 27q38 24 38 58q0 33 -30 52t-74 19q-46 0 -76.5 -18t-30.5 -57q0 -35 34 -58q-45 -25 -45 -66q0 -77 114 -77zM128 286q-29 0 -29 25q0 24 11 32q43 -18 43 -32q0 -25 -25 -25zM136 401q-1 0 -5.5 2.5t-6 3t-5.5 2.5
t-5.5 3.5t-3.5 4t-3 5t-1 5.5q0 19 22 19q19 0 19 -19q0 -14 -11 -26zM0 -5v718q149 0 254.5 -105t105.5 -254t-105.5 -254t-254.5 -105z" />
    <glyph glyph-name="nine.closecirc_fina" 
d="M111 227q60 0 98 40t38 114q0 68 -29 95.5t-89 27.5q-50 0 -82 -23.5t-32 -75.5q0 -73 94 -73q24 0 51 16q-5 -24 -20 -37.5t-34 -13.5q-30 0 -55 7l-21 -64q42 -13 81 -13zM130 381q-27 0 -27 27q0 34 24 34q17 0 24 -13.5t8 -42.5q-18 -5 -29 -5zM0 -5v718
q149 0 254.5 -105t105.5 -254t-105.5 -254t-254.5 -105z" />
    <glyph glyph-name="zero.closecirc_init" 
d="M286 228q117 0 117 141q0 21 -1 35.5t-7.5 34.5t-17.5 32.5t-33 21.5t-52 9q-119 0 -119 -141q0 -60 23 -96.5t90 -36.5zM288 291q-19 0 -26 17t-7 55q0 35 6 52t28 17q20 0 26.5 -17t6.5 -49q0 -38 -6.5 -56.5t-27.5 -18.5zM420 -5q-149 0 -254.5 105t-105.5 254
t105.5 254t254.5 105v-718z" />
    <glyph glyph-name="one.closecirc_init" 
d="M420 -5q-149 0 -254.5 105t-105.5 254t105.5 254t254.5 105v-718zM281 229h89v269l-142 -3v-68h53v-198z" />
    <glyph glyph-name="two.closecirc_init" 
d="M203 229h206v70h-102q100 50 100 114q0 37 -27 63t-75 26q-55 0 -98 -33l28 -58q27 16 53 16q13 0 21.5 -7t8.5 -17q0 -20 -34 -53.5t-81 -65.5v-55zM420 -5q-149 0 -254.5 105t-105.5 254t105.5 254t254.5 105v-718z" />
    <glyph glyph-name="three.closecirc_init" 
d="M290 225q116 0 116 87q0 46 -43 63q30 14 30 52q0 75 -101 75q-47 0 -83 -18l19 -59q25 12 56 12q11 0 16.5 -6t5.5 -12q0 -14 -8.5 -21.5t-39.5 -10.5v-37q33 0 46.5 -6t13.5 -22q0 -28 -36 -28q-37 0 -66 7l-13 -64q44 -12 87 -12zM420 -5q-149 0 -254.5 105
t-105.5 254t105.5 254t254.5 105v-718z" />
    <glyph glyph-name="four.closecirc_init" 
d="M294 229h79v58h37v61h-37v150h-120l-73 -149v-62h114v-58zM420 -5q-149 0 -254.5 105t-105.5 254t105.5 254t254.5 105v-718zM237 348l57 104v-104h-57z" />
    <glyph glyph-name="five.closecirc_init" 
d="M287 224q50 0 83.5 25.5t33.5 70.5q0 47 -27.5 65.5t-79.5 18.5h-6v26h98v68h-175v-157q19 2 63 2q40 0 40 -31q0 -32 -32 -32q-22 0 -70 13l-14 -57q66 -12 86 -12zM420 -5q-149 0 -254.5 105t-105.5 254t105.5 254t254.5 105v-718z" />
    <glyph glyph-name="six.closecirc_init" 
d="M296 227q50 0 82 23.5t32 76.5q0 73 -94 73q-24 0 -51 -16q5 23 20 36.5t34 13.5q30 0 55 -7l21 65q-43 12 -81 12q-60 0 -98 -39.5t-38 -113.5q0 -69 29 -96.5t89 -27.5zM298 289q-19 0 -25.5 13t-6.5 44q28 5 29 5q27 0 27 -28q0 -14 -7 -24t-17 -10zM420 -5
q-149 0 -254.5 105t-105.5 254t105.5 254t254.5 105v-718z" />
    <glyph glyph-name="seven.closecirc_init" 
d="M420 -5q-149 0 -254.5 105t-105.5 254t105.5 254t254.5 105v-718zM299 224l114 206v68h-198v-79h117l-118 -178z" />
    <glyph glyph-name="eight.closecirc_init" 
d="M296 228q54 0 84.5 22t30.5 60q0 20 -13.5 38t-31.5 27q38 24 38 58q0 33 -30 52t-74 19q-46 0 -76.5 -18t-30.5 -57q0 -35 34 -58q-45 -25 -45 -66q0 -77 114 -77zM298 286q-29 0 -29 25q0 24 11 32q43 -18 43 -32q0 -25 -25 -25zM306 401q-1 0 -5.5 2.5t-6 3t-5.5 2.5
t-5.5 3.5t-3.5 4t-3 5t-1 5.5q0 19 22 19q19 0 19 -19q0 -14 -11 -26zM420 -5q-149 0 -254.5 105t-105.5 254t105.5 254t254.5 105v-718z" />
    <glyph glyph-name="nine.closecirc_init" 
d="M274 227q60 0 98 40t38 114q0 68 -29 95.5t-89 27.5q-50 0 -82 -23.5t-32 -75.5q0 -73 94 -73q24 0 51 16q-5 -24 -20 -37.5t-34 -13.5q-30 0 -55 7l-21 -64q42 -13 81 -13zM293 381q-27 0 -27 27q0 34 24 34q17 0 24 -13.5t8 -42.5q-18 -5 -29 -5zM420 -5
q-149 0 -254.5 105t-105.5 254t105.5 254t254.5 105v-718z" />
    <glyph glyph-name="zero.closecirc_medi" horiz-adv-x="230" 
d="M113 228q66 0 90.5 38t24.5 103q0 22 -1 36t-7 34t-17 32.5t-32.5 21.5t-51.5 9t-52 -8.5t-34 -22t-19.5 -33t-9.5 -37.5t-2 -40q0 -28 3.5 -48.5t14.5 -41.5t34.5 -32t58.5 -11zM115 286q-19 0 -26 19t-7 58q0 24 1.5 37.5t9.5 25.5t23 12q33 0 33 -72q0 -39 -6.5 -59.5
t-27.5 -20.5zM0 -5v718h230v-718h-230z" />
    <glyph glyph-name="one.closecirc_medi" horiz-adv-x="230" 
d="M92 229h89v269l-142 -3v-68h53v-198zM0 -5v718h230v-718h-230z" />
    <glyph glyph-name="two.closecirc_medi" horiz-adv-x="230" 
d="M11 229h206v70h-102q100 50 100 114q0 37 -27 63t-75 26q-55 0 -98 -33l28 -58q27 16 53 16q13 0 21.5 -7t8.5 -17q0 -20 -34 -53.5t-81 -65.5v-55zM0 -5v718h230v-718h-230z" />
    <glyph glyph-name="three.closecirc_medi" horiz-adv-x="230" 
d="M100 225q116 0 116 87q0 46 -43 63q30 14 30 52q0 75 -101 75q-47 0 -83 -18l19 -59q25 12 56 12q11 0 16.5 -6t5.5 -12q0 -14 -8.5 -21.5t-39.5 -10.5v-37q33 0 46.5 -6t13.5 -22q0 -28 -36 -28q-37 0 -66 7l-13 -64q44 -12 87 -12zM0 -5v718h230v-718h-230z" />
    <glyph glyph-name="four.closecirc_medi" horiz-adv-x="230" 
d="M114 229h79v58h33v61h-33v150h-120l-69 -149v-62h110v-58zM0 -5v718h230v-718h-230zM57 348l57 104v-104h-57z" />
    <glyph glyph-name="five.closecirc_medi" horiz-adv-x="230" 
d="M99 224q50 0 83.5 25.5t33.5 70.5q0 47 -27.5 65.5t-79.5 18.5h-6v26h98v68h-175v-157q19 2 63 2q40 0 40 -31q0 -32 -32 -32q-22 0 -70 13l-14 -57q66 -12 86 -12zM0 -5v718h230v-718h-230z" />
    <glyph glyph-name="six.closecirc_medi" horiz-adv-x="230" 
d="M117 227q110 0 110 100q0 73 -90 73q-24 0 -51 -16q5 23 20 36.5t34 13.5q30 0 55 -7l21 65q-43 12 -81 12q-59 0 -95 -39t-36 -114q0 -70 27 -97t86 -27zM119 289q-19 0 -25.5 13t-6.5 44q27 5 29 5q27 0 27 -28q0 -14 -7 -24t-17 -10zM0 -5v718h230v-718h-230z" />
    <glyph glyph-name="seven.closecirc_medi" horiz-adv-x="230" 
d="M100 224l114 206v68h-198v-79h117l-118 -178zM0 -5v718h230v-718h-230z" />
    <glyph glyph-name="eight.closecirc_medi" horiz-adv-x="230" 
d="M114 228q53 0 82.5 22t29.5 60q0 21 -12 38.5t-30 26.5q38 24 38 58q0 33 -30 52t-74 19q-46 0 -76.5 -18t-30.5 -57q0 -35 34 -58q-41 -22 -41 -66q0 -42 28 -59.5t82 -17.5zM116 286q-29 0 -29 25q0 24 11 32q43 -18 43 -32q0 -25 -25 -25zM124 401q-1 0 -5.5 2.5t-6 3
t-5.5 2.5t-5.5 3.5t-3.5 4t-3 5t-1 5.5q0 19 22 19q19 0 19 -19q0 -14 -11 -26zM0 -5v718h230v-718h-230z" />
    <glyph glyph-name="nine.closecirc_medi" horiz-adv-x="230" 
d="M95 227q59 0 95.5 39.5t36.5 114.5q0 69 -27.5 96t-86.5 27q-110 0 -110 -99q0 -41 23.5 -57t66.5 -16q24 0 51 16q-5 -24 -20 -37.5t-34 -13.5q-30 0 -55 7l-21 -64q42 -13 81 -13zM114 381q-27 0 -27 27q0 34 24 34q17 0 24 -13.5t8 -42.5q-18 -5 -29 -5zM0 -5v718h230
v-718h-230z" />
    <glyph glyph-name="zero.opencirc_fina" 
d="M0 -5v77q117 0 199.5 82.5t82.5 199.5t-82.5 199.5t-199.5 82.5v77q149 0 254.5 -105t105.5 -254t-105.5 -254t-254.5 -105zM130 228q-67 0 -90 36.5t-23 96.5q0 141 119 141q30 0 52 -9t33 -21.5t17.5 -32.5t7.5 -34.5t1 -35.5q0 -141 -117 -141zM132 291
q21 0 27.5 18.5t6.5 56.5q0 21 -2 33.5t-9.5 22.5t-21.5 10q-22 0 -28 -17t-6 -52q0 -38 7 -55t26 -17z" />
    <glyph glyph-name="one.opencirc_fina" 
d="M0 -5v77q117 0 199.5 82.5t82.5 199.5t-82.5 199.5t-199.5 82.5v77q149 0 254.5 -105t105.5 -254t-105.5 -254t-254.5 -105zM92 229v198h-53v68l142 3v-269h-89z" />
    <glyph glyph-name="two.opencirc_fina" 
d="M19 229v55q47 32 81 65.5t34 53.5q0 10 -8.5 17t-21.5 7q-26 0 -53 -16l-28 58q43 33 98 33q48 0 75 -26t27 -63q0 -64 -100 -114h102v-70h-206zM0 -5v77q117 0 199.5 82.5t82.5 199.5t-82.5 199.5t-199.5 82.5v77q149 0 254.5 -105t105.5 -254t-105.5 -254t-254.5 -105z
" />
    <glyph glyph-name="three.opencirc_fina" 
d="M109 225q-43 0 -87 12l13 64q29 -7 66 -7q36 0 36 28q0 16 -13.5 22t-46.5 6v37q31 3 39.5 10.5t8.5 21.5q0 6 -5.5 12t-16.5 6q-31 0 -56 -12l-19 59q36 18 83 18q101 0 101 -75q0 -38 -30 -52q43 -17 43 -63q0 -87 -116 -87zM0 -5v77q117 0 199.5 82.5t82.5 199.5
t-82.5 199.5t-199.5 82.5v77q149 0 254.5 -105t105.5 -254t-105.5 -254t-254.5 -105z" />
    <glyph glyph-name="four.opencirc_fina" 
d="M0 -5v77q117 0 199.5 82.5t82.5 199.5t-82.5 199.5t-199.5 82.5v77q149 0 254.5 -105t105.5 -254t-105.5 -254t-254.5 -105zM123 229v58h-114v62l73 149h120v-150h37v-61h-37v-58h-79zM66 348h57v104z" />
    <glyph glyph-name="five.opencirc_fina" 
d="M102 224q-20 0 -86 12l14 57q48 -13 70 -13q32 0 32 32q0 31 -40 31q-44 0 -63 -2v157h175v-68h-98v-26h6q52 0 79.5 -18.5t27.5 -65.5q0 -45 -33.5 -70.5t-83.5 -25.5zM0 -5v77q117 0 199.5 82.5t82.5 199.5t-82.5 199.5t-199.5 82.5v77q149 0 254.5 -105t105.5 -254
t-105.5 -254t-254.5 -105z" />
    <glyph glyph-name="six.opencirc_fina" 
d="M128 227q-60 0 -89 27.5t-29 96.5q0 74 38 113.5t98 39.5q38 0 81 -12l-21 -65q-25 7 -55 7q-19 0 -34 -13.5t-20 -36.5q27 16 51 16q94 0 94 -73q0 -53 -32 -76.5t-82 -23.5zM0 -5v77q117 0 199.5 82.5t82.5 199.5t-82.5 199.5t-199.5 82.5v77q149 0 254.5 -105
t105.5 -254t-105.5 -254t-254.5 -105zM130 289q10 0 17 10t7 24q0 28 -27 28q-1 0 -29 -5q0 -31 6.5 -44t25.5 -13z" />
    <glyph glyph-name="seven.opencirc_fina" 
d="M0 -5v77q117 0 199.5 82.5t82.5 199.5t-82.5 199.5t-199.5 82.5v77q149 0 254.5 -105t105.5 -254t-105.5 -254t-254.5 -105zM108 224l-85 17l118 178h-117v79h198v-68z" />
    <glyph glyph-name="eight.opencirc_fina" 
d="M126 228q-114 0 -114 77q0 41 45 66q-34 23 -34 58q0 39 30.5 57t76.5 18q44 0 74 -19t30 -52q0 -34 -38 -58q18 -9 31.5 -27t13.5 -38q0 -38 -30.5 -60t-84.5 -22zM0 -5v77q117 0 199.5 82.5t82.5 199.5t-82.5 199.5t-199.5 82.5v77q149 0 254.5 -105t105.5 -254
t-105.5 -254t-254.5 -105zM128 286q25 0 25 25q0 14 -43 32q-11 -8 -11 -32q0 -25 29 -25zM136 401q11 12 11 26q0 19 -19 19q-22 0 -22 -19q0 -3 1 -5.5t3 -5t3.5 -4t5.5 -3.5t5.5 -2.5t6 -3t5.5 -2.5z" />
    <glyph glyph-name="nine.opencirc_fina" 
d="M111 227q-39 0 -81 13l21 64q25 -7 55 -7q19 0 34 13.5t20 37.5q-27 -16 -51 -16q-94 0 -94 73q0 52 32 75.5t82 23.5q60 0 89 -27.5t29 -95.5q0 -74 -38 -114t-98 -40zM0 -5v77q117 0 199.5 82.5t82.5 199.5t-82.5 199.5t-199.5 82.5v77q149 0 254.5 -105t105.5 -254
t-105.5 -254t-254.5 -105zM130 381q11 0 29 5q-1 29 -8 42.5t-24 13.5q-24 0 -24 -34q0 -27 27 -27z" />
    <glyph glyph-name="zero.opencirc_init" 
d="M420 -5q-149 0 -254.5 105t-105.5 254t105.5 254t254.5 105v-77q-117 0 -199.5 -82.5t-82.5 -199.5t82.5 -199.5t199.5 -82.5v-77zM286 228q-67 0 -90 36.5t-23 96.5q0 141 119 141q30 0 52 -9t33 -21.5t17.5 -32.5t7.5 -34.5t1 -35.5q0 -141 -117 -141zM288 291
q21 0 27.5 18.5t6.5 56.5q0 21 -2 33.5t-9.5 22.5t-21.5 10q-22 0 -28 -17t-6 -52q0 -38 7 -55t26 -17z" />
    <glyph glyph-name="one.opencirc_init" 
d="M420 -5q-149 0 -254.5 105t-105.5 254t105.5 254t254.5 105v-77q-117 0 -199.5 -82.5t-82.5 -199.5t82.5 -199.5t199.5 -82.5v-77zM281 229v198h-53v68l142 3v-269h-89z" />
    <glyph glyph-name="two.opencirc_init" 
d="M203 229v55q47 32 81 65.5t34 53.5q0 10 -8.5 17t-21.5 7q-26 0 -53 -16l-28 58q43 33 98 33q48 0 75 -26t27 -63q0 -64 -100 -114h102v-70h-206zM420 -5q-149 0 -254.5 105t-105.5 254t105.5 254t254.5 105v-77q-117 0 -199.5 -82.5t-82.5 -199.5t82.5 -199.5
t199.5 -82.5v-77z" />
    <glyph glyph-name="three.opencirc_init" 
d="M290 225q-43 0 -87 12l13 64q29 -7 66 -7q36 0 36 28q0 16 -13.5 22t-46.5 6v37q31 3 39.5 10.5t8.5 21.5q0 6 -5.5 12t-16.5 6q-31 0 -56 -12l-19 59q36 18 83 18q101 0 101 -75q0 -38 -30 -52q43 -17 43 -63q0 -87 -116 -87zM420 -5q-149 0 -254.5 105t-105.5 254
t105.5 254t254.5 105v-77q-117 0 -199.5 -82.5t-82.5 -199.5t82.5 -199.5t199.5 -82.5v-77z" />
    <glyph glyph-name="four.opencirc_init" 
d="M420 -5q-149 0 -254.5 105t-105.5 254t105.5 254t254.5 105v-77q-117 0 -199.5 -82.5t-82.5 -199.5t82.5 -199.5t199.5 -82.5v-77zM294 229v58h-114v62l73 149h120v-150h37v-61h-37v-58h-79zM237 348h57v104z" />
    <glyph glyph-name="five.opencirc_init" 
d="M287 224q-20 0 -86 12l14 57q48 -13 70 -13q32 0 32 32q0 31 -40 31q-44 0 -63 -2v157h175v-68h-98v-26h6q52 0 79.5 -18.5t27.5 -65.5q0 -45 -33.5 -70.5t-83.5 -25.5zM420 -5q-149 0 -254.5 105t-105.5 254t105.5 254t254.5 105v-77q-117 0 -199.5 -82.5t-82.5 -199.5
t82.5 -199.5t199.5 -82.5v-77z" />
    <glyph glyph-name="six.opencirc_init" 
d="M296 227q-60 0 -89 27.5t-29 96.5q0 74 38 113.5t98 39.5q38 0 81 -12l-21 -65q-25 7 -55 7q-19 0 -34 -13.5t-20 -36.5q27 16 51 16q94 0 94 -73q0 -53 -32 -76.5t-82 -23.5zM420 -5q-149 0 -254.5 105t-105.5 254t105.5 254t254.5 105v-77q-117 0 -199.5 -82.5
t-82.5 -199.5t82.5 -199.5t199.5 -82.5v-77zM298 289q10 0 17 10t7 24q0 28 -27 28q-1 0 -29 -5q0 -31 6.5 -44t25.5 -13z" />
    <glyph glyph-name="seven.opencirc_init" 
d="M420 -5q-149 0 -254.5 105t-105.5 254t105.5 254t254.5 105v-77q-117 0 -199.5 -82.5t-82.5 -199.5t82.5 -199.5t199.5 -82.5v-77zM299 224l-85 17l118 178h-117v79h198v-68z" />
    <glyph glyph-name="eight.opencirc_init" 
d="M296 228q-114 0 -114 77q0 41 45 66q-34 23 -34 58q0 39 30.5 57t76.5 18q44 0 74 -19t30 -52q0 -34 -38 -58q18 -9 31.5 -27t13.5 -38q0 -38 -30.5 -60t-84.5 -22zM420 -5q-149 0 -254.5 105t-105.5 254t105.5 254t254.5 105v-77q-117 0 -199.5 -82.5t-82.5 -199.5
t82.5 -199.5t199.5 -82.5v-77zM298 286q25 0 25 25q0 14 -43 32q-11 -8 -11 -32q0 -25 29 -25zM306 401q11 12 11 26q0 19 -19 19q-22 0 -22 -19q0 -3 1 -5.5t3 -5t3.5 -4t5.5 -3.5t5.5 -2.5t6 -3t5.5 -2.5z" />
    <glyph glyph-name="nine.opencirc_init" 
d="M274 227q-39 0 -81 13l21 64q25 -7 55 -7q19 0 34 13.5t20 37.5q-27 -16 -51 -16q-94 0 -94 73q0 52 32 75.5t82 23.5q60 0 89 -27.5t29 -95.5q0 -74 -38 -114t-98 -40zM420 -5q-149 0 -254.5 105t-105.5 254t105.5 254t254.5 105v-77q-117 0 -199.5 -82.5t-82.5 -199.5
t82.5 -199.5t199.5 -82.5v-77zM293 381q11 0 29 5q-1 29 -8 42.5t-24 13.5q-24 0 -24 -34q0 -27 27 -27z" />
    <glyph glyph-name="zero.opencirc_medi" horiz-adv-x="230" 
d="M113 228q-67 0 -90 36.5t-23 96.5q0 141 119 141q30 0 52 -9t33 -21.5t17.5 -32.5t7.5 -34.5t1 -35.5q0 -141 -117 -141zM115 291q21 0 27.5 18.5t6.5 56.5q0 21 -2 33.5t-9.5 22.5t-21.5 10q-22 0 -28 -17t-6 -52q0 -38 7 -55t26 -17zM0 -5v77h230v-77h-230zM0 636v77
h230v-77h-230z" />
    <glyph glyph-name="one.opencirc_medi" horiz-adv-x="230" 
d="M92 229v198h-53v68l142 3v-269h-89zM0 -5v77h230v-77h-230zM0 636v77h230v-77h-230z" />
    <glyph glyph-name="two.opencirc_medi" horiz-adv-x="230" 
d="M11 229v55q47 32 81 65.5t34 53.5q0 10 -8.5 17t-21.5 7q-26 0 -53 -16l-28 58q43 33 98 33q48 0 75 -26t27 -63q0 -64 -100 -114h102v-70h-206zM0 -5v77h230v-77h-230zM0 636v77h230v-77h-230z" />
    <glyph glyph-name="three.opencirc_medi" horiz-adv-x="230" 
d="M100 225q-43 0 -87 12l13 64q29 -7 66 -7q36 0 36 28q0 16 -13.5 22t-46.5 6v37q31 3 39.5 10.5t8.5 21.5q0 6 -5.5 12t-16.5 6q-31 0 -56 -12l-19 59q36 18 83 18q101 0 101 -75q0 -38 -30 -52q43 -17 43 -63q0 -87 -116 -87zM0 -5v77h230v-77h-230zM0 636v77h230v-77
h-230z" />
    <glyph glyph-name="four.opencirc_medi" horiz-adv-x="230" 
d="M114 229v58h-114v62l73 149h120v-150h37v-61h-37v-58h-79zM0 -5v77h230v-77h-230zM0 636v77h230v-77h-230zM57 348h57v104z" />
    <glyph glyph-name="five.opencirc_medi" horiz-adv-x="230" 
d="M99 224q-20 0 -86 12l14 57q48 -13 70 -13q32 0 32 32q0 31 -40 31q-44 0 -63 -2v157h175v-68h-98v-26h6q52 0 79.5 -18.5t27.5 -65.5q0 -45 -33.5 -70.5t-83.5 -25.5zM0 -5v77h230v-77h-230zM0 636v77h230v-77h-230z" />
    <glyph glyph-name="six.opencirc_medi" horiz-adv-x="230" 
d="M117 227q-60 0 -89 27.5t-29 96.5q0 74 38 113.5t98 39.5q38 0 81 -12l-21 -65q-25 7 -55 7q-19 0 -34 -13.5t-20 -36.5q27 16 51 16q94 0 94 -73q0 -53 -32 -76.5t-82 -23.5zM119 289q10 0 17 10t7 24q0 28 -27 28q-2 0 -29 -5q0 -31 6.5 -44t25.5 -13zM0 -5v77h230v-77
h-230zM0 636v77h230v-77h-230z" />
    <glyph glyph-name="seven.opencirc_medi" horiz-adv-x="230" 
d="M100 224l-85 17l118 178h-117v79h198v-68zM0 -5v77h230v-77h-230zM0 636v77h230v-77h-230z" />
    <glyph glyph-name="eight.opencirc_medi" horiz-adv-x="230" 
d="M114 228q-114 0 -114 77q0 41 45 66q-34 23 -34 58q0 39 30.5 57t76.5 18q44 0 74 -19t30 -52q0 -34 -38 -58q18 -9 31.5 -27t13.5 -38q0 -38 -30.5 -60t-84.5 -22zM116 286q25 0 25 25q0 14 -43 32q-11 -8 -11 -32q0 -25 29 -25zM124 401q11 12 11 26q0 19 -19 19
q-22 0 -22 -19q0 -3 1 -5.5t3 -5t3.5 -4t5.5 -3.5t5.5 -2.5t6 -3t5.5 -2.5zM0 -5v77h230v-77h-230zM0 636v77h230v-77h-230z" />
    <glyph glyph-name="nine.opencirc_medi" horiz-adv-x="230" 
d="M95 227q-39 0 -81 13l21 64q25 -7 55 -7q19 0 34 13.5t20 37.5q-27 -16 -51 -16q-94 0 -94 73q0 52 32 75.5t82 23.5q60 0 89 -27.5t29 -95.5q0 -74 -38 -114t-98 -40zM114 381q11 0 29 5q-1 29 -8 42.5t-24 13.5q-24 0 -24 -34q0 -27 27 -27zM0 -5v77h230v-77h-230z
M0 636v77h230v-77h-230z" />
    <glyph glyph-name="zero.tnum_lnum_zero" horiz-adv-x="470" 
d="M461 363q0 -77 -11.5 -141t-37 -117.5t-72 -83.5t-110.5 -30q-222 0 -222 352q0 56 6 105t22 99t41.5 85.5t67.5 58t97 22.5q219 0 219 -350zM158 346q0 -62 3 -90l117 302q-16 18 -40 18q-27 0 -44 -17.5t-24.5 -50t-9.5 -60.5t-2 -68v-34zM312 360q0 52 -3 95
l-119 -304q15 -23 43 -23q19 0 33.5 9.5t22.5 29.5t13 38t7 49t2.5 47.5t0.5 47.5v11z" />
    <glyph glyph-name="zero.pnum_lnum" horiz-adv-x="515" 
d="M484 363q0 -77 -11.5 -141t-37 -117.5t-72 -83.5t-110.5 -30q-222 0 -222 352q0 56 6 105t22 99t41.5 85.5t67.5 58t97 22.5q219 0 219 -350zM335 360q0 50 -2 81.5t-8.5 66t-22.5 51.5t-41 17q-27 0 -44 -17.5t-24.5 -50t-9.5 -60.5t-2 -68v-34q0 -100 15 -159t60 -59
q19 0 33.5 9.5t22.5 29.5t13 38t7 49t2.5 47.5t0.5 47.5v11z" />
    <glyph glyph-name="one.pnum_lnum" horiz-adv-x="333" 
d="M262 0h-148v568h-101v132l249 9v-709z" />
    <glyph glyph-name="two.pnum_lnum" horiz-adv-x="423" 
d="M395 0h-382v111l42.5 53t60.5 78t55.5 80.5t47.5 88.5t17 74q0 96 -65 96q-28 0 -54.5 -8t-39.5 -16l-13 -8l-40 112q8 6 22 15t56.5 24t85.5 15q111 0 158 -58.5t47 -165.5q0 -27 -6 -55t-14 -50t-24.5 -50t-27.5 -44.5t-34.5 -45.5t-33 -39.5l-36 -39.5t-31.5 -35h209
v-132z" />
    <glyph glyph-name="three.pnum_lnum" horiz-adv-x="409" 
d="M383 213q0 -224 -216 -224q-47 0 -85.5 7t-53.5 14l-15 7l27 130q54 -18 115 -18q78 0 78 84q0 48 -25 69t-106 28v110q66 6 87.5 24.5t21.5 60.5q0 74 -59 74q-19 0 -41.5 -5.5t-35.5 -10.5l-13 -5l-40 112q6 5 17 13t49 21t82 13q84 0 135.5 -49.5t51.5 -139.5
q0 -50 -16 -86t-32 -48l-16 -11l10 -5t21.5 -17t27.5 -31t21.5 -48.5t9.5 -68.5z" />
    <glyph glyph-name="four.pnum_lnum" horiz-adv-x="463" 
d="M435 144h-70v-144h-145v144h-216v135l175 428h186v-431h70v-132zM220 276v252h-6l-18 -88l-54 -164h78z" />
    <glyph glyph-name="five.pnum_lnum" horiz-adv-x="447" 
d="M416 232q0 -109 -58 -176t-165 -67q-90 0 -155 29l33 133q52 -21 117 -21q38 0 58.5 26.5t20.5 65.5q0 53 -28.5 73t-83.5 20q-16 0 -48 -2t-48 -2v396h329v-132h-183v-136q2 0 5 0.5t5 0.5q201 0 201 -208z" />
    <glyph glyph-name="six.pnum_lnum" horiz-adv-x="480" 
d="M456 244q0 -107 -51.5 -182t-153.5 -75q-54 0 -94 19.5t-62.5 49.5t-36.5 74.5t-18 86t-4 92.5q0 58 5.5 109.5t23 107.5t45 96t75.5 66t111 26q84 0 133 -25l-26 -126q-38 12 -104 12q-86 0 -107 -120q35 10 75 10q97 0 143 -59.5t46 -161.5zM242 338q-16 0 -58 -7v-8
q0 -119 16 -159q17 -45 56 -45q27 0 38.5 38t11.5 74q0 25 -1.5 39t-7 32.5t-19.5 27t-36 8.5z" />
    <glyph glyph-name="seven.pnum_lnum" horiz-adv-x="382" 
d="M378 584l-228 -598l-143 40l227 544h-226v137h370v-123z" />
    <glyph glyph-name="eight.pnum_lnum" horiz-adv-x="478" 
d="M452 191q0 -102 -59 -151.5t-157 -49.5q-95 0 -152.5 45t-57.5 143q0 63 28.5 108t78.5 84q-87 76 -87 162q0 94 54 138t144 44q86 0 139.5 -47.5t53.5 -123.5q0 -87 -98 -174q34 -27 55 -48t39.5 -56.5t18.5 -73.5zM290 524q0 25 -11 45t-39 20q-27 0 -39 -19t-12 -45
q0 -37 47 -91q54 46 54 90zM301 204q0 48 -66 100q-60 -49 -60 -108q0 -74 65 -74q61 0 61 82z" />
    <glyph glyph-name="nine.pnum_lnum" horiz-adv-x="475" 
d="M444 392q0 -61 -2.5 -104.5t-10 -94t-24 -84.5t-41.5 -63.5t-65.5 -44t-93.5 -14.5q-93 0 -138 23l18 127q45 -14 117 -14q42 0 62 27.5t27 95.5q-36 -10 -73 -10q-97 0 -143 59.5t-46 161.5q0 107 51.5 182t153.5 75q208 0 208 -322zM244 363q27 0 53 7q0 36 -0.5 53.5
t-2 47t-6 45t-11.5 32.5t-18.5 24t-27.5 7q-27 0 -38.5 -37t-11.5 -72q0 -25 1 -38.5t6.5 -32.5t19.5 -27.5t36 -8.5z" />
    <glyph glyph-name="zero.tnum_lnum" horiz-adv-x="470" 
d="M461 363q0 -77 -11.5 -141t-37 -117.5t-72 -83.5t-110.5 -30q-222 0 -222 352q0 56 6 105t22 99t41.5 85.5t67.5 58t97 22.5q219 0 219 -350zM312 360q0 50 -2 81.5t-8.5 66t-22.5 51.5t-41 17q-27 0 -44 -17.5t-24.5 -50t-9.5 -60.5t-2 -68v-34q0 -100 15 -159t60 -59
q19 0 33.5 9.5t22.5 29.5t13 38t7 49t2.5 47.5t0.5 47.5v11z" />
    <glyph glyph-name="one.tnum_lnum" horiz-adv-x="470" 
d="M431 0h-392v133h123v436h-123v131l270 9v-576h122v-133z" />
    <glyph glyph-name="two.tnum_lnum" horiz-adv-x="470" 
d="M426 0h-382v111l42.5 53t60.5 78t55.5 80.5t47.5 88.5t17 74q0 96 -65 96q-28 0 -54.5 -8t-39.5 -16l-13 -8l-40 112q8 6 22 15t56.5 24t85.5 15q111 0 158 -58.5t47 -165.5q0 -27 -6 -55t-14 -50t-24.5 -50t-27.5 -44.5t-34.5 -45.5t-33 -39.5l-36 -39.5t-31.5 -35h209
v-132z" />
    <glyph glyph-name="three.tnum_lnum" horiz-adv-x="470" 
d="M420 213q0 -224 -216 -224q-47 0 -85.5 7t-53.5 14l-15 7l27 130q54 -18 115 -18q78 0 78 84q0 48 -25 69t-106 28v110q66 6 87.5 24.5t21.5 60.5q0 74 -59 74q-19 0 -41.5 -5.5t-35.5 -10.5l-13 -5l-40 112q6 5 17 13t49 21t82 13q84 0 135.5 -49.5t51.5 -139.5
q0 -50 -16 -86t-32 -48l-16 -11l10 -5t21.5 -17t27.5 -31t21.5 -48.5t9.5 -68.5z" />
    <glyph glyph-name="four.tnum_lnum" horiz-adv-x="470" 
d="M450 144h-70v-144h-145v144h-216v135l175 428h186v-431h70v-132zM235 276v252h-6l-18 -88l-54 -164h78z" />
    <glyph glyph-name="five.tnum_lnum" horiz-adv-x="470" 
d="M424 232q0 -109 -58 -176t-165 -67q-90 0 -155 29l33 133q53 -21 117 -21q38 0 58.5 26.5t20.5 65.5q0 53 -28.5 73t-83.5 20q-16 0 -48 -2t-48 -2v396h329v-132h-183v-136q2 0 5 0.5t5 0.5q201 0 201 -208z" />
    <glyph glyph-name="six.tnum_lnum" horiz-adv-x="470" 
d="M448 244q0 -107 -51.5 -182t-153.5 -75q-54 0 -94 19.5t-62.5 49.5t-36.5 74.5t-18 86t-4 92.5q0 58 5.5 109.5t23 107.5t45 96t75.5 66t111 26q84 0 133 -25l-26 -126q-38 12 -104 12q-86 0 -107 -120q35 10 75 10q97 0 143 -59.5t46 -161.5zM234 338q-16 0 -58 -7v-8
q0 -119 16 -159q17 -45 56 -45q27 0 38.5 38t11.5 74q0 25 -1.5 39t-7 32.5t-19.5 27t-36 8.5z" />
    <glyph glyph-name="seven.tnum_lnum" horiz-adv-x="470" 
d="M420 584l-226 -597l-145 39l227 544h-226v137h370v-123z" />
    <glyph glyph-name="eight.tnum_lnum" horiz-adv-x="470" 
d="M448 191q0 -102 -59 -151.5t-157 -49.5q-95 0 -152.5 45t-57.5 143q0 63 28.5 108t78.5 84q-87 76 -87 162q0 94 54 138t144 44q86 0 139.5 -47.5t53.5 -123.5q0 -87 -98 -174q34 -27 55 -48t39.5 -56.5t18.5 -73.5zM286 524q0 25 -11 45t-39 20q-27 0 -39 -19t-12 -45
q0 -37 47 -91q54 46 54 90zM297 204q0 48 -66 100q-60 -49 -60 -108q0 -74 65 -74q61 0 61 82z" />
    <glyph glyph-name="nine.tnum_lnum" horiz-adv-x="470" 
d="M444 392q0 -61 -2.5 -104.5t-10 -94t-24 -84.5t-41.5 -63.5t-65.5 -44t-93.5 -14.5q-93 0 -138 23l18 127q45 -14 117 -14q42 0 62 27.5t27 95.5q-36 -10 -73 -10q-97 0 -143 59.5t-46 161.5q0 107 51.5 182t153.5 75q208 0 208 -322zM244 363q27 0 53 7q0 36 -0.5 53.5
t-2 47t-6 45t-11.5 32.5t-18.5 24t-27.5 7q-27 0 -38.5 -37t-11.5 -72q0 -25 1 -38.5t6.5 -32.5t19.5 -27.5t36 -8.5z" />
    <glyph glyph-name="zero.zero" horiz-adv-x="515" 
d="M484 282q0 -146 -60 -218.5t-171 -72.5q-113 0 -167.5 67.5t-54.5 204.5q0 136 58.5 213t175.5 77q114 0 166.5 -73.5t52.5 -197.5zM334 279q0 20 -1 29l-132 -150q18 -29 55 -29q78 0 78 150zM181 265v-18l129 145q-17 23 -49 23q-80 0 -80 -150z" />
    <glyph glyph-name="zero.tnum_onum" horiz-adv-x="470" 
d="M461 282q0 -146 -60 -218.5t-171 -72.5q-113 0 -167.5 67.5t-54.5 204.5q0 136 58.5 213t175.5 77q114 0 166.5 -73.5t52.5 -197.5zM311 279q0 72 -18 104t-55 32q-80 0 -80 -150q0 -136 75 -136q78 0 78 150z" />
    <glyph glyph-name="one.tnum_onum" horiz-adv-x="470" 
d="M433 0h-384v133h123v287h-123v131l270 9v-427h114v-133z" />
    <glyph glyph-name="two.tnum_onum" horiz-adv-x="470" 
d="M418 0h-366v131q4 4 33 31l53 50.5l52.5 53.5t45 55.5t16.5 40.5q0 25 -14.5 44.5t-42.5 19.5q-48 0 -110 -28l-28 119q28 18 69.5 31.5t74.5 13.5q57 0 97.5 -16t61 -44.5t29.5 -59.5t9 -69q0 -59 -58.5 -128t-120.5 -113h199v-132z" />
    <glyph glyph-name="three.tnum_onum" horiz-adv-x="470" 
d="M420 50q0 -224 -216 -224q-94 0 -154 28l27 130q54 -18 115 -18q78 0 78 84q0 49 -27 72t-104 25v110q66 6 87.5 24.5t21.5 60.5q0 74 -59 74q-40 0 -90 -21l-40 112q6 5 17 13t49 21t82 13q84 0 135.5 -49.5t51.5 -139.5q0 -50 -16 -86t-32 -47l-16 -12l10 -5t21.5 -17
t27.5 -31t21.5 -48.5t9.5 -68.5z" />
    <glyph glyph-name="four.tnum_onum" horiz-adv-x="470" 
d="M453 22h-69v-184h-146v184h-221v121l170 402h197v-391h69v-132zM238 154v252h-11l-18 -88l-54 -164h83z" />
    <glyph glyph-name="five.tnum_onum" horiz-adv-x="470" 
d="M423 69q0 -107 -60 -174t-163 -67q-93 0 -154 27l33 133q53 -21 117 -21q38 0 58.5 26.5t20.5 65.5q0 53 -28.5 73t-83.5 20q-30 0 -96 -4v396h329v-132h-183v-136q2 0 5 0.5t5 0.5q200 0 200 -208z" />
    <glyph glyph-name="six.tnum_onum" horiz-adv-x="470" 
d="M448 244q0 -107 -51.5 -182t-153.5 -75q-54 0 -94 19.5t-62.5 49.5t-36.5 74.5t-18 86t-4 92.5q0 58 5.5 109.5t23 107.5t45 96t75.5 66t111 26q84 0 133 -25l-26 -126q-38 12 -104 12q-86 0 -107 -120q35 10 75 10q97 0 143 -59.5t46 -161.5zM234 338q-16 0 -58 -7v-8
q0 -119 16 -159q17 -45 56 -45q27 0 38.5 38t11.5 74q0 25 -1.5 39t-7 32.5t-19.5 27t-36 8.5z" />
    <glyph glyph-name="seven.tnum_onum" horiz-adv-x="470" 
d="M420 421l-233 -616l-138 58l227 544h-226v137h370v-123z" />
    <glyph glyph-name="eight.tnum_onum" horiz-adv-x="470" 
d="M448 191q0 -102 -59 -151.5t-157 -49.5q-95 0 -152.5 45t-57.5 143q0 63 28.5 108t78.5 84q-87 76 -87 162q0 94 54 138t144 44q86 0 139.5 -47.5t53.5 -123.5q0 -87 -98 -174q34 -27 55 -48t39.5 -56.5t18.5 -73.5zM286 524q0 25 -11 45t-39 20q-27 0 -39 -19t-12 -45
q0 -37 47 -91q54 46 54 90zM297 204q0 48 -66 100q-60 -49 -60 -108q0 -74 65 -74q61 0 61 82z" />
    <glyph glyph-name="nine.tnum_onum" horiz-adv-x="470" 
d="M444 238q0 -61 -2.5 -104.5t-10 -94t-24 -84.5t-41.5 -63.5t-65.5 -44t-93.5 -14.5q-93 0 -138 23l18 127q45 -14 117 -14q42 0 62 27.5t27 95.5q-36 -10 -73 -10q-97 0 -143 59.5t-46 161.5q0 107 51.5 182t153.5 75q208 0 208 -322zM244 209q27 0 53 7q0 36 -0.5 53.5
t-2 47t-6 45t-11.5 32.5t-18.5 24t-27.5 7q-27 0 -38.5 -37t-11.5 -72q0 -25 1 -38.5t6.5 -32.5t19.5 -27.5t36 -8.5z" />
    <glyph glyph-name="registered.pnum_lnum" horiz-adv-x="718" 
d="M662 345q0 -163 -81 -259t-229 -96q-144 0 -220 97t-76 259q0 164 83.5 254.5t228.5 90.5q147 0 220.5 -94.5t73.5 -251.5zM587 346q0 129 -61.5 204.5t-165.5 75.5q-106 0 -167.5 -70t-61.5 -208q0 -131 58.5 -208.5t165.5 -77.5q120 0 176 76t56 208zM543 218l-23 -63
q-96 4 -134 69l-39 67h-31v-129h-96v375h131q59 0 96 -32t37 -93q0 -60 -54 -95l44 -51q23 -27 69 -48zM386 410q0 56 -44 56h-26v-112h15q55 0 55 56z" />
    <glyph glyph-name="copyright.pnum_lnum" horiz-adv-x="718" 
d="M664 343q0 -163 -81 -259t-229 -96q-144 0 -220 97t-76 259q0 164 83.5 254.5t228.5 90.5q148 0 221 -94t73 -252zM589 344q0 129 -61 204t-165 75q-106 0 -167.5 -69.5t-61.5 -207.5q0 -132 58 -209t165 -77q120 0 176 76t56 208zM476 513l-23 -83q-49 17 -83 17
q-62 0 -62 -103q0 -110 70 -110q33 0 81 16l16 -86q-53 -25 -104 -25q-82 0 -124.5 52.5t-42.5 147.5q0 203 166 203q48 0 106 -29z" />
    <glyph glyph-name="Euro.pnum_lnum" horiz-adv-x="536" 
d="M498 24q-69 -34 -156 -34q-224 0 -272 222h-70v104h58q-1 11 -1 33q0 27 1 40h-58v102h70q46 224 269 224q90 0 158 -41l-34 -108q-67 24 -122 24q-112 0 -132 -99h168v-102h-189q-1 -9 -1 -30q0 -8 0.5 -22t0.5 -21h189v-104h-160q12 -41 48.5 -68t90.5 -27q58 0 115 20
z" />
    <glyph glyph-name="dollar.pnum_lnum" horiz-adv-x="448" 
d="M419 204q0 -157 -136 -202l2 -102h-112l3 90q-92 4 -155 49l36 122q68 -42 140 -42q46 0 69.5 22.5t23.5 56.5q0 26 -18.5 47t-46.5 34.5t-61 34t-61 43.5t-46.5 66t-18.5 99q0 78 38.5 124t98.5 61l-2 93h111l-1 -91q48 -8 112 -44l-37 -118q-24 14 -38 20.5t-38 12.5
t-49 6q-37 0 -53.5 -18.5t-16.5 -44.5q0 -22 19 -41t47.5 -33.5t61.5 -36t61.5 -46.5t47.5 -67t19 -95z" />
    <glyph glyph-name="cent.pnum_lnum" horiz-adv-x="395" 
d="M371 110q-53 -15 -80 -17l2 -93h-111l2 100q-84 18 -119.5 84t-35.5 195q0 107 40.5 179t114.5 94l-2 101h111l-2 -95q44 -6 85 -35l-32 -111q-27 14 -43.5 18.5t-46.5 4.5q-42 0 -69.5 -38t-27.5 -120q0 -86 22.5 -124t91.5 -38q16 0 82 12z" />
    <glyph glyph-name="sterling.pnum_lnum" horiz-adv-x="407" 
d="M386 0h-343v122q34 24 46 113h-60v122h66q-2 82 -2 137q0 58 14.5 99t35 63t55.5 34t64 15t73 3l5 -126q-10 -1 -31 -3.5t-27 -3t-19.5 -3.5t-17 -6t-10.5 -8.5t-8.5 -13l-3.5 -18t-2 -25.5q0 -103 -2 -144h111v-122h-124q-14 -86 -29 -113h209v-122z" />
    <glyph glyph-name="florin.pnum_lnum" horiz-adv-x="407" 
d="M392 578q-5 0 -29 -2t-32 -3.5t-26 -7t-25.5 -13.5t-14.5 -22.5t-8 -34.5l-6 -141h81v-124h-87l-9 -233q-5 -114 -59 -169t-187 -55l-4 128q4 0 16 0.5t17 1t16 2t16 3t14.5 5t14.5 7.5t11.5 10.5t9.5 15t5.5 19.5t3.5 24l9 241h-75v124h81l6 134q3 71 24 117t58.5 68
t76 29.5t93.5 7.5z" />
    <glyph glyph-name="yen.pnum_lnum" horiz-adv-x="544" 
d="M538 707l-156 -354h121v-133h-174v-88h174v-132h-462v132h161v88h-161v133h109l-144 354h147l91 -261l25 -88h3l26 88l97 261h143z" />
    </font>
</defs>
</svg>
